<svg width="55" height="35" viewBox="0 0 55 35" fill="none" xmlns="http://www.w3.org/2000/svg">
<g opacity="0.75">
<rect y="0.75" width="54.1549" height="33.75" rx="2.32268" fill="#2557D6"/>
<path fill-rule="evenodd" clip-rule="evenodd" d="M0.000194308 16.5992H2.60137L3.18789 15.2012H4.50096L5.08594 16.5992H10.204V15.5304L10.6608 16.6038H13.3177L13.7745 15.5145V16.5992H26.4938L26.4878 14.3044H26.7339C26.9062 14.3103 26.9566 14.3261 26.9566 14.6072V16.5992H33.535V16.065C34.0656 16.346 34.8909 16.5992 35.9769 16.5992H38.7445L39.3368 15.2012H40.6498L41.229 16.5992H46.5622V15.2713L47.3699 16.5992H51.6436V7.82086H47.4141V8.8576L46.8218 7.82086H42.4818V8.8576L41.9379 7.82086H36.0757C35.0944 7.82086 34.2318 7.95622 33.535 8.33344V7.82086H29.4896V8.33344C29.0462 7.94464 28.442 7.82086 27.7702 7.82086H12.9905L11.9988 10.0882L10.9805 7.82086H6.32524V8.8576L5.81384 7.82086H1.84369L0 11.9946V16.5992H0.000187737H0.000194308ZM16.4197 15.333H14.859L14.8532 10.4035L12.6457 15.333H11.309L9.09567 10.3992V15.333H5.99923L5.41426 13.9291H2.24443L1.6535 15.333H3.61032e-06L2.72625 9.03895H4.98816L7.57742 14.9981V9.03895H10.0622L12.0546 13.3087L13.8848 9.03895H16.4195V15.333H16.4197H16.4197ZM4.89395 12.6229L3.85195 10.1137L2.81589 12.6229H4.89395ZM22.6309 15.333H17.5452V9.03895H22.6309V10.3496H19.0676V11.4841H22.5454V12.7743H19.0676V14.0313H22.6309V15.333ZM29.7978 10.7341C29.7978 11.7376 29.1201 12.256 28.7251 12.4117C29.0582 12.537 29.3427 12.7584 29.4782 12.9418C29.6931 13.2548 29.7302 13.5344 29.7302 14.0966V15.333H28.1947L28.1889 14.5393C28.1889 14.1606 28.2256 13.6159 27.9486 13.3131C27.7261 13.0917 27.387 13.0437 26.8389 13.0437H25.2047V15.333H23.6824V9.03895H27.184C27.962 9.03895 28.5353 9.05926 29.0275 9.34042C29.5091 9.62158 29.7978 10.032 29.7978 10.7341ZM27.8733 11.6687C27.6641 11.7942 27.4167 11.7983 27.1203 11.7983H25.2708V10.4003H27.1454C27.4107 10.4003 27.6876 10.4121 27.8674 10.5139C28.0649 10.6056 28.1871 10.8007 28.1871 11.0703C28.1871 11.3454 28.0708 11.5667 27.8733 11.6687ZM32.2394 15.333H30.686V9.03895H32.2394V15.333ZM50.2722 15.333H48.1148L45.2291 10.609V15.333H42.1286L41.5362 13.9291H38.3736L37.7989 15.333H36.0174C35.2774 15.333 34.3405 15.1713 33.8099 14.6369C33.2748 14.1025 32.9965 13.3786 32.9965 12.234C32.9965 11.3006 33.1628 10.4472 33.8172 9.77288C34.3094 9.27055 35.0801 9.03895 36.1292 9.03895H37.6031V10.3876H36.1601C35.6046 10.3876 35.2908 10.4692 34.9887 10.7604C34.7291 11.0255 34.551 11.5265 34.551 12.1862C34.551 12.8605 34.6867 13.3467 34.9696 13.6643C35.204 13.9134 35.6299 13.9889 36.0307 13.9889H36.7144L38.8601 9.03914H41.1412L43.7187 14.9924V9.03914H46.0367L48.7128 13.4226V9.03914H50.2722V15.333ZM41.0184 12.6229L39.9648 10.1137L38.9171 12.6229H41.0184Z" fill="white"/>
<path fill-rule="evenodd" clip-rule="evenodd" d="M54.1516 25.383C53.7818 25.9174 53.0612 26.1883 52.0857 26.1883H49.1456V24.8383H52.0737C52.3642 24.8383 52.5675 24.8006 52.6898 24.6825C52.7959 24.5851 52.8699 24.4437 52.8699 24.2718C52.8699 24.0885 52.7959 23.9428 52.6839 23.8555C52.5734 23.7595 52.4126 23.7158 52.1475 23.7158C50.718 23.6678 48.9347 23.7595 48.9347 21.7672C48.9347 20.8541 49.5214 19.8929 51.119 19.8929H54.1514V18.6403H51.3339C50.4837 18.6403 49.866 18.8416 49.4286 19.1544V18.6403H45.2611C44.5947 18.6403 43.8124 18.8036 43.4424 19.1544V18.6403H36.0004V19.1544C35.4082 18.7322 34.4088 18.6403 33.9475 18.6403H29.0387V19.1544C28.5702 18.706 27.5282 18.6403 26.893 18.6403H21.3993L20.1421 19.9848L18.9646 18.6403H10.7581V27.4248H18.8102L20.1056 26.059L21.3259 27.4248L26.2892 27.4291V25.3627H26.7772C27.4358 25.3727 28.2125 25.3466 28.8977 25.0538V27.4246H32.9916V25.1351H33.1891C33.4411 25.1351 33.4659 25.1453 33.4659 25.3942V27.4244H45.9024C46.692 27.4244 47.5173 27.2247 47.9743 26.8623V27.4244H51.9191C52.74 27.4244 53.5417 27.3107 54.1516 27.0195V25.383V25.383ZM29.4929 22.0041C29.4929 23.7529 28.1725 24.114 26.8417 24.114H24.9421V26.2257H21.9831L20.1084 24.1416L18.1603 26.2257H12.1299V19.9301H18.253L20.1261 21.9937L22.0626 19.9301H26.9272C28.1354 19.9301 29.4929 20.2606 29.4929 22.0041ZM17.3892 24.9014H13.6462V23.6488H16.9885V22.3644H13.6462V21.2198H17.463L19.1282 23.0544L17.3892 24.9014ZM23.4204 25.6223L21.083 23.0579L23.4204 20.5749V25.6223ZM26.8771 22.823H24.9097V21.2198H26.8948C27.4444 21.2198 27.826 21.4411 27.826 21.9917C27.826 22.5362 27.4621 22.823 26.8771 22.823ZM37.1841 19.9301H42.2652V21.232H38.7003V22.3766H42.1782V23.6611H38.7003V24.9136L42.2652 24.9193V26.2257H37.1841V19.93V19.9301ZM35.2307 23.3C35.5696 23.4236 35.8466 23.6451 35.9765 23.8285C36.1914 24.1359 36.2226 24.4227 36.2287 24.9776V26.2257H34.7003V25.438C34.7003 25.0593 34.7372 24.4985 34.4542 24.2057C34.2317 23.9802 33.8926 23.9263 33.3372 23.9263H31.7103V26.2257H30.1805V19.9301H33.6953C34.4661 19.9301 35.0274 19.9637 35.5271 20.2272C36.0076 20.514 36.3098 20.907 36.3098 21.6252C36.3096 22.63 35.6314 23.1428 35.2307 23.3ZM34.3701 22.5041C34.1665 22.6235 33.9146 22.6337 33.6184 22.6337H31.7689V21.2198H33.6436C33.9146 21.2198 34.1859 21.2255 34.3701 21.3335C34.5674 21.4355 34.6854 21.6304 34.6854 21.8998C34.6854 22.1692 34.5674 22.3862 34.3701 22.5041ZM48.1136 22.9051C48.4101 23.2083 48.5689 23.591 48.5689 24.2389C48.5689 25.5933 47.7127 26.2255 46.1774 26.2255H43.2121V24.8755H46.1654C46.4542 24.8755 46.659 24.8377 46.7873 24.7196C46.892 24.6222 46.9671 24.4808 46.9671 24.309C46.9671 24.1256 46.8859 23.98 46.7813 23.8927C46.6649 23.7966 46.5043 23.7529 46.2392 23.7529C44.8155 23.7049 43.0325 23.7966 43.0325 21.8044C43.0325 20.8912 43.6131 19.9301 45.2091 19.9301H48.2612V21.27H45.4685C45.1916 21.27 45.0116 21.2802 44.8585 21.3837C44.6918 21.4856 44.6299 21.6369 44.6299 21.8367C44.6299 22.0742 44.7715 22.2357 44.963 22.3056C45.1236 22.3608 45.2961 22.377 45.5555 22.377L46.375 22.3988C47.2015 22.4187 47.7688 22.56 48.1136 22.9051ZM54.1548 21.2198H51.3801C51.1031 21.2198 50.919 21.23 50.764 21.3335C50.6034 21.4355 50.5415 21.5868 50.5415 21.7865C50.5415 22.024 50.6772 22.1855 50.8745 22.2554C51.0351 22.3106 51.2076 22.3268 51.4612 22.3268L52.2863 22.3486C53.1189 22.3689 53.6747 22.5103 54.0136 22.8553C54.0752 22.9033 54.1123 22.9572 54.1548 23.0112V21.2198Z" fill="white"/>
</g>
</svg>
