<?xml version="1.0" encoding="utf-8"?>
<!-- Generator: Adobe Illustrator 24.1.2, SVG Export Plug-In . SVG Version: 6.00 Build 0)  -->
<svg version="1.1" id="Слой_1" xmlns="http://www.w3.org/2000/svg" xmlns:xlink="http://www.w3.org/1999/xlink" x="0px" y="0px"
	 viewBox="0 0 677 490" style="enable-background:new 0 0 677 490;" xml:space="preserve">
<style type="text/css">
	.st0{fill:#F2F2F2;}
	.st1{fill:#C4C4C4;}
	.st2{fill:#DADADA;}
	.st3{opacity:0.5;enable-background:new    ;}
	.st4{fill:#FFFFFF;}
	.st5{fill:#3333FF;}
	.st6{fill:none;stroke:#FFFFFF;stroke-width:2.4;}
	.st7{fill:#585858;}
	.st8{fill:none;stroke:#FFFFFF;}
</style>
<rect y="0" class="st0" width="677" height="490"/>
<path class="st1" d="M39.4,24.8h173.1c4.4,0,8,3.6,8,8v215c0,4.4-3.6,8-8,8H39.4c-4.4,0-8-3.6-8-8v-215C31.4,28.4,35,24.8,39.4,24.8
	z"/>
<path class="st2" d="M86.4,182.8l-55.1-54v119.1c0,4.4,3.6,8,8,8h173.1c4.4,0,8-3.6,8-8v-87.2L164.7,106L86.4,182.8z"/>
<circle class="st3" cx="124.9" cy="140.3" r="26.1"/>
<path class="st4" d="M135,138.6c1.3,0.8,1.3,2.7,0,3.5l-13.6,7.8c-1.3,0.8-3-0.2-3-1.7v-15.7c0-1.5,1.7-2.5,3-1.7L135,138.6z"/>
<circle class="st5" cx="194.3" cy="228.3" r="13.1"/>
<line class="st6" x1="194.5" y1="223.1" x2="194.5" y2="233.6"/>
<line class="st6" x1="199.6" y1="228.5" x2="189.1" y2="228.5"/>
<path class="st1" d="M253.2,24.8h173.1c4.4,0,8,3.6,8,8v215c0,4.4-3.6,8-8,8H253.2c-4.4,0-8-3.6-8-8v-215
	C245.2,28.4,248.8,24.8,253.2,24.8z"/>
<path class="st2" d="M300.3,182.8l-55.1-54v119.1c0,4.4,3.6,8,8,8h173.1c4.4,0,8-3.6,8-8v-87.2L378.5,106L300.3,182.8z"/>
<circle class="st3" cx="338.7" cy="140.3" r="26.1"/>
<path class="st4" d="M348.8,138.6c1.3,0.8,1.3,2.7,0,3.5l-13.6,7.8c-1.3,0.8-3-0.2-3-1.7v-15.7c0-1.5,1.7-2.5,3-1.7L348.8,138.6z"/>
<circle class="st5" cx="408.1" cy="228.3" r="13.1"/>
<line class="st6" x1="408.3" y1="223.1" x2="408.3" y2="233.6"/>
<line class="st6" x1="413.4" y1="228.5" x2="402.9" y2="228.5"/>
<path class="st1" d="M467,24.8h173.1c4.4,0,8,3.6,8,8v215c0,4.4-3.6,8-8,8H467c-4.4,0-8-3.6-8-8v-215C459,28.4,462.6,24.8,467,24.8z
	"/>
<path class="st2" d="M514.1,182.8l-55.1-54v119.1c0,4.4,3.6,8,8,8h173.1c4.4,0,8-3.6,8-8v-87.2L592.3,106L514.1,182.8z"/>
<circle class="st3" cx="552.5" cy="140.3" r="26.1"/>
<path class="st4" d="M562.6,138.6c1.3,0.8,1.3,2.7,0,3.5l-13.6,7.8c-1.3,0.8-3-0.2-3-1.7v-15.7c0-1.5,1.7-2.5,3-1.7L562.6,138.6z"/>
<circle class="st5" cx="622" cy="228.3" r="13.1"/>
<line class="st6" x1="622.1" y1="223.1" x2="622.1" y2="233.6"/>
<line class="st6" x1="627.2" y1="228.5" x2="616.7" y2="228.5"/>
<g>
	<path class="st7" d="M201.9,241.4l37.1,29.3l-20,0.4l-10.3,17.1L201.9,241.4z"/>
	<path class="st8" d="M209,286.7l-6.4-44.1l35,27.6l-18.6,0.3l-0.3,0l-0.1,0.2L209,286.7z"/>
</g>
</svg>
