<svg width="55" height="55" viewBox="0 0 55 55" fill="none" xmlns="http://www.w3.org/2000/svg">
<path fill-rule="evenodd" clip-rule="evenodd" d="M27.5 55C42.6878 55 55 42.6878 55 27.5C55 12.3122 42.6878 0 27.5 0C12.3122 0 0 12.3122 0 27.5C0 42.6878 12.3122 55 27.5 55ZM27.5 48.5294C39.1142 48.5294 48.5294 39.1142 48.5294 27.5C48.5294 15.8858 39.1142 6.47059 27.5 6.47059C15.8858 6.47059 6.47059 15.8858 6.47059 27.5C6.47059 39.1142 15.8858 48.5294 27.5 48.5294Z" fill="black"/>
<path d="M36 19L27 27.5L36 36" stroke="black" stroke-width="3.4125" stroke-linecap="round" stroke-linejoin="round"/>
<path d="M18 36L27 27.5L18 19" stroke="black" stroke-width="3.4125" stroke-linecap="round" stroke-linejoin="round"/>
</svg>
