<svg width="40" height="40" viewBox="0 0 40 40" fill="none" xmlns="http://www.w3.org/2000/svg">
<path fill-rule="evenodd" clip-rule="evenodd" d="M26.8253 11.8513C26.3371 11.3631 25.5457 11.3631 25.0575 11.8513L19.3383 17.5705L13.619 11.8513C13.1309 11.3631 12.3394 11.3631 11.8512 11.8513C11.3631 12.3394 11.3631 13.1309 11.8512 13.619L17.5705 19.3383L11.8512 25.0575C11.3631 25.5457 11.3631 26.3371 11.8512 26.8253C12.3394 27.3135 13.1309 27.3135 13.619 26.8253L19.3383 21.1061L25.0575 26.8253C25.5457 27.3135 26.3371 27.3135 26.8253 26.8253C27.3134 26.3371 27.3134 25.5457 26.8253 25.0575L21.106 19.3383L26.8253 13.619C27.3134 13.1309 27.3134 12.3394 26.8253 11.8513Z" fill="black"/>
</svg>
