<svg width="191" height="173" viewBox="0 0 191 173" fill="none" xmlns="http://www.w3.org/2000/svg">
<g opacity="0.7">
<path d="M46.6667 109.593C39.4453 103.809 42.5898 92.0412 51.7388 90.6149C51.7818 90.6093 54.7394 90.3473 55.6197 89.2271C56.27 88.3996 56.3222 88.3324 56.0882 85.2279C55.7605 80.9069 55.2143 73.676 61.1531 66.1206C67.0927 58.5666 74.1933 57.4619 78.4367 56.8011C81.4855 56.3271 81.5381 56.2587 82.188 55.4324C82.8379 54.6061 82.8913 54.5392 82.6562 51.4344C82.3296 47.1137 81.7811 39.8822 87.7207 32.3282C91.7664 27.1819 98.3015 24.1515 103.091 22.9623C108.672 21.5748 113.282 25.2674 113.282 25.2674C120.503 31.052 117.359 42.8196 108.209 44.2444C108.166 44.2511 105.262 44.4462 104.33 45.6314C103.68 46.4577 103.627 46.5261 103.863 49.6298C104.189 53.9504 104.737 61.1816 98.7967 68.7368C92.8583 76.2911 85.7573 77.3969 81.5142 78.0565C78.4654 78.5306 78.4117 78.5986 77.7618 79.4249C77.113 80.2515 77.0597 80.3184 77.2944 83.4244C77.621 87.7451 78.1684 94.9763 72.2288 102.53C68.046 107.851 61.5068 110.683 56.8076 111.984C51.0901 113.567 46.6667 109.593 46.6667 109.593Z" fill="#FF8DE4"/>
<path d="M138.841 103.224C139.5 102.387 142.73 101.827 142.773 101.82C151.701 100.437 154.764 88.9746 147.712 83.3344C147.712 83.3344 142.665 79.2973 137.51 80.6051C132.754 81.8125 126.03 84.6127 121.99 89.7447C115.97 97.3894 116.53 104.71 116.864 109.084C117.104 112.228 117.05 112.295 116.391 113.132C115.5 114.265 112.501 114.529 112.457 114.535C103.179 115.973 99.9972 127.884 107.325 133.745C107.325 133.745 111.813 137.77 117.61 136.171C122.376 134.856 129.005 131.993 133.244 126.61C139.263 118.965 138.704 111.645 138.369 107.271C138.13 104.128 138.183 104.06 138.841 103.224Z" fill="#B18CD9"/>
<path d="M56.204 41.5309L71.1132 36.5424C74.0484 35.5591 74.8382 31.6384 72.5029 29.638L61.3917 20.1286C59.3105 18.3466 56.0935 19.4232 55.3445 22.1518L51.3511 36.7172C50.5118 39.7798 53.2688 42.5142 56.204 41.5309Z" fill="#F9EE80"/>
<path d="M146.985 45.0854L155.141 58.5013C156.747 61.1425 160.663 61.0133 162.034 58.2713L168.557 45.2349C169.78 42.7914 168.02 39.8969 165.249 39.7922L150.463 39.2388C147.355 39.1225 145.379 42.4442 146.985 45.0854Z" fill="#2EDDDA"/>
<path d="M64.1026 145.311L78.9968 149.076C81.9296 149.817 84.5157 147.036 83.5484 144.18L78.9486 130.596C78.0859 128.05 74.8715 127.237 72.9057 129.069L62.4166 138.838C60.2125 140.892 61.1686 144.57 64.1026 145.311Z" fill="#5AD6FF"/>
<path d="M21.8555 60.0313L28.8394 56.1489C31.0607 54.914 33.7741 55.7606 34.8991 58.0395L38.4373 65.2049C39.5619 67.4849 38.6733 70.333 36.4517 71.569L29.4667 75.4511C27.2454 76.686 24.532 75.8394 23.407 73.5605L19.8699 66.3955C18.7442 64.1151 19.6331 61.2658 21.8555 60.0313Z" fill="#5AD6FF"/>
<path d="M144.722 129.791L151.969 125.991C154.276 124.783 157.124 125.671 158.334 127.976L162.134 135.223C163.342 137.53 162.453 140.379 160.148 141.587L152.901 145.387C150.595 146.597 147.747 145.708 146.537 143.402L142.737 136.155C141.528 133.85 142.417 131.001 144.722 129.791Z" fill="#2EDDDA"/>
<path d="M100.933 97.6232C99.6992 101.578 95.4942 103.783 91.5396 102.549C87.5851 101.315 85.38 97.1102 86.6138 93.1556C87.8473 89.2021 92.0527 86.9959 96.0073 88.2298C99.9618 89.4636 102.167 93.6698 100.933 97.6232Z" fill="#F9EE80"/>
<path d="M130.329 63.8451C129.26 67.2723 125.616 69.1834 122.189 68.1142C118.761 67.0449 116.85 63.4003 117.919 59.9732C118.988 56.5472 122.633 54.6349 126.06 55.7042C129.488 56.7734 131.398 60.4191 130.329 63.8451Z" fill="#5AD6FF"/>
</g>
</svg>
