<svg width="53" height="35" viewBox="0 0 53 35" fill="none" xmlns="http://www.w3.org/2000/svg">
<g opacity="0.75">
<path fill-rule="evenodd" clip-rule="evenodd" d="M3.73507 0.75C1.67264 0.75 0 2.40916 0 4.45535V30.7946C0 32.8412 1.6721 34.5 3.73507 34.5H49.2425C51.3049 34.5 52.9776 32.8408 52.9776 30.7946V18.8414V4.45535C52.9776 2.40878 51.3055 0.75 49.2425 0.75H3.73507Z" fill="#4D4D4D"/>
<path fill-rule="evenodd" clip-rule="evenodd" d="M28.1958 11.6101C30.2972 11.6101 32.0007 13.1986 32.0007 15.1609V15.1631C32.0007 17.1254 30.2972 18.7161 28.1958 18.7161C26.0943 18.7161 24.3908 17.1254 24.3908 15.1631V15.1609C24.3908 13.1986 26.0943 11.6101 28.1958 11.6101ZM22.2203 11.6559C22.8205 11.6559 23.3238 11.7761 23.9364 12.0662V13.5989C23.3562 13.0691 22.8528 12.8474 22.1871 12.8474C20.8787 12.8474 19.8497 13.8589 19.8497 15.1413C19.8497 16.4936 20.8469 17.4449 22.252 17.4449C22.8845 17.4449 23.3785 17.2347 23.9364 16.7135V18.2469C23.302 18.5259 22.7878 18.636 22.1871 18.636C20.0627 18.636 18.412 17.1138 18.412 15.1508C18.412 13.2089 20.1067 11.6559 22.2203 11.6559ZM15.6243 11.6982C16.4085 11.6982 17.1261 11.9488 17.726 12.4388L16.996 13.3312C16.6326 12.9509 16.2889 12.7905 15.8709 12.7905C15.2696 12.7905 14.8317 13.1101 14.8317 13.5307C14.8317 13.8914 15.0776 14.0823 15.9147 14.3716C17.5017 14.9134 17.972 15.3939 17.972 16.4549C17.972 17.7479 16.9548 18.6478 15.5051 18.6478C14.4435 18.6478 13.6717 18.2575 13.0289 17.3766L13.9301 16.5661C14.2514 17.1461 14.7874 17.4568 15.4528 17.4568C16.0752 17.4568 16.536 17.0559 16.536 16.5148C16.536 16.2343 16.3964 15.9938 16.1177 15.8238C15.9774 15.7433 15.6994 15.6232 15.1533 15.4434C13.843 15.0029 13.3935 14.5321 13.3935 13.612C13.3935 12.519 14.3589 11.6982 15.6243 11.6982ZM31.5667 11.8146H33.0907L34.9981 16.3006L36.9301 11.8146H38.4425L35.3526 18.6647H34.6019L31.5667 11.8146ZM4.57886 11.8249H6.62667C8.8892 11.8249 10.4664 13.1979 10.4664 15.1689C10.4664 16.1517 9.9839 17.102 9.16797 17.7326C8.48138 18.2649 7.69909 18.5036 6.61593 18.5036H4.57886V11.8249ZM11.1083 11.8249H12.5035V18.5036H11.1083V11.8249ZM39.0733 11.8249H43.0298V12.9565H40.4674V14.439H42.9353V15.5701H40.4674V17.3729H43.0298V18.5036H39.0733V11.8249ZM43.9539 11.8249H46.0224C47.6314 11.8249 48.5535 12.5464 48.5535 13.7967C48.5535 14.8193 47.9752 15.4904 46.9243 15.6901L49.1757 18.5036H47.4601L45.5292 15.8206H45.3473V18.5036H43.9539V11.8249ZM45.3473 12.8768V14.8995H45.7549C46.6458 14.8995 47.118 14.5383 47.118 13.8669C47.118 13.2169 46.6457 12.8768 45.777 12.8768H45.3473ZM5.97294 12.9565V17.3729H6.3473C7.24881 17.3729 7.81815 17.2116 8.25648 16.8421C8.73898 16.4409 9.02921 15.8002 9.02921 15.1593C9.02921 14.5194 8.73898 13.8979 8.25648 13.4966C7.79568 13.1073 7.24881 12.9565 6.3473 12.9565H5.97294Z" fill="white"/>
<path fill-rule="evenodd" clip-rule="evenodd" d="M52.9764 20.1755C51.2071 21.4104 37.9609 30.2358 15.0259 34.4989H49.2414C51.3038 34.4989 52.9764 32.8398 52.9764 30.7936V20.1755Z" fill="#F47216"/>
</g>
</svg>
