<svg width="18" height="18" viewBox="0 0 18 18" fill="none" xmlns="http://www.w3.org/2000/svg">
<path d="M8.21083 2.69922H2.60241C2.17742 2.69922 1.76984 2.86804 1.46933 3.16855C1.16882 3.46906 1 3.87664 1 4.30163V15.5185C1 15.9435 1.16882 16.351 1.46933 16.6516C1.76984 16.9521 2.17742 17.1209 2.60241 17.1209H13.8193C14.2442 17.1209 14.6518 16.9521 14.9523 16.6516C15.2528 16.351 15.4217 15.9435 15.4217 15.5185V9.91005" stroke="#8E8E8E" stroke-width="1.4" stroke-linecap="round" stroke-linejoin="round"/>
<path d="M14.2212 1.4978C14.54 1.17907 14.9723 1 15.423 1C15.8738 1 16.3061 1.17907 16.6248 1.4978C16.9436 1.81654 17.1226 2.24884 17.1226 2.69961C17.1226 3.15037 16.9436 3.58268 16.6248 3.90141L9.01341 11.5128L5.80859 12.3141L6.6098 9.10924L14.2212 1.4978Z" stroke="#8E8E8E" stroke-width="1.4" stroke-linecap="round" stroke-linejoin="round"/>
</svg>
