<svg width="4" height="22" viewBox="0 0 4 22" fill="none" xmlns="http://www.w3.org/2000/svg">
<path fill-rule="evenodd" clip-rule="evenodd" d="M2 18C3.10447 18 4 18.8955 4 20C4 21.1045 3.10447 22 2 22C0.895529 22 0 21.1045 0 20C0 18.8955 0.895529 18 2 18ZM2 9.49875C3.10447 9.49875 4 10.3943 4 11.4987C4 12.6032 3.10447 13.4987 2 13.4987C0.895529 13.4987 0 12.6032 0 11.4987C0 10.3943 0.895529 9.49875 2 9.49875ZM4 2.9975C4 1.89303 3.10447 0.997499 2 0.997499C0.895529 0.997499 0 1.89303 0 2.9975C0 4.10197 0.895529 4.9975 2 4.9975C3.10447 4.9975 4 4.10197 4 2.9975Z" fill="#6B6B6B"/>
</svg>
