<svg width="10" height="10" viewBox="0 0 10 10" fill="none" xmlns="http://www.w3.org/2000/svg">
<path fill-rule="evenodd" clip-rule="evenodd" d="M4.99999 0.40625C5.87238 0.40625 6.67967 0.624349 7.42186 1.06055C8.16404 1.49674 8.75323 2.08593 9.18943 2.82812C9.62563 3.5703 9.84373 4.37759 9.84373 5.24999C9.84373 6.12238 9.62563 6.92967 9.18943 7.67186C8.75323 8.41404 8.16404 9.00323 7.42186 9.43943C6.67967 9.87563 5.87238 10.0937 4.99999 10.0937C4.12759 10.0937 3.3203 9.87563 2.57812 9.43943C1.83593 9.00323 1.24674 8.41404 0.810545 7.67186C0.374349 6.92967 0.15625 6.12238 0.15625 5.24999C0.15625 4.37759 0.374349 3.5703 0.810545 2.82812C1.24674 2.08593 1.83593 1.49674 2.57812 1.06055C3.3203 0.624349 4.12759 0.40625 4.99999 0.40625ZM7.3828 6.51952L6.09374 5.24999L7.3828 3.98046C7.42186 3.92838 7.44139 3.87304 7.44139 3.81445C7.44139 3.75585 7.42186 3.70051 7.3828 3.64843L6.60155 2.86718C6.56248 2.82812 6.5104 2.80859 6.4453 2.80859C6.38019 2.80859 6.3216 2.82812 6.26952 2.86718L4.99999 4.15624L3.73046 2.86718C3.67838 2.82812 3.62304 2.80859 3.56445 2.80859C3.50585 2.80859 3.45051 2.82812 3.39843 2.86718L2.61718 3.64843C2.57812 3.68749 2.55859 3.73958 2.55859 3.80468C2.55859 3.86978 2.57812 3.92838 2.61718 3.98046L3.90624 5.24999L2.61718 6.51952C2.57812 6.5716 2.55859 6.62694 2.55859 6.68553C2.55859 6.74413 2.57812 6.79946 2.61718 6.85155L3.39843 7.6328C3.43749 7.67186 3.48958 7.69139 3.55468 7.69139C3.61978 7.69139 3.67838 7.67186 3.73046 7.6328L4.99999 6.34374L6.26952 7.6328C6.3216 7.67186 6.37694 7.69139 6.43553 7.69139C6.49413 7.69139 6.54946 7.67186 6.60155 7.6328L7.3828 6.85155C7.42186 6.81248 7.44139 6.7604 7.44139 6.6953C7.44139 6.63019 7.42186 6.5716 7.3828 6.51952Z" fill="#FF2D55"/>
</svg>
