<svg width="2500" height="886" viewBox="0 0 2500 886" fill="none" xmlns="http://www.w3.org/2000/svg">
<path fill-rule="evenodd" clip-rule="evenodd" d="M726.878 164.409L736.722 176.718C749.03 199.687 753.959 223.487 751.494 247.286C749.043 262.059 742.467 276.818 733.44 290.774C726.061 302.265 717.021 312.109 706.36 319.489C699.797 323.587 693.221 326.869 687.489 328.516L671.069 327.699C669.053 326.538 667.383 324.862 666.23 322.843C665.076 320.823 664.481 318.533 664.506 316.207C664.506 312.109 666.153 308.828 668.605 306.363C671.069 303.899 676.814 302.265 684.194 302.265C689.94 302.265 695.685 298.984 703.065 293.238C710.445 287.492 716.191 280.113 721.949 271.903C729.329 258.777 732.61 244.822 732.61 230.049C731.798 215.853 727.576 202.061 720.302 189.843L709.641 175.888L699.797 166.044C678.462 149.637 649.747 139.793 612.822 137.328C582.459 134.877 554.561 137.328 528.298 144.721C447.885 165.239 398.639 202.164 379.768 253.862C374.022 271.099 373.205 285.871 378.134 298.984C381.415 306.376 387.161 314.573 395.371 322.783H396.188L398.652 325.247C406.045 330.98 409.313 336.726 410.143 342.471C410.143 349.851 405.228 355.61 396.188 358.891C390.455 361.342 378.134 365.454 359.263 371.199L339.575 376.932C287.047 393.352 244.39 418.785 212.38 453.259L205 459.822L197.608 469.653C172.991 498.381 154.937 529.56 144.276 563.204C136.883 586.173 133.602 608.338 135.249 630.504C136.066 652.643 142.629 672.357 153.303 690.385C163.941 709.392 178.829 725.682 196.803 737.984C215.674 750.293 237.01 759.319 260.809 765.065C287.89 770.811 321.534 770.007 361.74 764.261C406.875 756.868 444.617 744.547 473.332 725.676L486.47 717.466L500.413 707.635C517.569 692.543 533.741 676.367 548.829 659.206C566.066 639.518 577.544 619.817 584.937 600.946C590.682 582.075 592.329 566.498 589.865 553.373C588.231 545.163 584.937 538.574 579.204 533.659L577.557 531.207C575.093 529.56 572.641 525.462 569.347 518.899C569.347 514.801 570.164 512.336 572.628 509.885C575.08 507.434 577.544 505.787 581.655 505.787C585.767 505.787 590.682 508.238 594.781 512.349L595.598 513.153C601.343 518.899 605.442 527.926 608.723 538.587C612.822 552.543 612.822 567.315 610.357 582.088C602.16 628.04 572.615 672.37 521.735 715.028L515.172 719.943L508.61 726.532L493.02 736.363C462.658 756.881 427.367 771.654 386.344 780.694C344.49 789.708 302.637 791.355 259.149 786.413C218.943 781.498 184.482 771.641 156.571 757.711C128.673 742.913 105.704 723.238 87.6499 697.804L72.0603 674.017C66.3147 664.977 62.2162 652.669 58.1048 638.727C50.725 609.999 52.3592 580.441 63.0333 551.738C67.1318 541.077 75.3416 526.279 87.6499 508.238C108.168 481.157 127.856 459.835 146.727 444.219L154.937 437.656L163.964 431.094C212.367 396.62 280.484 369.539 368.277 350.668C382.232 347.387 389.625 344.106 389.625 341.641C389.625 340.007 386.344 338.36 379.781 335.909H378.147C336.293 323.6 314.958 302.265 314.141 273.537V263.693C314.141 251.385 318.239 238.259 327.266 225.938C335.476 211.995 347.785 199.687 364.191 188.196C399.469 160.298 447.068 139.78 505.328 127.472C602.978 106.953 674.363 115.98 718.681 156.187L726.878 164.409V164.409Z" fill="#040A2B"/>
<path fill-rule="evenodd" clip-rule="evenodd" d="M872.943 136.511C863.916 131.596 854.072 128.302 842.581 125.837C823.78 122.669 804.54 123.229 785.955 127.484C767.901 131.583 745.748 141.427 719.485 156.199L699.784 166.044C675.515 180.169 652.702 196.661 631.679 215.277C611.161 232.514 591.473 253.019 572.602 276.818C551.267 300.618 526.65 338.36 499.569 390.057C485.453 416.085 472.314 442.631 460.18 469.64L346.941 474.581C295.244 472.934 250.109 465.541 213.184 453.246L187.75 442.559L164.781 431.081C135.249 413.844 109.802 393.326 89.2968 371.173L81.9041 361.316C70.4128 342.445 65.4973 322.744 67.1315 303.056C67.9486 294.029 70.4128 282.538 76.1584 269.413L87.6497 244.796L89.2968 241.515C106.521 210.335 134.419 180.79 173.821 152.892C213.21 124.177 259.162 101.195 312.493 82.3237L328.083 78.2253L351.053 74.9439L387.16 75.7611C391.259 74.944 394.54 74.1268 397.004 72.4796C399.456 70.0284 400.286 68.3812 400.286 65.917C399.469 53.6087 392.076 47.033 376.499 47.033C360.897 46.2159 342.026 50.3143 320.703 57.7071C306.748 61.8055 287.877 69.1983 265.725 79.8594C233.715 92.1678 201.719 109.405 168.075 133.191C131.15 158.625 104.886 183.241 87.6626 207.871C77.0015 223.461 68.7916 237.403 64.6932 248.077L53.176 280.113L48.2475 305.546C42.5019 340.824 55.6273 372.016 87.6367 397.45C108.155 416.321 127.843 431.911 146.714 444.219L163.951 454.88L198.411 468.836C228.774 481.144 265.699 488.524 310.016 492.622C353.504 496.721 401.103 495.917 451.983 490.171C438.028 521.35 425.72 546.784 415.058 565.655C399.456 592.736 383.049 614.901 365.825 632.125C342.856 616.548 323.155 605.887 306.735 598.481C291.145 591.919 276.373 588.65 263.247 588.65C246.01 588.65 231.251 593.566 219.76 602.58C208.268 611.594 202.523 622.294 202.523 635.406C202.523 649.362 208.268 660.84 219.76 670.697C233.702 682.175 253.403 687.921 279.667 687.921C312.493 687.921 342.856 678.064 369.924 659.193C405.214 684.652 440.492 706.792 474.966 724.846L479.881 728.983L493.837 736.35C561.941 774.118 626.777 789.695 689.135 783.132C749.043 776.569 799.923 751.11 842.594 706.805L872.956 676.456V642.812L840.947 672.344C790.896 710.086 735.904 730.604 676.01 734.716C630.888 737.984 580.008 731.421 523.382 715.002L500.412 707.635C465.135 693.679 427.38 673.161 387.991 646.08C409.326 629.661 433.125 605.044 458.559 571.401C480.711 541.868 500.412 511.493 516.819 481.144C572.615 469.64 630.058 448.317 689.135 417.955C748.226 386.776 799.106 350.668 842.594 310.462L857.366 297.337L872.956 281.747V222.67C866.393 236.625 855.719 252.215 840.947 269.439C814.696 302.265 777.758 335.091 730.159 367.905C666.153 411.406 599.683 440.951 529.932 458.174C566.857 387.606 602.964 329.333 637.438 284.198C662.472 250.318 690.481 218.741 721.132 189.843L725.23 185.745L737.539 176.718C775.281 148.003 809.741 137.328 841.751 146.355C855.693 150.454 866.367 157.017 872.93 166.057V136.511H872.943V136.511ZM263.247 608.351C282.948 608.351 311.663 620.66 350.236 645.289C328.083 660.866 304.284 668.259 278.033 668.259C255.88 668.259 240.278 663.317 229.617 652.656C224.688 647.741 222.224 641.995 222.224 635.432C222.224 629.687 224.688 624.771 229.617 620.66C236.984 612.45 247.658 608.351 263.247 608.351Z" fill="#040A2B"/>
<path fill-rule="evenodd" clip-rule="evenodd" d="M893.461 885.71H36.7559V28.2008H893.448V885.71H893.461ZM842.58 833.999H87.6362V79.0681H842.58V833.999ZM1824.81 48.7059L1897.02 50.353L1967.59 49.536L1965.94 61.0272V72.5184L1933.12 70.0671L1873.24 68.42H1856.82L1855.99 143.917V171.815L1856.82 172.632L1956.93 170.998L1956.1 181.672L1956.93 192.333L1883.07 189.052L1856.83 189.869H1856L1859.29 311.305L1860.1 312.122H1873.25L1970.07 305.559L1969.26 317.037V329.346L1819.1 330.176C1821.55 308.023 1822.37 289.97 1822.37 275.197L1824.02 188.209C1823.21 106.149 1821.56 59.38 1819.92 48.7059H1824.81V48.7059ZM1770.64 61.0142L1771.47 72.5054L1737.83 70.0542L1677.92 68.407H1661.5L1660.7 143.904V171.802L1661.5 172.619L1761.62 170.985L1760.81 181.659L1761.62 192.32L1687.78 189.039L1661.52 189.856H1660.71L1663.98 311.292L1664.81 312.109H1677.94L1774.76 305.546L1773.95 317.024V329.333L1623.79 330.163C1626.24 308.01 1627.08 289.957 1627.08 275.184L1628.7 188.196C1627.9 106.136 1626.25 59.367 1624.61 48.6929H1629.55L1701.74 50.3401L1772.3 49.523L1770.64 61.0142V61.0142ZM1770.64 0.302734H1622.96V17.5266H1770.64V0.302734ZM1794.46 425.361L1791.16 426.178L1789.54 626.405L1790.35 646.897L1791.99 670.71L1839.59 672.357L1885.54 669.88C1898.67 667.429 1909.33 664.16 1916.7 660.866C1922.44 657.597 1929.01 652.656 1936.41 646.91L1944.62 639.544C1968.41 615.731 1979.91 583.735 1979.09 541.894C1978.26 493.491 1964.3 459.847 1938.86 440.976C1928.2 433.584 1917.53 427.838 1907.68 425.374L1858.46 421.275L1794.46 425.361V425.361ZM1784.61 408.941L1873.25 407.307L1937.24 413.053C1952.01 417.151 1965.97 425.361 1979.12 437.669C2006.18 463.103 2020.13 496.746 2020.97 536.966C2020.97 560.752 2016.03 583.722 2005.37 604.253C1997.16 619.943 1986.65 634.32 1974.19 646.91L1965.18 655.12C1949.58 667.429 1933.16 676.468 1915.13 680.58C1895.41 685.495 1867.53 687.947 1832.24 687.143L1760.02 687.947H1753.46C1754.29 685.495 1755.11 672.37 1755.91 650.205L1758.39 535.332C1757.56 495.942 1756.74 468.861 1755.91 453.285L1753.46 407.32L1784.61 408.941ZM2065.25 405.673L2136.64 408.124L2207.21 407.307L2205.56 418.798V429.459L2173.56 427.825L2112.84 426.191H2096.42L2095.59 501.688V528.769L2096.42 529.573L2196.53 527.926L2195.7 538.587L2196.53 550.091L2122.67 546.797H2096.43L2095.6 547.627L2098.9 668.259L2100.54 669.063L2113.67 669.867L2209.67 663.304L2208.87 673.991V686.274L2058.7 687.921L2061.97 646.884V632.955L2063.62 545.15C2062.81 463.907 2061.17 417.125 2059.52 405.647H2065.25V405.673V405.673ZM2353.27 407.307C2384.45 406.49 2407.43 412.222 2422.19 426.178C2434.5 436.852 2440.26 452.429 2440.26 471.3C2440.26 490.171 2432.05 505.773 2416.45 519.703C2400.87 533.658 2378.71 542.672 2350.81 548.431L2351.61 549.261L2381.14 587.003L2452.56 677.26L2463.22 689.568H2418.89L2335.19 580.414L2309.76 551.712H2293.34C2292.54 562.373 2292.54 578.793 2293.34 601.763L2297.44 687.921L2275.3 686.274L2256.43 687.921L2258.05 645.263C2258.88 621.451 2259.7 584.539 2260.53 535.293L2258.88 449.952L2256.43 407.281L2285.96 408.915L2353.27 407.307V407.307ZM2293.37 426.178V536.123L2315.53 536.953L2350.82 534.501C2358.49 531.905 2365.9 528.605 2372.96 524.644C2381.7 520.008 2388.84 512.862 2393.48 504.126C2399.22 494.269 2402.52 483.608 2401.69 472.947C2399.24 438.473 2377.07 421.249 2335.22 421.249C2313.88 421.249 2299.93 422.884 2294.21 425.348L2293.37 426.178ZM1060.03 68.407H1044.44L1043.62 143.904V171.802L1044.44 172.619L1144.56 170.985L1143.74 181.659L1144.56 192.32L1070.71 189.039L1044.45 189.856H1043.64L1046.91 311.292L1047.72 312.109H1060.85L1157.68 305.546L1156.05 317.024L1156.86 329.333L1006.7 330.163C1009.16 308.01 1009.98 289.957 1009.98 275.184L1011.63 188.196C1010.81 106.136 1009.16 59.367 1007.53 48.6929H1012.45L1084.66 50.3401L1155.23 49.523L1153.6 61.0142V72.5054L1120.77 70.0542L1060.03 68.407V68.407ZM1027.2 407.307L1047.72 405.673C1042.81 449.173 1041.16 491.027 1042.81 529.573C1042.81 584.565 1043.62 623.928 1044.44 646.91L1045.26 661.709L1046.08 669.076L1063.31 670.723L1119.11 669.076L1161.78 665.781L1160.96 677.286V687.947L1117.47 687.143C1101.87 686.313 1077.26 686.313 1041.98 687.143L1006.69 687.947L1009.15 632.981L1010.79 548.444C1010.79 513.153 1009.15 465.554 1006.69 405.673L1027.2 407.307ZM1195.42 276.831C1214.31 305.559 1237.28 320.332 1265.17 320.332C1284.05 320.332 1299.62 313.769 1311.93 300.631C1323.43 288.322 1329.18 273.55 1329.18 256.313C1329.18 242.357 1324.24 230.879 1315.22 221.852C1306.21 212.825 1291.41 204.615 1270.92 197.236C1235.63 184.927 1212.65 170.155 1202.8 152.918C1197.07 142.257 1193.79 131.583 1193.79 119.274C1193.79 96.3049 1201.99 77.4209 1218.39 63.4655C1234.81 48.6929 1256.15 41.3131 1283.24 41.3131C1311.94 42.1302 1333.29 48.693 1347.23 62.6484L1335.76 93.8277C1325.09 68.394 1307.03 56.0728 1279.95 56.9028C1262.72 56.9028 1248.77 61.0013 1238.91 70.0412C1229.07 79.0682 1224.14 91.3765 1224.14 106.966C1224.95 129.118 1235.63 145.538 1256.15 155.382L1293.9 170.155C1316.87 177.535 1333.29 187.379 1343.95 198.87C1354.61 210.361 1359.53 225.134 1359.53 242.37C1359.53 267.804 1349.67 289.969 1330 307.193C1311.13 324.43 1287.34 332.64 1258.61 332.64C1231.53 332.64 1208.55 324.43 1188.03 308.84L1195.42 276.831V276.831ZM1538.43 69.2241L1499.85 68.407H1499.04L1496.59 170.985L1495.76 227.611L1499.06 330.189L1477.72 328.542L1458.85 330.189C1461.3 303.108 1462.95 268.634 1462.95 228.428L1462.12 114.372L1460.5 68.42L1371.06 72.5184L1371.86 61.0272L1371.06 49.536C1373.51 50.3531 1407.97 50.3531 1474.44 51.1702H1486.75L1586.86 49.536L1585.22 60.1971L1586.86 72.5054L1538.43 69.2241V69.2241ZM1316.05 397.463L1336.57 447.526L1387.47 562.399L1421.91 640.348L1444.08 687.947L1422.74 686.3L1400.58 687.947L1371.05 614.11L1354.63 574.721L1353.8 573.891H1247.95L1247.13 574.721L1231.54 612.463L1218.41 646.91C1211.84 664.16 1206.91 678.09 1204.46 688.79L1190.51 687.143L1175.73 687.947L1192.97 648.557L1306.22 397.463H1316.05V397.463ZM1498.24 405.673L1494.95 492.648V551.751C1494.14 587.042 1496.59 610.011 1501.51 620.673C1505.61 631.334 1511.37 639.544 1517.93 646.91C1533.53 665.781 1556.51 675.638 1585.22 674.821C1605.73 674.017 1622.15 670.723 1635.27 663.317C1642.66 659.219 1650.06 654.303 1655.78 646.897C1659.88 641.178 1663.99 635.419 1667.29 628.856C1673.03 618.195 1676.3 606.691 1678.77 594.383C1680.41 582.905 1681.22 562.386 1681.22 532.854V495.112C1680.41 472.947 1679.6 443.415 1677.15 405.66L1691.08 408.111L1705.85 405.66C1705.04 413.857 1704.23 441.768 1703.4 488.524L1702.59 531.207C1701.76 558.288 1700.95 577.963 1700.14 590.284C1699.31 600.141 1696.85 610.803 1693.55 621.464C1691.1 630.504 1686.19 638.713 1680.43 646.897L1669.77 659.206C1649.25 681.371 1619.72 692.849 1580.33 692.849C1561.46 692.849 1545.04 690.398 1529.46 685.482C1513.86 680.567 1500.73 674.004 1491.72 664.964C1485.62 659.774 1480.36 653.681 1476.11 646.897L1469.55 632.968C1465.45 620.66 1462.99 603.436 1462.99 582.074V522.193L1462.16 484.425C1462.16 471.3 1460.54 445.049 1458.06 405.66L1478.58 408.111L1498.24 405.673V405.673ZM1513 754.417L1526.13 870.133L1517.92 869.303L1509.71 870.133L1508.9 847.138L1502.34 783.962L1475.26 832.365L1458.01 868.486H1457.2L1413.7 785.596L1408.79 829.901L1405.49 870.133L1398.93 869.303L1394.02 870.133L1410.44 754.417H1412.89L1460.49 843.856L1510.54 754.417H1513V754.417ZM1656.61 756.064C1682.05 755.234 1694.36 764.274 1694.36 783.145C1694.36 795.453 1689.42 804.48 1679.58 810.226C1671.37 815.141 1660.71 817.592 1646.76 817.592H1635.25L1636.9 870.133L1628.69 869.303L1620.48 870.133L1622.13 811.03L1620.48 756.064H1656.61V756.064ZM1347.23 558.301L1321.8 497.576C1308.67 467.201 1301.28 452.442 1300.46 453.272L1291.42 472.96L1253.68 557.497L1254.5 558.301H1347.23V558.301ZM1281.59 776.582C1274.2 764.274 1261.88 758.515 1245.49 758.515C1229.88 758.515 1217.58 764.261 1209.38 776.582C1202.8 785.596 1199.52 797.074 1199.52 812.677C1199.52 827.449 1202.8 839.758 1209.38 848.772C1217.58 861.08 1229.88 866.839 1245.49 866.839C1261.89 866.839 1274.2 861.093 1281.59 848.772C1288.16 839.758 1291.42 827.436 1291.42 812.677C1291.42 797.917 1288.16 785.596 1281.59 776.582V776.582ZM1291.42 856.165C1280.76 866.826 1265.19 871.741 1245.49 871.741C1226.6 871.741 1211.01 866.826 1199.53 856.165C1188.87 845.503 1183.13 831.548 1183.13 812.664C1183.13 793.78 1188.87 779.837 1199.53 769.163C1211.03 758.502 1226.62 753.587 1245.49 753.587C1265.19 753.587 1280.76 758.502 1291.42 769.163C1302.93 779.825 1308.67 793.78 1308.67 812.664C1308.67 831.548 1302.93 845.503 1291.42 856.165ZM1635.25 811.03L1644.29 811.86C1667.26 811.86 1678.74 802.82 1678.74 784.779C1678.74 769.176 1669.73 760.966 1650.86 760.966L1636.08 762.614L1635.25 811.03V811.03ZM1105.17 760.162C1103.52 765.078 1102.7 769.176 1101.87 773.288H1100.24C1092.03 764.274 1081.37 759.332 1068.24 759.332C1054.29 759.332 1042.81 765.078 1033.77 775.752C1026.39 784.792 1023.11 797.917 1023.11 813.494C1023.11 829.097 1027.2 842.222 1035.41 851.262C1042.81 860.276 1053.47 865.191 1067.41 866.035C1080.55 866.035 1092.86 861.093 1104.35 851.262L1105.17 852.066L1102.7 861.923C1092.86 868.486 1080.55 871.754 1064.96 871.754C1046.91 871.754 1032.95 866.839 1022.29 856.178C1011.63 845.516 1005.87 831.561 1005.87 813.494C1005.87 794.623 1012.43 779.046 1024.75 768.372C1035.41 758.515 1051 753.6 1070.71 753.6C1084.65 753.6 1096.14 756.064 1105.17 760.162V760.162ZM2303.22 760.162V765.078L2260.56 764.274L2258.92 797.074V805.284H2281.89L2299.93 804.48L2299.12 810.226L2299.93 814.324L2270.4 812.677L2258.92 813.481V815.958L2259.72 861.91L2280.24 861.08L2304.03 859.433V870.12H2303.22V869.29L2243.31 870.12L2244.96 838.098V824.972L2245.77 806.905L2244.15 756.038H2303.22V760.162V760.162ZM2438.61 760.979L2433.7 774.935H2432.05C2430.4 770.836 2427.95 766.725 2423.84 764.274C2419.74 760.979 2415.63 759.332 2411.53 760.175C2404.97 759.345 2400.03 761.822 2396.76 765.921C2392.66 770.019 2390.2 774.131 2390.2 779.85C2390.2 786.413 2392.65 791.355 2397.56 795.453C2400.86 797.904 2407.42 801.173 2417.28 805.284C2426.29 809.383 2432.05 812.677 2435.32 815.971C2440.26 820.887 2442.71 827.449 2442.71 834.842C2442.71 845.503 2438.61 853.713 2431.21 861.08C2423.84 868.473 2413.98 871.741 2402.51 871.741C2391.84 871.741 2381.99 868.473 2374.59 861.91L2377.89 847.112H2379.54C2381.99 852.857 2385.26 856.969 2390.2 860.263C2395.11 862.714 2400.03 864.361 2405.77 864.361C2413.17 864.361 2418.9 861.91 2423 857.799C2427.12 853.7 2429.59 847.942 2429.59 841.379C2429.59 834.816 2427.94 829.875 2423.84 826.606C2420.55 823.312 2413.98 820.044 2404.97 816.749C2395.11 812.651 2387.75 807.735 2383.63 802.794C2379.3 797.789 2376.96 791.37 2377.05 784.753C2377.05 774.896 2381.14 766.686 2388.55 760.941C2394.3 756.025 2403.32 753.574 2413.98 753.574C2422.75 753.519 2431.33 756.099 2438.61 760.979V760.979ZM2036.52 756.064L2033.23 871.754H2030.78L2008.64 847.138L1947.09 780.694L1946.28 781.498L1947.09 859.446L1947.89 870.133L1942.17 869.303L1935.61 870.133L1937.23 849.615L1938.88 811.03V753.6H1941.33L2025.05 842.209L2024.22 756.051H2036.52V756.064V756.064ZM2148.95 756.064L2147.3 806.931C2147.3 825.802 2147.3 839.758 2148.1 850.432L2148.93 870.146L2140.72 869.316L2132.51 870.146L2133.32 850.432L2132.51 756.077H2148.95V756.064V756.064ZM1806.78 754.417H1810.05L1859.29 870.133L1851.08 869.303L1842.87 870.133L1824.81 824.998H1782.15L1765.73 870.133L1759.98 869.303L1754.26 870.133L1805.13 757.711V756.064L1806.78 754.417ZM1804.31 775.739L1785.44 818.423H1822.36L1810.05 790.512L1804.31 775.739V775.739Z" fill="#040A2B"/>
</svg>
