<?xml version="1.0" standalone="no"?>
<!DOCTYPE svg PUBLIC "-//W3C//DTD SVG 20010904//EN"
 "http://www.w3.org/TR/2001/REC-SVG-20010904/DTD/svg10.dtd">
<svg version="1.0" xmlns="http://www.w3.org/2000/svg"
 width="300.000000pt" height="300.000000pt" viewBox="0 0 300.000000 300.000000"
 preserveAspectRatio="xMidYMid meet">
<metadata>
Created by potrace 1.16, written by Peter Selinger 2001-2019
</metadata>
<g transform="translate(0.000000,300.000000) scale(0.100000,-0.100000)"
fill="#000000" stroke="none">
<path d="M0 1500 l0 -1500 1500 0 1500 0 0 1500 0 1500 -1500 0 -1500 0 0
-1500z m2970 5 l0 -1475 -1470 0 -1470 0 0 1475 0 1475 1470 0 1470 0 0 -1475z"/>
<path d="M180 2595 c0 -124 3 -225 8 -224 4 0 27 24 52 52 64 74 173 170 261
229 76 51 262 148 285 148 7 0 16 5 19 10 4 7 -102 10 -309 10 l-316 0 0 -225z"/>
<path d="M872 2780 c-274 -114 -495 -271 -642 -455 l-50 -63 0 -235 0 -235 61
-56 c34 -30 94 -78 134 -106 l73 -50 58 36 c147 89 347 168 556 220 225 56
233 65 93 115 -78 28 -148 96 -165 159 -42 156 116 334 407 460 167 72 353
110 535 110 179 0 299 -32 411 -109 l44 -30 42 26 c23 13 79 39 124 55 68 26
98 31 175 32 l93 1 -3 80 -3 80 -925 2 -925 2 -93 -39z"/>
<path d="M1790 2615 c-184 -30 -378 -123 -486 -232 -95 -97 -143 -230 -114
-318 7 -21 34 -62 61 -91 27 -30 49 -62 49 -72 0 -35 -45 -60 -185 -102 -221
-65 -368 -144 -469 -249 -29 -29 -35 -42 -25 -45 32 -11 179 -45 249 -57 84
-15 444 -18 552 -5 l67 7 85 164 c162 312 255 450 420 622 92 96 248 226 322
269 17 10 15 13 -24 37 -115 73 -319 103 -502 72z"/>
<path d="M2625 2586 c-50 -16 -133 -58 -163 -82 l-23 -19 20 -45 c46 -105 44
-206 -8 -315 -49 -103 -129 -169 -199 -163 -34 3 -37 6 -37 32 0 27 4 30 53
41 63 15 107 53 143 123 34 66 35 200 2 252 l-23 35 -76 -80 c-111 -116 -201
-225 -289 -350 -122 -174 -325 -525 -304 -525 5 0 60 16 122 36 355 115 643
288 885 531 l92 93 -2 223 -3 222 -75 2 c-41 1 -93 -4 -115 -11z"/>
<path d="M2720 1933 c-270 -238 -618 -417 -973 -499 l-77 -18 -59 -95 c-103
-167 -183 -272 -289 -379 -57 -58 -102 -106 -100 -107 31 -29 333 -193 384
-209 17 -5 37 8 97 64 223 208 305 443 195 556 -36 39 -34 68 5 72 58 7 97
-71 97 -194 0 -148 -71 -286 -226 -440 -47 -47 -85 -86 -83 -88 7 -5 163 -45
219 -56 241 -46 449 -25 661 65 86 37 228 119 241 139 10 15 10 1266 1 1265
-5 0 -46 -34 -93 -76z"/>
<path d="M180 1513 l0 -198 42 50 c23 28 72 80 109 116 l69 66 -53 35 c-28 19
-75 56 -103 82 -29 25 -55 46 -58 46 -3 0 -6 -89 -6 -197z"/>
<path d="M516 1405 c-220 -300 -231 -639 -26 -828 73 -68 193 -130 296 -152
110 -25 314 -16 447 18 92 25 251 86 290 112 16 11 13 15 -30 40 -26 15 -110
68 -186 118 l-138 90 -49 -27 c-115 -63 -233 -86 -339 -66 -80 14 -130 39
-166 82 -24 29 -27 38 -23 90 3 44 10 64 29 84 42 45 91 64 167 64 89 0 165
-26 278 -96 l89 -55 34 38 c58 65 151 213 212 339 32 66 59 123 59 126 0 3
-98 3 -217 0 -168 -3 -247 -1 -343 12 -106 13 -264 48 -320 70 -11 5 -30 -13
-64 -59z"/>
<path d="M702 963 c-41 -20 -65 -64 -57 -102 24 -112 265 -137 422 -46 23 14
43 28 43 30 0 2 -32 23 -70 46 -140 83 -263 109 -338 72z"/>
<path d="M182 428 l3 -243 1315 0 1315 0 3 223 c1 122 0 222 -4 222 -3 0 -42
-27 -86 -61 -314 -236 -643 -262 -1031 -81 l-98 45 -107 -51 c-219 -106 -351
-137 -572 -136 -126 1 -170 5 -233 22 -156 43 -290 116 -422 230 l-85 73 2
-243z"/>
</g>
</svg>
