<svg width="55" height="35" viewBox="0 0 55 35" fill="none" xmlns="http://www.w3.org/2000/svg">
<g opacity="0.75">
<rect y="0.75" width="54.1549" height="33.75" rx="2.32268" fill="black"/>
<path fill-rule="evenodd" clip-rule="evenodd" d="M31.3383 17.625C31.3383 24.7291 25.535 30.4876 18.3766 30.4876C11.2182 30.4876 5.41553 24.7291 5.41553 17.625C5.41553 10.5215 11.2182 4.76245 18.3766 4.76245C25.535 4.76245 31.3383 10.5215 31.3383 17.625Z" fill="#D9222A"/>
<path fill-rule="evenodd" clip-rule="evenodd" d="M35.7777 4.76245C32.4289 4.76245 29.3772 6.0233 27.0769 8.09207C26.6084 8.51365 26.171 8.96896 25.7681 9.45324H28.3868C28.7448 9.88526 29.0746 10.3397 29.3748 10.8156H24.7801C24.5048 11.253 24.2548 11.7074 24.0334 12.1777H30.1213C30.3292 12.6189 30.5127 13.0731 30.67 13.5394H23.4846C23.3348 13.9831 23.2087 14.4372 23.1079 14.9015H31.0464C31.2369 15.7793 31.3382 16.6905 31.3382 17.625C31.3382 19.0534 31.1033 20.4277 30.67 21.7109H23.4846C23.6416 22.1776 23.8252 22.632 24.0331 23.073H30.1213C29.8992 23.5432 29.6498 23.9976 29.3742 24.4353H24.7801C25.08 24.9103 25.4104 25.3654 25.7681 25.7965H28.3862C27.984 26.2817 27.5462 26.7376 27.0772 27.1588C29.3775 29.2273 32.4289 30.4876 35.7777 30.4876C42.9361 30.4876 48.7394 24.7291 48.7394 17.625C48.7394 10.5218 42.9361 4.76245 35.7777 4.76245Z" fill="#EE9F2D"/>
<path fill-rule="evenodd" clip-rule="evenodd" d="M47.0117 24.7948C47.0117 24.5655 47.1989 24.3792 47.4302 24.3792C47.6616 24.3792 47.8487 24.5655 47.8487 24.7948C47.8487 25.0241 47.6616 25.2104 47.4302 25.2104C47.1989 25.2104 47.0117 25.0241 47.0117 24.7948ZM47.4302 25.1107C47.6059 25.1107 47.7485 24.9691 47.7485 24.7948C47.7485 24.6201 47.6059 24.4792 47.4302 24.4792C47.2542 24.4792 47.1122 24.6201 47.1122 24.7948C47.1122 24.9691 47.2542 25.1107 47.4302 25.1107ZM47.3737 24.9775H47.2879V24.6124H47.4432C47.4756 24.6124 47.5087 24.6124 47.5373 24.6306C47.5671 24.6506 47.584 24.6858 47.584 24.7222C47.584 24.7631 47.5596 24.8014 47.5202 24.8163L47.5879 24.9775H47.4928L47.4365 24.833H47.3737V24.9775ZM47.3737 24.8018H47.4226C47.4409 24.8018 47.4601 24.8038 47.4765 24.7922C47.4911 24.7803 47.4985 24.7579 47.4985 24.7363C47.4985 24.7176 47.4895 24.696 47.4771 24.6868C47.4616 24.6744 47.4372 24.6772 47.4207 24.6772H47.3737V24.8018Z" fill="black"/>
<path fill-rule="evenodd" clip-rule="evenodd" d="M15.3501 19.0333C15.2024 19.0163 15.1374 19.0118 15.036 19.0118C14.2384 19.0118 13.8347 19.2832 13.8347 19.8192C13.8347 20.1497 14.0317 20.3599 14.3392 20.3599C14.9123 20.3599 15.3254 19.8183 15.3501 19.0333ZM16.3733 21.3977H15.2075L15.2343 20.8477C14.8787 21.2824 14.4042 21.489 13.7595 21.489C12.9968 21.489 12.4739 20.8979 12.4739 20.0395C12.4739 18.7479 13.3834 17.9943 14.9445 17.9943C15.104 17.9943 15.3086 18.0087 15.518 18.0352C15.5616 17.8603 15.573 17.7853 15.573 17.6913C15.573 17.3396 15.3278 17.2085 14.6705 17.2085C13.9821 17.2007 13.4144 17.3712 13.1812 17.4473C13.1959 17.3593 13.3762 16.2537 13.3762 16.2537C14.0775 16.0498 14.5399 15.973 15.0604 15.973C16.2686 15.973 16.9086 16.5113 16.9074 17.5289C16.9098 17.8014 16.8643 18.1379 16.7933 18.5801C16.6712 19.3489 16.4091 20.9961 16.3733 21.3977Z" fill="black"/>
<path fill-rule="evenodd" clip-rule="evenodd" d="M11.8851 21.3977H10.4779L11.2839 16.3821L9.4842 21.3977H8.52536L8.40682 16.4107L7.5596 21.3977H6.24243L7.34268 14.8731H9.36596L9.48871 18.5252L10.7228 14.8731H12.9733L11.8851 21.3977Z" fill="black"/>
<path fill-rule="evenodd" clip-rule="evenodd" d="M37.5166 19.0333C37.3695 19.0163 37.3042 19.0118 37.2031 19.0118C36.4058 19.0118 36.0021 19.2832 36.0021 19.8192C36.0021 20.1497 36.1989 20.3599 36.5063 20.3599C37.0795 20.3599 37.4929 19.8183 37.5166 19.0333ZM38.5408 21.3977H37.3749L37.4014 20.8477C37.0458 21.2824 36.571 21.489 35.9269 21.489C35.1639 21.489 34.6416 20.8979 34.6416 20.0395C34.6416 18.7479 35.5505 17.9943 37.112 17.9943C37.2714 17.9943 37.4757 18.0087 37.6848 18.0352C37.7284 17.8603 37.7399 17.7853 37.7399 17.6913C37.7399 17.3396 37.495 17.2085 36.8376 17.2085C36.1492 17.2007 35.5821 17.3712 35.348 17.4473C35.3628 17.3593 35.5436 16.2537 35.5436 16.2537C36.2449 16.0498 36.707 15.973 37.2269 15.973C38.4358 15.973 39.0757 16.5113 39.0745 17.5289C39.0769 17.8014 39.0315 18.1379 38.9605 18.5801C38.8389 19.3489 38.5763 20.9961 38.5408 21.3977Z" fill="black"/>
<path fill-rule="evenodd" clip-rule="evenodd" d="M22.6272 21.3171C22.2421 21.4374 21.9418 21.4891 21.6163 21.4891C20.8969 21.4891 20.5043 21.0788 20.5043 20.3235C20.4941 20.0891 20.6078 19.4722 20.6972 18.9091C20.7784 18.4135 21.3073 15.2884 21.3073 15.2884H22.706L22.5426 16.0916H23.3875L23.1967 17.3667H22.3489C22.1864 18.3759 21.9551 19.6329 21.9523 19.7995C21.9523 20.073 22.0995 20.1924 22.434 20.1924C22.5944 20.1924 22.7186 20.1763 22.8134 20.1422L22.6272 21.3171Z" fill="black"/>
<path fill-rule="evenodd" clip-rule="evenodd" d="M26.9155 21.2741C26.435 21.4198 25.9714 21.4902 25.4801 21.489C23.9144 21.4876 23.0981 20.676 23.0981 19.122C23.0981 17.3082 24.1364 15.973 25.5459 15.973C26.6991 15.973 27.4356 16.7206 27.4356 17.8931C27.4356 18.2821 27.3851 18.6619 27.2633 19.1981H24.4779C24.3837 19.9678 24.8801 20.2885 25.6937 20.2885C26.1943 20.2885 26.6459 20.1861 27.148 19.9544L26.9155 21.2741ZM26.1293 18.1284C26.1371 18.0179 26.2776 17.1813 25.4786 17.1813C25.033 17.1813 24.7144 17.5184 24.5847 18.1284H26.1293Z" fill="black"/>
<path fill-rule="evenodd" clip-rule="evenodd" d="M17.2173 17.7689C17.2173 18.4401 17.5453 18.9029 18.289 19.2504C18.8588 19.5161 18.947 19.5949 18.947 19.8359C18.947 20.1667 18.6958 20.316 18.1389 20.316C17.7192 20.316 17.3287 20.2509 16.8783 20.1067C16.8783 20.1067 16.6932 21.2762 16.6848 21.332C17.0046 21.4013 17.2898 21.4655 18.1491 21.489C19.6338 21.489 20.3195 20.928 20.3195 19.7156C20.3195 18.9865 20.0325 18.5586 19.3276 18.2371C18.7376 17.9683 18.6699 17.9083 18.6699 17.6605C18.6699 17.3736 18.9037 17.2273 19.3586 17.2273C19.6347 17.2273 20.012 17.2566 20.3695 17.307L20.5698 16.0763C20.2055 16.019 19.6531 15.973 19.3315 15.973C17.7574 15.973 17.2125 16.789 17.2173 17.7689Z" fill="black"/>
<path fill-rule="evenodd" clip-rule="evenodd" d="M33.759 16.1125C34.1498 16.1125 34.5141 16.2143 35.0163 16.4651L35.2464 15.049C35.0403 14.9687 34.3147 14.4972 33.7 14.4972C32.7583 14.4972 31.9622 14.9609 31.4023 15.7261C30.5858 15.4577 30.25 16.0002 29.8385 16.5406L29.4729 16.6251C29.5006 16.4472 29.5256 16.2704 29.5171 16.0916H28.2249C28.0483 17.7337 27.7354 19.397 27.4905 21.0412L27.4268 21.3977H28.8345C29.0695 19.8828 29.1982 18.9127 29.2764 18.2562L29.8066 17.9636C29.8857 17.6713 30.1336 17.5725 30.6309 17.5844C30.5659 17.9307 30.531 18.295 30.531 18.6724C30.531 20.4083 31.4748 21.4891 32.9897 21.4891C33.3799 21.4891 33.7147 21.438 34.2331 21.2986L34.4807 19.8111C34.0144 20.0389 33.6317 20.1461 33.2851 20.1461C32.4671 20.1461 31.9722 19.5469 31.9722 18.5565C31.9722 17.1198 32.7084 16.1125 33.759 16.1125Z" fill="black"/>
<path fill-rule="evenodd" clip-rule="evenodd" d="M12.2901 21.0101H10.8827L11.6893 15.9951L9.88953 21.0101H8.93039L8.81185 16.0238L7.96463 21.0101H6.64746L7.74771 14.4865H9.77099L9.82786 18.5252L11.1929 14.4865H13.3783L12.2901 21.0101Z" fill="white"/>
<path fill-rule="evenodd" clip-rule="evenodd" d="M45.6722 14.8731L45.3602 16.7583C44.9754 16.2558 44.562 15.8921 44.0163 15.8921C43.3062 15.8921 42.66 16.4263 42.237 17.2124C41.6479 17.0912 41.0387 16.8854 41.0387 16.8854L41.0384 16.8902C41.0859 16.4507 41.1048 16.1826 41.1006 16.0916H39.8081C39.6321 17.7337 39.3192 19.397 39.0746 21.0412L39.0103 21.3977H40.4177C40.6078 20.1727 40.7534 19.1555 40.8605 18.3487C41.3413 17.9176 41.582 17.5414 42.0679 17.5665C41.8528 18.0827 41.7267 18.6774 41.7267 19.2874C41.7267 20.614 42.4031 21.4891 43.426 21.4891C43.9417 21.4891 44.3373 21.3126 44.7233 20.9036L44.6574 21.3968H45.9884L47.0601 14.8731H45.6722ZM43.9125 20.1715C43.4335 20.1715 43.1916 19.8198 43.1916 19.1256C43.1916 18.0827 43.6444 17.3432 44.2828 17.3432C44.7663 17.3432 45.0281 17.7089 45.0281 18.3828C45.0281 19.4346 44.568 20.1715 43.9125 20.1715Z" fill="black"/>
<path fill-rule="evenodd" clip-rule="evenodd" d="M15.7548 18.6467C15.6074 18.6297 15.5421 18.6252 15.441 18.6252C14.6434 18.6252 14.2399 18.8966 14.2399 19.4325C14.2399 19.7624 14.437 19.9732 14.7439 19.9732C15.3176 19.9732 15.7307 19.4316 15.7548 18.6467ZM16.7786 21.0102H15.6128L15.6392 20.4611C15.2839 20.8949 14.8089 21.1024 14.1647 21.1024C13.4017 21.1024 12.8792 20.5112 12.8792 19.6529C12.8792 18.3607 13.7884 17.6077 15.3498 17.6077C15.5093 17.6077 15.7139 17.622 15.923 17.6486C15.9666 17.4736 15.978 17.3987 15.978 17.304C15.978 16.9523 15.7331 16.8219 15.0757 16.8219C14.3871 16.8141 13.8196 16.9846 13.5862 17.0598C13.6009 16.972 13.7811 15.8676 13.7811 15.8676C14.4821 15.6628 14.9452 15.5861 15.465 15.5861C16.6736 15.5861 17.3138 16.1247 17.3126 17.1413C17.3147 17.4151 17.269 17.7513 17.1983 18.1929C17.0765 18.9614 16.8141 20.6095 16.7786 21.0102Z" fill="white"/>
<path fill-rule="evenodd" clip-rule="evenodd" d="M35.6517 14.662L35.4213 16.0784C34.9194 15.8279 34.5548 15.7258 34.1643 15.7258C33.1137 15.7258 32.3772 16.7332 32.3772 18.1699C32.3772 19.1602 32.8724 19.7592 33.6901 19.7592C34.0367 19.7592 34.4191 19.6523 34.8854 19.4242L34.6384 20.911C34.1197 21.0514 33.7852 21.1024 33.3947 21.1024C31.8801 21.1024 30.936 20.0216 30.936 18.2857C30.936 15.9533 32.24 14.3232 34.105 14.3232C34.7194 14.3232 35.4453 14.5817 35.6517 14.662Z" fill="white"/>
<path fill-rule="evenodd" clip-rule="evenodd" d="M37.922 18.6467C37.7746 18.6297 37.7096 18.6252 37.6082 18.6252C36.8109 18.6252 36.4072 18.8966 36.4072 19.4325C36.4072 19.7624 36.6042 19.9732 36.9114 19.9732C37.4846 19.9732 37.8979 19.4316 37.922 18.6467ZM38.9458 21.0102H37.7797L37.8065 20.4611C37.4509 20.8949 36.9761 21.1024 36.332 21.1024C35.5693 21.1024 35.0464 20.5112 35.0464 19.6529C35.0464 18.3607 35.9559 17.6077 37.5168 17.6077C37.6765 17.6077 37.8808 17.622 38.0902 17.6486C38.1335 17.4736 38.1452 17.3987 38.1452 17.304C38.1452 16.9523 37.9003 16.8219 37.243 16.8219C36.5546 16.8141 35.9869 16.9846 35.7534 17.0598C35.7682 16.972 35.9487 15.8676 35.9487 15.8676C36.6497 15.6628 37.1124 15.5861 37.6323 15.5861C38.8411 15.5861 39.4811 16.1247 39.4796 17.1413C39.482 17.4151 39.4365 17.7513 39.3655 18.1929C39.244 18.9614 38.981 20.6095 38.9458 21.0102Z" fill="white"/>
<path fill-rule="evenodd" clip-rule="evenodd" d="M23.0322 20.9298C22.6468 21.0501 22.3465 21.1024 22.0213 21.1024C21.3019 21.1024 20.9093 20.6922 20.9093 19.9368C20.8994 19.7018 21.0131 19.0856 21.1025 18.5225C21.1834 18.0263 21.7123 14.9015 21.7123 14.9015H23.1107L22.9476 15.7049H23.6655L23.4744 16.9795H22.7542C22.5917 17.9892 22.3597 19.2453 22.3573 19.4122C22.3573 19.6866 22.5048 19.8051 22.839 19.8051C22.9994 19.8051 23.1233 19.7896 23.2184 19.7556L23.0322 20.9298Z" fill="white"/>
<path fill-rule="evenodd" clip-rule="evenodd" d="M27.3205 20.8874C26.8403 21.0331 26.3761 21.1033 25.8851 21.1024C24.3194 21.1009 23.5032 20.2894 23.5032 18.7354C23.5032 16.921 24.5414 15.5861 25.951 15.5861C27.1042 15.5861 27.8407 16.3334 27.8407 17.5065C27.8407 17.8958 27.7901 18.2756 27.6686 18.8115H24.8832C24.7891 19.5812 25.2855 19.9022 26.099 19.9022C26.5993 19.9022 27.0512 19.7995 27.5531 19.5672L27.3205 20.8874ZM26.534 17.7408C26.5425 17.6307 26.6827 16.7938 25.8833 16.7938C25.438 16.7938 25.1194 17.1318 24.9897 17.7408H26.534Z" fill="white"/>
<path fill-rule="evenodd" clip-rule="evenodd" d="M17.6223 17.3823C17.6223 18.0534 17.9502 18.5156 18.694 18.8638C19.2638 19.1295 19.352 19.2086 19.352 19.4492C19.352 19.7801 19.1004 19.9293 18.5441 19.9293C18.1241 19.9293 17.7336 19.8643 17.2829 19.72C17.2829 19.72 17.0985 20.8895 17.0901 20.9454C17.4093 21.0146 17.6948 21.0779 18.5541 21.1024C20.0391 21.1024 20.7245 20.5414 20.7245 19.3292C20.7245 18.5998 20.4378 18.172 19.7325 17.8504C19.1429 17.5811 19.0746 17.522 19.0746 17.2739C19.0746 16.9873 19.3089 16.8398 19.7635 16.8398C20.0394 16.8398 20.4167 16.8699 20.7747 16.9204L20.9748 15.6894C20.6108 15.6321 20.0584 15.5861 19.7368 15.5861C18.1624 15.5861 17.6178 16.4015 17.6223 17.3823Z" fill="white"/>
<path fill-rule="evenodd" clip-rule="evenodd" d="M46.3932 21.0101H45.0619L45.1281 20.5163C44.7421 20.9259 44.3465 21.1024 43.8308 21.1024C42.8079 21.1024 42.1318 20.2273 42.1318 18.9008C42.1318 17.1359 43.1803 15.6482 44.4214 15.6482C44.9671 15.6482 45.3802 15.8694 45.7647 16.3716L46.077 14.4865H47.4649L46.3932 21.0101ZM44.3176 19.7842C44.9729 19.7842 45.4332 19.0474 45.4332 17.9961C45.4332 17.3222 45.1711 16.9565 44.6876 16.9565C44.0495 16.9565 43.5961 17.6957 43.5961 18.7389C43.5961 19.4331 43.8386 19.7842 44.3176 19.7842Z" fill="white"/>
<path fill-rule="evenodd" clip-rule="evenodd" d="M40.2132 15.7049C40.0369 17.347 39.724 19.0104 39.4794 20.6537L39.415 21.0102H40.8225C41.3258 17.7659 41.4477 17.1324 42.2368 17.2118C42.3626 16.5478 42.5966 15.9662 42.7711 15.6727C42.1818 15.5509 41.8526 15.8814 41.4218 16.5093C41.4558 16.2379 41.5181 15.9742 41.5057 15.7049H40.2132Z" fill="white"/>
<path fill-rule="evenodd" clip-rule="evenodd" d="M28.63 15.7049C28.4534 17.347 28.1405 19.0104 27.8959 20.6537L27.8318 21.0102H29.2398C29.7426 17.7659 29.8641 17.1324 30.653 17.2118C30.7793 16.5478 31.0134 15.9662 31.1873 15.6727C30.5985 15.5509 30.2691 15.8814 29.8385 16.5093C29.8725 16.2379 29.9342 15.9742 29.9225 15.7049H28.63Z" fill="white"/>
</g>
</svg>
