<svg width="671" height="200" viewBox="0 0 671 200" fill="none" xmlns="http://www.w3.org/2000/svg">
<rect width="671" height="200" rx="12" fill="#EEF1F7"/>
<path d="M0 12C0 5.37258 5.37258 0 12 0H48V200H12C5.37258 200 0 194.627 0 188V12Z" fill="#E4E7EE"/>
<path opacity="0.4" d="M23.216 27V18.6H20.156V19.86H21.8V27H23.216Z" fill="#5C6068"/>
<path opacity="0.4" d="M23.456 43.54C22.376 43.54 21.308 43.996 20.396 44.74L20.96 45.832C21.668 45.184 22.52 44.776 23.252 44.776C24.128 44.776 24.656 45.184 24.656 45.856C24.656 46.336 24.248 47.02 23.636 47.644L20.54 50.968V52H26.516V50.728H22.412L24.596 48.412C25.484 47.452 26.132 46.504 26.132 45.652C26.132 44.368 25.04 43.54 23.456 43.54Z" fill="#5C6068"/>
<path opacity="0.4" d="M23.144 72.092L25.544 69.5V68.612H20.432V69.872H23.792L21.608 72.224V73.052H22.772C23.888 73.052 24.548 73.52 24.548 74.432C24.548 75.296 23.9 75.872 22.784 75.872C22.016 75.872 21.236 75.56 20.636 74.996L20.048 76.148C20.768 76.7 21.848 77.06 22.88 77.06C24.752 77.06 25.94 75.968 25.94 74.396C25.94 73.076 24.98 72.26 23.576 72.14L23.144 72.092Z" fill="#5C6068"/>
<path opacity="0.4" d="M21.872 98.676L24.596 93.6H23.228L20.36 98.88V99.936H24.368V102H25.688V99.936H26.912V98.676H25.688V96.684H24.368V98.676H21.872Z" fill="#5C6068"/>
<path opacity="0.4" d="M26.072 119.872L26.06 118.6H20.948V123.04C21.512 122.98 22.652 122.932 23.156 122.932C24.236 122.932 24.896 123.46 24.896 124.312C24.896 125.26 24.236 125.824 23.144 125.824C22.388 125.824 21.548 125.5 20.876 124.936L20.312 126.088C21.14 126.664 22.304 127.048 23.3 127.048C25.184 127.048 26.408 125.932 26.408 124.228C26.408 122.752 25.232 121.672 23.408 121.672L22.256 121.684V119.872H26.072Z" fill="#5C6068"/>
<path opacity="0.4" d="M24.2 143.54C21.98 143.54 20.576 145.292 20.576 147.968C20.576 150.548 21.872 152.06 23.996 152.06C25.784 152.06 26.948 150.98 26.948 149.24C26.948 147.608 25.928 146.564 24.248 146.564C23.192 146.564 22.4 146.972 21.956 147.752C21.908 145.94 22.664 144.716 24.296 144.716C24.932 144.716 25.64 144.908 26.156 145.244L26.708 144.176C26.024 143.792 25.028 143.54 24.2 143.54ZM23.984 147.68C25.004 147.68 25.628 148.268 25.628 149.228C25.628 150.248 24.944 150.836 23.924 150.836C22.712 150.836 22.172 150.008 22.184 149.276C22.172 148.412 22.844 147.68 23.984 147.68Z" fill="#5C6068"/>
<path opacity="0.4" d="M26.552 169.68V168.6H20.444V171.048H21.692L21.704 169.872H24.968L21.704 177H23.204L26.552 169.68Z" fill="#5C6068"/>
<rect x="76.5" y="86.5" width="424" height="20" rx="3.5" fill="white"/>
<path d="M85.676 95.468V94.1L80.396 96.332V97.88L85.676 100.112V98.744L81.608 97.1L85.676 95.468ZM89.1423 94.46C87.7383 94.46 86.5983 95.144 86.5983 96.476C86.5983 98.744 89.9463 98.192 89.9463 99.224C89.9463 99.572 89.5983 99.728 89.1303 99.728C88.4223 99.728 87.5583 99.44 86.8863 98.924L86.2863 100.172C87.0183 100.76 88.0383 101.072 89.0823 101.072C90.5463 101.072 91.7103 100.376 91.7103 99.056C91.7223 96.776 88.3143 97.268 88.3143 96.296C88.3143 95.96 88.6263 95.816 89.0583 95.816C89.5983 95.816 90.3183 96.044 91.0263 96.44L91.6623 95.18C90.9423 94.724 90.0303 94.46 89.1423 94.46ZM95.7066 94.484C93.7266 94.484 92.3946 95.816 92.3946 97.796C92.3946 99.752 93.7266 101.072 95.6826 101.072C97.0026 101.072 98.0106 100.544 98.5506 99.644L97.2786 98.78C96.9546 99.284 96.4386 99.536 95.7786 99.536C94.8786 99.536 94.2426 98.828 94.2426 97.784C94.2426 96.752 94.8786 96.056 95.7786 96.056C96.4146 96.044 96.9066 96.308 97.2546 96.74L98.5026 95.84C97.9266 94.976 96.9426 94.484 95.7066 94.484ZM101.556 94.544H99.7083V101H101.556V97.892C101.556 96.8 102.372 96.092 103.692 96.212V94.472C102.732 94.484 102 94.916 101.556 95.708V94.544ZM105.625 91.676C105.037 91.676 104.629 92.108 104.629 92.708C104.629 93.308 105.037 93.74 105.625 93.74C106.213 93.74 106.621 93.308 106.621 92.708C106.621 92.108 106.213 91.676 105.625 91.676ZM106.549 101V94.544H104.701V101H106.549ZM112.27 94.484C111.394 94.484 110.686 94.844 110.23 95.492V94.544H108.382V103.328H110.23V100.064C110.698 100.712 111.406 101.072 112.306 101.072C114.118 101.072 115.306 99.764 115.306 97.808C115.306 95.816 114.082 94.484 112.27 94.484ZM111.838 99.536C110.89 99.536 110.23 98.816 110.23 97.748C110.23 96.704 110.89 95.972 111.838 95.972C112.786 95.972 113.434 96.716 113.434 97.748C113.434 98.804 112.786 99.536 111.838 99.536ZM120.137 99.284C119.801 99.44 119.513 99.524 119.273 99.524C118.877 99.536 118.649 99.32 118.649 98.78V96.116H120.401V94.832H118.649V93.056H116.813V94.832H115.913V96.104H116.813V99.092C116.813 100.424 117.689 101.084 118.841 101.084C119.441 101.084 120.041 100.916 120.521 100.64L120.137 99.284ZM126.713 94.46C125.309 94.46 124.169 95.144 124.169 96.476C124.169 98.744 127.517 98.192 127.517 99.224C127.517 99.572 127.169 99.728 126.701 99.728C125.993 99.728 125.129 99.44 124.457 98.924L123.857 100.172C124.589 100.76 125.609 101.072 126.653 101.072C128.117 101.072 129.281 100.376 129.281 99.056C129.293 96.776 125.885 97.268 125.885 96.296C125.885 95.96 126.197 95.816 126.629 95.816C127.169 95.816 127.889 96.044 128.597 96.44L129.233 95.18C128.513 94.724 127.601 94.46 126.713 94.46ZM132.365 94.544H130.517V101H132.365V97.892C132.365 96.8 133.181 96.092 134.501 96.212V94.472C133.541 94.484 132.809 94.916 132.365 95.708V94.544ZM138.269 94.484C136.289 94.484 134.957 95.816 134.957 97.796C134.957 99.752 136.289 101.072 138.245 101.072C139.565 101.072 140.573 100.544 141.113 99.644L139.841 98.78C139.517 99.284 139.001 99.536 138.341 99.536C137.441 99.536 136.805 98.828 136.805 97.784C136.805 96.752 137.441 96.056 138.341 96.056C138.977 96.044 139.469 96.308 139.817 96.74L141.065 95.84C140.489 94.976 139.505 94.484 138.269 94.484ZM147.059 96.416V95.192H141.779V96.416H147.059ZM147.059 98.984V97.76H141.779V98.984H147.059ZM149.565 95.792V92.6H148.173V95.792H149.565ZM151.701 95.792V92.6H150.309V95.792H151.701ZM157.45 94.472C156.442 94.484 155.674 94.88 155.218 95.684V92.096H153.37V101H155.218V97.82C155.218 96.872 155.782 96.176 156.706 96.164C157.498 96.164 157.978 96.668 157.978 97.484V101H159.826V96.944C159.826 95.432 158.902 94.472 157.45 94.472ZM165.02 99.284C164.684 99.44 164.396 99.524 164.156 99.524C163.76 99.536 163.532 99.32 163.532 98.78V96.116H165.284V94.832H163.532V93.056H161.696V94.832H160.796V96.104H161.696V99.092C161.696 100.424 162.572 101.084 163.724 101.084C164.324 101.084 164.924 100.916 165.404 100.64L165.02 99.284ZM170.129 99.284C169.793 99.44 169.505 99.524 169.265 99.524C168.869 99.536 168.641 99.32 168.641 98.78V96.116H170.393V94.832H168.641V93.056H166.805V94.832H165.905V96.104H166.805V99.092C166.805 100.424 167.681 101.084 168.833 101.084C169.433 101.084 170.033 100.916 170.513 100.64L170.129 99.284ZM175.574 94.484C174.698 94.484 173.99 94.844 173.534 95.492V94.544H171.686V103.328H173.534V100.064C174.002 100.712 174.71 101.072 175.61 101.072C177.422 101.072 178.61 99.764 178.61 97.808C178.61 95.816 177.386 94.484 175.574 94.484ZM175.142 99.536C174.194 99.536 173.534 98.816 173.534 97.748C173.534 96.704 174.194 95.972 175.142 95.972C176.09 95.972 176.738 96.716 176.738 97.748C176.738 98.804 176.09 99.536 175.142 99.536ZM182.013 94.46C180.609 94.46 179.469 95.144 179.469 96.476C179.469 98.744 182.817 98.192 182.817 99.224C182.817 99.572 182.469 99.728 182.001 99.728C181.293 99.728 180.429 99.44 179.757 98.924L179.157 100.172C179.889 100.76 180.909 101.072 181.953 101.072C183.417 101.072 184.581 100.376 184.581 99.056C184.593 96.776 181.185 97.268 181.185 96.296C181.185 95.96 181.497 95.816 181.929 95.816C182.469 95.816 183.189 96.044 183.897 96.44L184.533 95.18C183.813 94.724 182.901 94.46 182.013 94.46ZM186.334 95.636C185.806 95.636 185.41 96.02 185.41 96.584C185.41 97.136 185.806 97.544 186.334 97.544C186.874 97.544 187.258 97.136 187.258 96.584C187.258 96.02 186.874 95.636 186.334 95.636ZM186.334 99.2C185.806 99.2 185.41 99.584 185.41 100.148C185.41 100.7 185.806 101.108 186.334 101.108C186.874 101.108 187.258 100.7 187.258 100.148C187.258 99.584 186.874 99.2 186.334 99.2ZM188.883 102.344L192.747 91.256H191.187L187.335 102.344H188.883ZM193.031 102.344L196.895 91.256H195.335L191.483 102.344H193.031ZM200.312 101L202.748 94.544H200.912L199.4 99.248L197.876 94.544L195.968 94.556L198.416 101H200.312ZM204.484 91.676C203.896 91.676 203.488 92.108 203.488 92.708C203.488 93.308 203.896 93.74 204.484 93.74C205.072 93.74 205.48 93.308 205.48 92.708C205.48 92.108 205.072 91.676 204.484 91.676ZM205.408 101V94.544H203.56V101H205.408ZM209.953 94.484C207.985 94.484 206.629 95.804 206.629 97.796C206.629 99.752 207.937 101.072 210.001 101.072C211.165 101.072 212.113 100.652 212.761 99.932L211.789 98.948C211.345 99.392 210.769 99.632 210.157 99.632C209.329 99.632 208.705 99.152 208.489 98.336H213.121C213.277 95.984 212.221 94.484 209.953 94.484ZM208.453 97.244C208.597 96.392 209.149 95.84 209.965 95.84C210.817 95.84 211.369 96.392 211.393 97.244H208.453ZM222.038 101L224.39 94.544H222.566L221.15 99.164L219.734 94.544H217.922L216.53 99.164L215.09 94.544L213.206 94.556L215.57 101H217.418L218.798 96.74L220.19 101H222.038ZM227.765 94.484C225.797 94.484 224.441 95.804 224.441 97.796C224.441 99.752 225.749 101.072 227.813 101.072C228.977 101.072 229.925 100.652 230.573 99.932L229.601 98.948C229.157 99.392 228.581 99.632 227.969 99.632C227.141 99.632 226.517 99.152 226.301 98.336H230.933C231.089 95.984 230.033 94.484 227.765 94.484ZM226.265 97.244C226.409 96.392 226.961 95.84 227.777 95.84C228.629 95.84 229.181 96.392 229.205 97.244H226.265ZM234.002 94.544H232.154V101H234.002V97.892C234.002 96.8 234.818 96.092 236.138 96.212V94.472C235.178 94.484 234.446 94.916 234.002 95.708V94.544ZM237.662 99.2C237.134 99.2 236.738 99.584 236.738 100.148C236.738 100.7 237.134 101.108 237.662 101.108C238.202 101.108 238.586 100.7 238.586 100.148C238.586 99.584 238.202 99.2 237.662 99.2ZM247.878 101L250.23 94.544H248.406L246.99 99.164L245.574 94.544H243.762L242.37 99.164L240.93 94.544L239.046 94.556L241.41 101H243.258L244.638 96.74L246.03 101H247.878ZM253.749 94.484C251.673 94.484 250.281 95.792 250.281 97.772C250.281 99.74 251.673 101.072 253.749 101.072C255.813 101.072 257.205 99.74 257.205 97.772C257.205 95.792 255.813 94.484 253.749 94.484ZM253.749 96.02C254.697 96.02 255.357 96.74 255.357 97.796C255.357 98.852 254.697 99.572 253.749 99.572C252.789 99.572 252.141 98.852 252.141 97.796C252.141 96.74 252.789 96.02 253.749 96.02ZM266.971 94.472C265.879 94.484 265.063 94.964 264.643 95.96C264.331 95.024 263.551 94.472 262.459 94.472C261.487 94.484 260.731 94.868 260.275 95.66V94.544H258.427V101H260.275V97.808C260.275 96.872 260.815 96.176 261.715 96.164C262.471 96.164 262.951 96.656 262.951 97.484V101H264.787V97.808C264.787 96.872 265.327 96.176 266.215 96.164C266.983 96.164 267.463 96.656 267.463 97.484V101H269.299V96.944C269.299 95.432 268.399 94.472 266.971 94.472ZM274.844 94.484C273.968 94.484 273.26 94.844 272.804 95.492V94.544H270.956V103.328H272.804V100.064C273.272 100.712 273.98 101.072 274.88 101.072C276.692 101.072 277.88 99.764 277.88 97.808C277.88 95.816 276.656 94.484 274.844 94.484ZM274.412 99.536C273.464 99.536 272.804 98.816 272.804 97.748C272.804 96.704 273.464 95.972 274.412 95.972C275.36 95.972 276.008 96.716 276.008 97.748C276.008 98.804 275.36 99.536 274.412 99.536ZM280.947 94.544H279.099V101H280.947V97.892C280.947 96.8 281.763 96.092 283.083 96.212V94.472C282.123 94.484 281.391 94.916 280.947 95.708V94.544ZM287.007 94.484C284.931 94.484 283.539 95.792 283.539 97.772C283.539 99.74 284.931 101.072 287.007 101.072C289.071 101.072 290.463 99.74 290.463 97.772C290.463 95.792 289.071 94.484 287.007 94.484ZM287.007 96.02C287.955 96.02 288.615 96.74 288.615 97.796C288.615 98.852 287.955 99.572 287.007 99.572C286.047 99.572 285.399 98.852 285.399 97.796C285.399 96.74 286.047 96.02 287.007 96.02ZM295.297 99.284C294.961 99.44 294.673 99.524 294.433 99.524C294.037 99.536 293.809 99.32 293.809 98.78V96.116H295.561V94.832H293.809V93.056H291.973V94.832H291.073V96.104H291.973V99.092C291.973 100.424 292.849 101.084 294.001 101.084C294.601 101.084 295.201 100.916 295.681 100.64L295.297 99.284ZM299.663 94.484C297.587 94.484 296.195 95.792 296.195 97.772C296.195 99.74 297.587 101.072 299.663 101.072C301.727 101.072 303.119 99.74 303.119 97.772C303.119 95.792 301.727 94.484 299.663 94.484ZM299.663 96.02C300.611 96.02 301.271 96.74 301.271 97.796C301.271 98.852 300.611 99.572 299.663 99.572C298.703 99.572 298.055 98.852 298.055 97.796C298.055 96.74 298.703 96.02 299.663 96.02ZM307.101 94.484C305.121 94.484 303.789 95.816 303.789 97.796C303.789 99.752 305.121 101.072 307.077 101.072C308.397 101.072 309.405 100.544 309.945 99.644L308.673 98.78C308.349 99.284 307.833 99.536 307.173 99.536C306.273 99.536 305.637 98.828 305.637 97.784C305.637 96.752 306.273 96.056 307.173 96.056C307.809 96.044 308.301 96.308 308.649 96.74L309.897 95.84C309.321 94.976 308.337 94.484 307.101 94.484ZM313.808 94.484C311.732 94.484 310.34 95.792 310.34 97.772C310.34 99.74 311.732 101.072 313.808 101.072C315.872 101.072 317.264 99.74 317.264 97.772C317.264 95.792 315.872 94.484 313.808 94.484ZM313.808 96.02C314.756 96.02 315.416 96.74 315.416 97.796C315.416 98.852 314.756 99.572 313.808 99.572C312.848 99.572 312.2 98.852 312.2 97.796C312.2 96.74 312.848 96.02 313.808 96.02ZM320.394 101V92.096H318.546V101H320.394ZM322.763 99.2C322.235 99.2 321.839 99.584 321.839 100.148C321.839 100.7 322.235 101.108 322.763 101.108C323.303 101.108 323.687 100.7 323.687 100.148C323.687 99.584 323.303 99.2 322.763 99.2ZM325.996 91.676C325.408 91.676 325 92.108 325 92.708C325 93.308 325.408 93.74 325.996 93.74C326.584 93.74 326.992 93.308 326.992 92.708C326.992 92.108 326.584 91.676 325.996 91.676ZM326.92 101V94.544H325.072V101H326.92ZM331.609 94.484C329.533 94.484 328.141 95.792 328.141 97.772C328.141 99.74 329.533 101.072 331.609 101.072C333.673 101.072 335.065 99.74 335.065 97.772C335.065 95.792 333.673 94.484 331.609 94.484ZM331.609 96.02C332.557 96.02 333.217 96.74 333.217 97.796C333.217 98.852 332.557 99.572 331.609 99.572C330.649 99.572 330.001 98.852 330.001 97.796C330.001 96.74 330.649 96.02 331.609 96.02ZM336.574 102.344L340.438 91.256H338.878L335.026 102.344H336.574ZM342.619 94.46C341.215 94.46 340.075 95.144 340.075 96.476C340.075 98.744 343.423 98.192 343.423 99.224C343.423 99.572 343.075 99.728 342.607 99.728C341.899 99.728 341.035 99.44 340.363 98.924L339.763 100.172C340.495 100.76 341.515 101.072 342.559 101.072C344.023 101.072 345.187 100.376 345.187 99.056C345.199 96.776 341.791 97.268 341.791 96.296C341.791 95.96 342.103 95.816 342.535 95.816C343.075 95.816 343.795 96.044 344.503 96.44L345.139 95.18C344.419 94.724 343.507 94.46 342.619 94.46ZM350.035 99.284C349.699 99.44 349.411 99.524 349.171 99.524C348.775 99.536 348.547 99.32 348.547 98.78V96.116H350.299V94.832H348.547V93.056H346.711V94.832H345.811V96.104H346.711V99.092C346.711 100.424 347.587 101.084 348.739 101.084C349.339 101.084 349.939 100.916 350.419 100.64L350.035 99.284ZM355.277 101H357.089L357.077 96.788C357.065 95.336 356.069 94.472 354.341 94.472C353.213 94.472 352.385 94.736 351.425 95.216L352.001 96.488C352.673 96.116 353.345 95.924 353.921 95.924C354.809 95.924 355.265 96.32 355.265 97.004V97.124H353.489C351.905 97.136 351.029 97.856 351.029 99.068C351.029 100.244 351.869 101.084 353.249 101.084C354.149 101.084 354.845 100.784 355.277 100.244V101ZM353.765 99.764C353.141 99.764 352.757 99.44 352.757 98.948C352.757 98.432 353.105 98.216 353.813 98.216H355.265V98.792C355.157 99.344 354.545 99.764 353.765 99.764ZM362.293 99.284C361.957 99.44 361.669 99.524 361.429 99.524C361.033 99.536 360.805 99.32 360.805 98.78V96.116H362.557V94.832H360.805V93.056H358.969V94.832H358.069V96.104H358.969V99.092C358.969 100.424 359.845 101.084 360.997 101.084C361.597 101.084 362.197 100.916 362.677 100.64L362.293 99.284ZM364.714 91.676C364.126 91.676 363.718 92.108 363.718 92.708C363.718 93.308 364.126 93.74 364.714 93.74C365.302 93.74 365.71 93.308 365.71 92.708C365.71 92.108 365.302 91.676 364.714 91.676ZM365.638 101V94.544H363.79V101H365.638ZM370.171 94.484C368.191 94.484 366.859 95.816 366.859 97.796C366.859 99.752 368.191 101.072 370.147 101.072C371.467 101.072 372.475 100.544 373.015 99.644L371.743 98.78C371.419 99.284 370.903 99.536 370.243 99.536C369.343 99.536 368.707 98.828 368.707 97.784C368.707 96.752 369.343 96.056 370.243 96.056C370.879 96.044 371.371 96.308 371.719 96.74L372.967 95.84C372.391 94.976 371.407 94.484 370.171 94.484ZM374.461 102.344L378.325 91.256H376.765L372.913 102.344H374.461ZM379.258 91.676C378.646 91.676 378.19 92.096 378.19 92.708C378.19 93.308 378.646 93.74 379.258 93.74C379.894 93.74 380.326 93.308 380.326 92.708C380.326 92.096 379.894 91.676 379.258 91.676ZM380.182 94.544H378.346V101.12C378.346 101.648 378.058 101.876 377.662 101.876C377.422 101.876 377.146 101.78 376.906 101.624L376.402 102.98C376.822 103.256 377.362 103.412 377.926 103.412C379.138 103.412 380.182 102.656 380.182 101.192V94.544ZM384.197 94.46C382.793 94.46 381.653 95.144 381.653 96.476C381.653 98.744 385.001 98.192 385.001 99.224C385.001 99.572 384.653 99.728 384.185 99.728C383.477 99.728 382.613 99.44 381.941 98.924L381.341 100.172C382.073 100.76 383.093 101.072 384.137 101.072C385.601 101.072 386.765 100.376 386.765 99.056C386.777 96.776 383.369 97.268 383.369 96.296C383.369 95.96 383.681 95.816 384.113 95.816C384.653 95.816 385.373 96.044 386.081 96.44L386.717 95.18C385.997 94.724 385.085 94.46 384.197 94.46ZM388.289 102.344L392.153 91.256H390.593L386.741 102.344H388.289ZM400.058 101L402.41 94.544H400.586L399.17 99.164L397.754 94.544H395.942L394.55 99.164L393.11 94.544L391.226 94.556L393.59 101H395.438L396.818 96.74L398.21 101H400.058ZM405.929 94.484C403.853 94.484 402.461 95.792 402.461 97.772C402.461 99.74 403.853 101.072 405.929 101.072C407.993 101.072 409.385 99.74 409.385 97.772C409.385 95.792 407.993 94.484 405.929 94.484ZM405.929 96.02C406.877 96.02 407.537 96.74 407.537 97.796C407.537 98.852 406.877 99.572 405.929 99.572C404.969 99.572 404.321 98.852 404.321 97.796C404.321 96.74 404.969 96.02 405.929 96.02ZM419.151 94.472C418.059 94.484 417.243 94.964 416.823 95.96C416.511 95.024 415.731 94.472 414.639 94.472C413.667 94.484 412.911 94.868 412.455 95.66V94.544H410.607V101H412.455V97.808C412.455 96.872 412.995 96.176 413.895 96.164C414.651 96.164 415.131 96.656 415.131 97.484V101H416.967V97.808C416.967 96.872 417.507 96.176 418.395 96.164C419.163 96.164 419.643 96.656 419.643 97.484V101H421.479V96.944C421.479 95.432 420.579 94.472 419.151 94.472ZM423.592 99.2C423.064 99.2 422.668 99.584 422.668 100.148C422.668 100.7 423.064 101.108 423.592 101.108C424.132 101.108 424.516 100.7 424.516 100.148C424.516 99.584 424.132 99.2 423.592 99.2ZM426.836 91.676C426.224 91.676 425.768 92.096 425.768 92.708C425.768 93.308 426.224 93.74 426.836 93.74C427.472 93.74 427.904 93.308 427.904 92.708C427.904 92.096 427.472 91.676 426.836 91.676ZM427.76 94.544H425.924V101.12C425.924 101.648 425.636 101.876 425.24 101.876C425 101.876 424.724 101.78 424.484 101.624L423.98 102.98C424.4 103.256 424.94 103.412 425.504 103.412C426.716 103.412 427.76 102.656 427.76 101.192V94.544ZM431.775 94.46C430.371 94.46 429.231 95.144 429.231 96.476C429.231 98.744 432.579 98.192 432.579 99.224C432.579 99.572 432.231 99.728 431.763 99.728C431.055 99.728 430.191 99.44 429.519 98.924L428.919 100.172C429.651 100.76 430.671 101.072 431.715 101.072C433.179 101.072 434.343 100.376 434.343 99.056C434.355 96.776 430.947 97.268 430.947 96.296C430.947 95.96 431.259 95.816 431.691 95.816C432.231 95.816 432.951 96.044 433.659 96.44L434.295 95.18C433.575 94.724 432.663 94.46 431.775 94.46ZM436.803 95.792V92.6H435.411V95.792H436.803ZM438.939 95.792V92.6H437.547V95.792H438.939ZM440.056 98.66V100.028L445.324 97.796V96.248L440.056 94.016V95.384L444.124 97.028L440.056 98.66ZM451.406 95.468V94.1L446.126 96.332V97.88L451.406 100.112V98.744L447.338 97.1L451.406 95.468ZM452.977 102.344L456.841 91.256H455.281L451.429 102.344H452.977ZM459.021 94.46C457.617 94.46 456.477 95.144 456.477 96.476C456.477 98.744 459.825 98.192 459.825 99.224C459.825 99.572 459.477 99.728 459.009 99.728C458.301 99.728 457.437 99.44 456.765 98.924L456.165 100.172C456.897 100.76 457.917 101.072 458.961 101.072C460.425 101.072 461.589 100.376 461.589 99.056C461.601 96.776 458.193 97.268 458.193 96.296C458.193 95.96 458.505 95.816 458.937 95.816C459.477 95.816 460.197 96.044 460.905 96.44L461.541 95.18C460.821 94.724 459.909 94.46 459.021 94.46ZM465.586 94.484C463.606 94.484 462.274 95.816 462.274 97.796C462.274 99.752 463.606 101.072 465.562 101.072C466.882 101.072 467.89 100.544 468.43 99.644L467.158 98.78C466.834 99.284 466.318 99.536 465.658 99.536C464.758 99.536 464.122 98.828 464.122 97.784C464.122 96.752 464.758 96.056 465.658 96.056C466.294 96.044 466.786 96.308 467.134 96.74L468.382 95.84C467.806 94.976 466.822 94.484 465.586 94.484ZM471.435 94.544H469.587V101H471.435V97.892C471.435 96.8 472.251 96.092 473.571 96.212V94.472C472.611 94.484 471.879 94.916 471.435 95.708V94.544ZM475.503 91.676C474.915 91.676 474.507 92.108 474.507 92.708C474.507 93.308 474.915 93.74 475.503 93.74C476.091 93.74 476.499 93.308 476.499 92.708C476.499 92.108 476.091 91.676 475.503 91.676ZM476.427 101V94.544H474.579V101H476.427ZM482.149 94.484C481.273 94.484 480.565 94.844 480.109 95.492V94.544H478.261V103.328H480.109V100.064C480.577 100.712 481.285 101.072 482.185 101.072C483.997 101.072 485.185 99.764 485.185 97.808C485.185 95.816 483.961 94.484 482.149 94.484ZM481.717 99.536C480.769 99.536 480.109 98.816 480.109 97.748C480.109 96.704 480.769 95.972 481.717 95.972C482.665 95.972 483.312 96.716 483.312 97.748C483.312 98.804 482.665 99.536 481.717 99.536ZM490.016 99.284C489.68 99.44 489.392 99.524 489.152 99.524C488.756 99.536 488.528 99.32 488.528 98.78V96.116H490.28V94.832H488.528V93.056H486.692V94.832H485.792V96.104H486.692V99.092C486.692 100.424 487.568 101.084 488.72 101.084C489.32 101.084 489.92 100.916 490.4 100.64L490.016 99.284ZM491.021 98.66V100.028L496.289 97.796V96.248L491.021 94.016V95.384L495.089 97.028L491.021 98.66Z" fill="#3333FF"/>
<rect x="76.5" y="86.5" width="424" height="20" rx="3.5" stroke="#CCCCFD"/>
<path d="M66.482 70.378V69.132L60.49 71.736V73.15L66.482 75.754V74.508L61.568 72.436L66.482 70.378ZM72.6007 69.496C71.3267 69.496 70.3747 69.958 69.8427 71.008V66.612H68.2327V77H69.8427V73.332C69.8427 72.016 70.6407 71.022 71.9707 71.008C73.0907 71.008 73.7627 71.694 73.7627 72.814V77H75.3727V72.366C75.3727 70.588 74.3367 69.496 72.6007 69.496ZM80.5939 69.496C78.3819 69.51 76.8279 71.036 76.8279 73.29C76.8279 75.53 78.3399 77.056 80.6359 77.056C81.9239 77.056 82.9879 76.594 83.7159 75.796L82.8619 74.886C82.3159 75.446 81.5739 75.754 80.7619 75.754C79.5859 75.754 78.7039 75.04 78.4519 73.892H84.0799C84.2759 71.204 83.2119 69.496 80.5939 69.496ZM78.4239 72.716C78.6059 71.526 79.4319 70.784 80.6079 70.784C81.8259 70.784 82.6239 71.512 82.6799 72.716H78.4239ZM90.2244 77H91.8064L91.7924 72.114C91.7784 70.476 90.7004 69.496 88.7824 69.496C87.3684 69.496 86.6124 69.818 85.5764 70.434L86.2344 71.554C86.9764 71.05 87.7184 70.798 88.4324 70.798C89.6084 70.798 90.2104 71.358 90.2104 72.296V72.52H87.9564C86.1644 72.534 85.1424 73.402 85.1424 74.76C85.1424 76.076 86.1504 77.07 87.7604 77.07C88.8384 77.07 89.6924 76.748 90.2244 76.09V77ZM88.0964 75.796C87.2004 75.796 86.6544 75.362 86.6544 74.69C86.6544 73.976 87.1444 73.696 88.1944 73.696H90.2104V74.382C90.1264 75.194 89.2444 75.796 88.0964 75.796ZM101.059 66.612H99.4495V70.84C98.9035 69.972 98.0075 69.482 96.8035 69.482C94.7035 69.482 93.2615 71.008 93.2615 73.248C93.2615 75.516 94.6895 77.07 96.8315 77.07C98.0215 77.07 98.9175 76.594 99.4495 75.726V77H101.059V66.612ZM97.1675 75.726C95.8095 75.726 94.8855 74.718 94.8715 73.304C94.8855 71.876 95.8235 70.854 97.1675 70.854C98.5115 70.854 99.4495 71.862 99.4495 73.304C99.4495 74.718 98.5115 75.726 97.1675 75.726ZM102.804 74.438V75.684L108.796 73.08V71.666L102.804 69.062V70.308L107.718 72.38L102.804 74.438Z" fill="#A58EFF"/>
<path d="M66.482 120.378V119.132L60.49 121.736V123.15L66.482 125.754V124.508L61.568 122.436L66.482 120.378ZM68.0507 128.638L72.4887 115.576H71.1167L66.6787 128.638H68.0507ZM77.2354 119.496C75.9614 119.496 75.0094 119.958 74.4774 121.008V116.612H72.8674V127H74.4774V123.332C74.4774 122.016 75.2754 121.022 76.6054 121.008C77.7254 121.008 78.3974 121.694 78.3974 122.814V127H80.0074V122.366C80.0074 120.588 78.9714 119.496 77.2354 119.496ZM85.2287 119.496C83.0167 119.51 81.4627 121.036 81.4627 123.29C81.4627 125.53 82.9747 127.056 85.2707 127.056C86.5587 127.056 87.6227 126.594 88.3507 125.796L87.4967 124.886C86.9507 125.446 86.2087 125.754 85.3967 125.754C84.2207 125.754 83.3387 125.04 83.0867 123.892H88.7147C88.9107 121.204 87.8467 119.496 85.2287 119.496ZM83.0587 122.716C83.2407 121.526 84.0667 120.784 85.2427 120.784C86.4607 120.784 87.2587 121.512 87.3147 122.716H83.0587ZM94.8591 127H96.4411L96.4271 122.114C96.4131 120.476 95.3351 119.496 93.4171 119.496C92.0031 119.496 91.2471 119.818 90.2111 120.434L90.8691 121.554C91.6111 121.05 92.3531 120.798 93.0671 120.798C94.2431 120.798 94.8451 121.358 94.8451 122.296V122.52H92.5911C90.7991 122.534 89.7771 123.402 89.7771 124.76C89.7771 126.076 90.7851 127.07 92.3951 127.07C93.4731 127.07 94.3271 126.748 94.8591 126.09V127ZM92.7311 125.796C91.8351 125.796 91.2891 125.362 91.2891 124.69C91.2891 123.976 91.7791 123.696 92.8291 123.696H94.8451V124.382C94.7611 125.194 93.8791 125.796 92.7311 125.796ZM105.694 116.612H104.084V120.84C103.538 119.972 102.642 119.482 101.438 119.482C99.3383 119.482 97.8963 121.008 97.8963 123.248C97.8963 125.516 99.3243 127.07 101.466 127.07C102.656 127.07 103.552 126.594 104.084 125.726V127H105.694V116.612ZM101.802 125.726C100.444 125.726 99.5203 124.718 99.5063 123.304C99.5203 121.876 100.458 120.854 101.802 120.854C103.146 120.854 104.084 121.862 104.084 123.304C104.084 124.718 103.146 125.726 101.802 125.726ZM107.439 124.438V125.684L113.431 123.08V121.666L107.439 119.062V120.308L112.353 122.38L107.439 124.438Z" fill="#A58EFF"/>
<rect x="57" y="15" width="86" height="17" fill="#E4E7EE"/>
<rect x="57" y="140" width="86" height="17" fill="#E4E7EE"/>
<rect x="57" y="38" width="132" height="17" fill="#E4E7EE"/>
<rect x="57" y="165" width="132" height="17" fill="#E4E7EE"/>
<rect x="151" y="15" width="86" height="17" fill="#E4E7EE"/>
<rect x="151" y="140" width="86" height="17" fill="#E4E7EE"/>
<rect x="245" y="140" width="86" height="17" fill="#E4E7EE"/>
<rect x="339" y="140" width="86" height="17" fill="#E4E7EE"/>
<rect x="433" y="140" width="86" height="17" fill="#E4E7EE"/>
<rect x="527" y="140" width="86" height="17" fill="#E4E7EE"/>
<rect x="201" y="38" width="132" height="17" fill="#E4E7EE"/>
<rect x="341" y="38" width="132" height="17" fill="#E4E7EE"/>
<rect x="481" y="38" width="132" height="17" fill="#E4E7EE"/>
<rect x="201" y="165" width="132" height="17" fill="#E4E7EE"/>
<rect x="341" y="165" width="132" height="17" fill="#E4E7EE"/>
<rect x="481" y="165" width="132" height="17" fill="#E4E7EE"/>
<rect x="245" y="15" width="86" height="17" fill="#E4E7EE"/>
<rect x="339" y="15" width="86" height="17" fill="#E4E7EE"/>
<rect x="433" y="15" width="86" height="17" fill="#E4E7EE"/>
<rect x="527" y="15" width="86" height="17" fill="#E4E7EE"/>
</svg>
