<svg width="671" height="239" viewBox="0 0 671 239" fill="none" xmlns="http://www.w3.org/2000/svg">
<rect width="671" height="227" rx="12" fill="#EEF1F7"/>
<rect x="23" y="88" width="625" height="120" rx="12" fill="#E4E7EE"/>
<path d="M326.078 21.2V31H328.29V28.2H330.236C332.728 28.2 334.156 26.884 334.156 24.602C334.156 22.432 332.728 21.2 330.236 21.2H326.078ZM328.29 23.034H330.124C331.356 23.034 332.056 23.58 332.056 24.672C332.056 25.792 331.356 26.352 330.124 26.352H328.29V23.034ZM337.68 23.468H335.524V31H337.68V27.374C337.68 26.1 338.632 25.274 340.172 25.414V23.384C339.052 23.398 338.198 23.902 337.68 24.826V23.468ZM344.751 23.398C342.329 23.398 340.705 24.924 340.705 27.234C340.705 29.53 342.329 31.084 344.751 31.084C347.159 31.084 348.783 29.53 348.783 27.234C348.783 24.924 347.159 23.398 344.751 23.398ZM344.751 25.19C345.857 25.19 346.627 26.03 346.627 27.262C346.627 28.494 345.857 29.334 344.751 29.334C343.631 29.334 342.875 28.494 342.875 27.262C342.875 26.03 343.631 25.19 344.751 25.19ZM357.642 20.612H355.5V24.574C354.954 23.804 354.128 23.384 353.064 23.384C350.964 23.384 349.564 24.91 349.564 27.206C349.564 29.53 350.978 31.084 353.12 31.084C354.156 31.084 354.968 30.664 355.5 29.894V31H357.642V20.612ZM353.624 29.348C352.49 29.348 351.734 28.494 351.72 27.262C351.734 26.044 352.504 25.176 353.624 25.176C354.73 25.176 355.5 26.03 355.5 27.262C355.5 28.494 354.73 29.348 353.624 29.348ZM366.946 23.468H364.804V27.192C364.804 28.284 364.174 29.096 363.138 29.11C362.27 29.11 361.724 28.536 361.724 27.584V23.468H359.568V28.2C359.568 29.978 360.618 31.084 362.284 31.084C363.418 31.084 364.286 30.622 364.804 29.67V31H366.946V23.468ZM372.254 23.398C369.944 23.398 368.39 24.952 368.39 27.262C368.39 29.544 369.944 31.084 372.226 31.084C373.766 31.084 374.942 30.468 375.572 29.418L374.088 28.41C373.71 28.998 373.108 29.292 372.338 29.292C371.288 29.292 370.546 28.466 370.546 27.248C370.546 26.044 371.288 25.232 372.338 25.232C373.08 25.218 373.654 25.526 374.06 26.03L375.516 24.98C374.844 23.972 373.696 23.398 372.254 23.398ZM381.137 28.998C380.745 29.18 380.409 29.278 380.129 29.278C379.667 29.292 379.401 29.04 379.401 28.41V25.302H381.445V23.804H379.401V21.732H377.259V23.804H376.209V25.288H377.259V28.774C377.259 30.328 378.281 31.098 379.625 31.098C380.325 31.098 381.025 30.902 381.585 30.58L381.137 28.998ZM385.432 23.37C383.794 23.37 382.464 24.168 382.464 25.722C382.464 28.368 386.37 27.724 386.37 28.928C386.37 29.334 385.964 29.516 385.418 29.516C384.592 29.516 383.584 29.18 382.8 28.578L382.1 30.034C382.954 30.72 384.144 31.084 385.362 31.084C387.07 31.084 388.428 30.272 388.428 28.732C388.442 26.072 384.466 26.646 384.466 25.512C384.466 25.12 384.83 24.952 385.334 24.952C385.964 24.952 386.804 25.218 387.63 25.68L388.372 24.21C387.532 23.678 386.468 23.37 385.432 23.37Z" fill="black"/>
<rect x="23" y="17" width="86" height="17" fill="#E4E7EE"/>
<rect x="31" y="61" width="86" height="17" fill="#E4E7EE"/>
<rect x="31" y="119" width="86" height="17" fill="#EEF1F7"/>
<rect opacity="0.5" x="31" y="169" width="86" height="17" fill="#EEF1F7"/>
<rect opacity="0.5" x="135" y="169" width="295" height="17" fill="#EEF1F7"/>
<rect x="454" y="119" width="86" height="17" fill="#EEF1F7"/>
<rect opacity="0.5" x="454" y="169" width="86" height="17" fill="#EEF1F7"/>
<rect x="554" y="119" width="86" height="17" fill="#EEF1F7"/>
<rect opacity="0.5" x="554" y="169" width="86" height="17" fill="#EEF1F7"/>
<rect x="135" y="98" width="295" height="59" fill="#EEF1F7"/>
<rect x="117" y="17" width="86" height="17" fill="#E4E7EE"/>
<rect x="133" y="61" width="297" height="17" fill="#E4E7EE"/>
<path d="M231.136 65.3C232.119 65.3 232.889 65.5347 233.446 66.004C234.003 66.4733 234.282 67.1187 234.282 67.94C234.282 68.7613 234.003 69.4067 233.446 69.876C232.889 70.338 232.119 70.569 231.136 70.569H229.068V73H228.254V65.3H231.136ZM231.114 69.854C231.877 69.854 232.46 69.689 232.863 69.359C233.266 69.0217 233.468 68.5487 233.468 67.94C233.468 67.3167 233.266 66.84 232.863 66.51C232.46 66.1727 231.877 66.004 231.114 66.004H229.068V69.854H231.114ZM236.475 68.347C236.658 67.9583 236.929 67.665 237.289 67.467C237.655 67.269 238.106 67.17 238.642 67.17V67.929L238.455 67.918C237.846 67.918 237.369 68.105 237.025 68.479C236.68 68.853 236.508 69.3773 236.508 70.052V73H235.727V67.214H236.475V68.347ZM242.367 73.055C241.81 73.055 241.307 72.9303 240.86 72.681C240.413 72.4243 240.061 72.0723 239.804 71.625C239.547 71.1777 239.419 70.6717 239.419 70.107C239.419 69.5423 239.547 69.0363 239.804 68.589C240.061 68.1417 240.413 67.7933 240.86 67.544C241.307 67.2947 241.81 67.17 242.367 67.17C242.924 67.17 243.427 67.2947 243.874 67.544C244.321 67.7933 244.67 68.1417 244.919 68.589C245.176 69.0363 245.304 69.5423 245.304 70.107C245.304 70.6717 245.176 71.1777 244.919 71.625C244.67 72.0723 244.321 72.4243 243.874 72.681C243.427 72.9303 242.924 73.055 242.367 73.055ZM242.367 72.362C242.778 72.362 243.144 72.2703 243.467 72.087C243.797 71.8963 244.054 71.6287 244.237 71.284C244.42 70.9393 244.512 70.547 244.512 70.107C244.512 69.667 244.42 69.2747 244.237 68.93C244.054 68.5853 243.797 68.3213 243.467 68.138C243.144 67.9473 242.778 67.852 242.367 67.852C241.956 67.852 241.586 67.9473 241.256 68.138C240.933 68.3213 240.677 68.5853 240.486 68.93C240.303 69.2747 240.211 69.667 240.211 70.107C240.211 70.547 240.303 70.9393 240.486 71.284C240.677 71.6287 240.933 71.8963 241.256 72.087C241.586 72.2703 241.956 72.362 242.367 72.362ZM252.179 64.838V73H251.431V71.856C251.196 72.2447 250.884 72.5417 250.496 72.747C250.114 72.9523 249.682 73.055 249.198 73.055C248.655 73.055 248.164 72.9303 247.724 72.681C247.284 72.4317 246.939 72.0833 246.69 71.636C246.44 71.1887 246.316 70.679 246.316 70.107C246.316 69.535 246.44 69.0253 246.69 68.578C246.939 68.1307 247.284 67.786 247.724 67.544C248.164 67.2947 248.655 67.17 249.198 67.17C249.667 67.17 250.089 67.269 250.463 67.467C250.844 67.6577 251.156 67.94 251.398 68.314V64.838H252.179ZM249.264 72.362C249.667 72.362 250.03 72.2703 250.353 72.087C250.683 71.8963 250.939 71.6287 251.123 71.284C251.313 70.9393 251.409 70.547 251.409 70.107C251.409 69.667 251.313 69.2747 251.123 68.93C250.939 68.5853 250.683 68.3213 250.353 68.138C250.03 67.9473 249.667 67.852 249.264 67.852C248.853 67.852 248.483 67.9473 248.153 68.138C247.83 68.3213 247.573 68.5853 247.383 68.93C247.199 69.2747 247.108 69.667 247.108 70.107C247.108 70.547 247.199 70.9393 247.383 71.284C247.573 71.6287 247.83 71.8963 248.153 72.087C248.483 72.2703 248.853 72.362 249.264 72.362ZM259.568 67.214V73H258.82V71.944C258.614 72.296 258.332 72.571 257.973 72.769C257.613 72.9597 257.203 73.055 256.741 73.055C255.985 73.055 255.388 72.846 254.948 72.428C254.515 72.0027 254.299 71.383 254.299 70.569V67.214H255.08V70.492C255.08 71.1007 255.23 71.5627 255.531 71.878C255.831 72.1933 256.26 72.351 256.818 72.351C257.426 72.351 257.907 72.1677 258.259 71.801C258.611 71.427 258.787 70.91 258.787 70.25V67.214H259.568ZM264.153 73.055C263.581 73.055 263.068 72.9303 262.613 72.681C262.166 72.4317 261.814 72.0833 261.557 71.636C261.3 71.1813 261.172 70.6717 261.172 70.107C261.172 69.5423 261.3 69.0363 261.557 68.589C261.814 68.1417 262.166 67.7933 262.613 67.544C263.068 67.2947 263.581 67.17 264.153 67.17C264.652 67.17 265.095 67.269 265.484 67.467C265.88 67.6577 266.192 67.94 266.419 68.314L265.836 68.71C265.645 68.424 265.403 68.2113 265.11 68.072C264.817 67.9253 264.498 67.852 264.153 67.852C263.735 67.852 263.357 67.9473 263.02 68.138C262.69 68.3213 262.43 68.5853 262.239 68.93C262.056 69.2747 261.964 69.667 261.964 70.107C261.964 70.5543 262.056 70.9503 262.239 71.295C262.43 71.6323 262.69 71.8963 263.02 72.087C263.357 72.2703 263.735 72.362 264.153 72.362C264.498 72.362 264.817 72.2923 265.11 72.153C265.403 72.0137 265.645 71.801 265.836 71.515L266.419 71.911C266.192 72.285 265.88 72.571 265.484 72.769C265.088 72.9597 264.644 73.055 264.153 73.055ZM271.065 72.648C270.918 72.78 270.735 72.8827 270.515 72.956C270.302 73.022 270.078 73.055 269.844 73.055C269.301 73.055 268.883 72.9083 268.59 72.615C268.296 72.3217 268.15 71.9073 268.15 71.372V67.874H267.116V67.214H268.15V65.949H268.931V67.214H270.691V67.874H268.931V71.328C268.931 71.6727 269.015 71.9367 269.184 72.12C269.36 72.296 269.609 72.384 269.932 72.384C270.093 72.384 270.247 72.3583 270.394 72.307C270.548 72.2557 270.68 72.1823 270.79 72.087L271.065 72.648ZM281.932 65.3L278.522 73H277.719L274.309 65.3H275.189L278.137 71.988L281.107 65.3H281.932ZM282.853 67.214H283.634V73H282.853V67.214ZM283.249 65.949C283.087 65.949 282.952 65.894 282.842 65.784C282.732 65.674 282.677 65.542 282.677 65.388C282.677 65.2413 282.732 65.113 282.842 65.003C282.952 64.893 283.087 64.838 283.249 64.838C283.41 64.838 283.546 64.893 283.656 65.003C283.766 65.1057 283.821 65.2303 283.821 65.377C283.821 65.5383 283.766 65.674 283.656 65.784C283.546 65.894 283.41 65.949 283.249 65.949ZM290.845 70.349H286.005C286.049 70.9503 286.28 71.438 286.698 71.812C287.116 72.1787 287.644 72.362 288.282 72.362C288.641 72.362 288.971 72.2997 289.272 72.175C289.572 72.043 289.833 71.8523 290.053 71.603L290.493 72.109C290.236 72.417 289.913 72.6517 289.525 72.813C289.143 72.9743 288.722 73.055 288.26 73.055C287.666 73.055 287.138 72.9303 286.676 72.681C286.221 72.4243 285.865 72.0723 285.609 71.625C285.352 71.1777 285.224 70.6717 285.224 70.107C285.224 69.5423 285.345 69.0363 285.587 68.589C285.836 68.1417 286.173 67.7933 286.599 67.544C287.031 67.2947 287.515 67.17 288.051 67.17C288.586 67.17 289.066 67.2947 289.492 67.544C289.917 67.7933 290.251 68.1417 290.493 68.589C290.735 69.029 290.856 69.535 290.856 70.107L290.845 70.349ZM288.051 67.841C287.493 67.841 287.024 68.0207 286.643 68.38C286.269 68.732 286.056 69.194 286.005 69.766H290.108C290.056 69.194 289.84 68.732 289.459 68.38C289.085 68.0207 288.615 67.841 288.051 67.841ZM300.83 67.214L298.641 73H297.904L296.078 68.259L294.252 73H293.515L291.337 67.214H292.085L293.9 72.131L295.759 67.214H296.43L298.278 72.131L300.115 67.214H300.83ZM306.883 70.349H302.043C302.087 70.9503 302.318 71.438 302.736 71.812C303.154 72.1787 303.682 72.362 304.32 72.362C304.679 72.362 305.009 72.2997 305.31 72.175C305.611 72.043 305.871 71.8523 306.091 71.603L306.531 72.109C306.274 72.417 305.952 72.6517 305.563 72.813C305.182 72.9743 304.76 73.055 304.298 73.055C303.704 73.055 303.176 72.9303 302.714 72.681C302.259 72.4243 301.904 72.0723 301.647 71.625C301.39 71.1777 301.262 70.6717 301.262 70.107C301.262 69.5423 301.383 69.0363 301.625 68.589C301.874 68.1417 302.212 67.7933 302.637 67.544C303.07 67.2947 303.554 67.17 304.089 67.17C304.624 67.17 305.105 67.2947 305.53 67.544C305.955 67.7933 306.289 68.1417 306.531 68.589C306.773 69.029 306.894 69.535 306.894 70.107L306.883 70.349ZM304.089 67.841C303.532 67.841 303.062 68.0207 302.681 68.38C302.307 68.732 302.094 69.194 302.043 69.766H306.146C306.095 69.194 305.878 68.732 305.497 68.38C305.123 68.0207 304.654 67.841 304.089 67.841ZM309.232 68.347C309.415 67.9583 309.686 67.665 310.046 67.467C310.412 67.269 310.863 67.17 311.399 67.17V67.929L311.212 67.918C310.603 67.918 310.126 68.105 309.782 68.479C309.437 68.853 309.265 69.3773 309.265 70.052V73H308.484V67.214H309.232V68.347ZM318.065 73.066C317.493 73.066 316.943 72.9743 316.415 72.791C315.895 72.6077 315.491 72.3657 315.205 72.065L315.524 71.438C315.803 71.7167 316.173 71.944 316.635 72.12C317.097 72.2887 317.574 72.373 318.065 72.373C318.755 72.373 319.272 72.2483 319.616 71.999C319.961 71.7423 320.133 71.4123 320.133 71.009C320.133 70.701 320.038 70.4553 319.847 70.272C319.664 70.0887 319.437 69.9493 319.165 69.854C318.894 69.7513 318.516 69.6413 318.032 69.524C317.453 69.3773 316.991 69.238 316.646 69.106C316.302 68.9667 316.005 68.7577 315.755 68.479C315.513 68.2003 315.392 67.8227 315.392 67.346C315.392 66.9573 315.495 66.6053 315.7 66.29C315.906 65.9673 316.221 65.7107 316.646 65.52C317.072 65.3293 317.6 65.234 318.23 65.234C318.67 65.234 319.099 65.2963 319.517 65.421C319.943 65.5383 320.309 65.7033 320.617 65.916L320.342 66.565C320.02 66.3523 319.675 66.1947 319.308 66.092C318.942 65.982 318.582 65.927 318.23 65.927C317.556 65.927 317.046 66.059 316.701 66.323C316.364 66.5797 316.195 66.9133 316.195 67.324C316.195 67.632 316.287 67.8813 316.47 68.072C316.661 68.2553 316.896 68.3983 317.174 68.501C317.46 68.5963 317.842 68.7027 318.318 68.82C318.883 68.9593 319.338 69.0987 319.682 69.238C320.034 69.37 320.331 69.5753 320.573 69.854C320.815 70.1253 320.936 70.4957 320.936 70.965C320.936 71.3537 320.83 71.7093 320.617 72.032C320.412 72.3473 320.093 72.6003 319.66 72.791C319.228 72.9743 318.696 73.066 318.065 73.066ZM324.943 73.055C324.371 73.055 323.858 72.9303 323.403 72.681C322.956 72.4317 322.604 72.0833 322.347 71.636C322.09 71.1813 321.962 70.6717 321.962 70.107C321.962 69.5423 322.09 69.0363 322.347 68.589C322.604 68.1417 322.956 67.7933 323.403 67.544C323.858 67.2947 324.371 67.17 324.943 67.17C325.442 67.17 325.885 67.269 326.274 67.467C326.67 67.6577 326.982 67.94 327.209 68.314L326.626 68.71C326.435 68.424 326.193 68.2113 325.9 68.072C325.607 67.9253 325.288 67.852 324.943 67.852C324.525 67.852 324.147 67.9473 323.81 68.138C323.48 68.3213 323.22 68.5853 323.029 68.93C322.846 69.2747 322.754 69.667 322.754 70.107C322.754 70.5543 322.846 70.9503 323.029 71.295C323.22 71.6323 323.48 71.8963 323.81 72.087C324.147 72.2703 324.525 72.362 324.943 72.362C325.288 72.362 325.607 72.2923 325.9 72.153C326.193 72.0137 326.435 71.801 326.626 71.515L327.209 71.911C326.982 72.285 326.67 72.571 326.274 72.769C325.878 72.9597 325.434 73.055 324.943 73.055ZM329.491 68.347C329.675 67.9583 329.946 67.665 330.305 67.467C330.672 67.269 331.123 67.17 331.658 67.17V67.929L331.471 67.918C330.863 67.918 330.386 68.105 330.041 68.479C329.697 68.853 329.524 69.3773 329.524 70.052V73H328.743V67.214H329.491V68.347ZM333.072 67.214H333.853V73H333.072V67.214ZM333.468 65.949C333.307 65.949 333.171 65.894 333.061 65.784C332.951 65.674 332.896 65.542 332.896 65.388C332.896 65.2413 332.951 65.113 333.061 65.003C333.171 64.893 333.307 64.838 333.468 64.838C333.63 64.838 333.765 64.893 333.875 65.003C333.985 65.1057 334.04 65.2303 334.04 65.377C334.04 65.5383 333.985 65.674 333.875 65.784C333.765 65.894 333.63 65.949 333.468 65.949ZM339.008 67.17C339.55 67.17 340.042 67.2947 340.482 67.544C340.922 67.786 341.266 68.1307 341.516 68.578C341.765 69.0253 341.89 69.535 341.89 70.107C341.89 70.6863 341.765 71.1997 341.516 71.647C341.266 72.0943 340.922 72.4427 340.482 72.692C340.049 72.934 339.558 73.055 339.008 73.055C338.538 73.055 338.113 72.9597 337.732 72.769C337.358 72.571 337.05 72.285 336.808 71.911V75.134H336.027V67.214H336.775V68.358C337.009 67.9767 337.317 67.6833 337.699 67.478C338.087 67.2727 338.524 67.17 339.008 67.17ZM338.953 72.362C339.356 72.362 339.723 72.2703 340.053 72.087C340.383 71.8963 340.639 71.6287 340.823 71.284C341.013 70.9393 341.109 70.547 341.109 70.107C341.109 69.667 341.013 69.2783 340.823 68.941C340.639 68.5963 340.383 68.3287 340.053 68.138C339.723 67.9473 339.356 67.852 338.953 67.852C338.542 67.852 338.172 67.9473 337.841 68.138C337.519 68.3287 337.262 68.5963 337.072 68.941C336.888 69.2783 336.797 69.667 336.797 70.107C336.797 70.547 336.888 70.9393 337.072 71.284C337.262 71.6287 337.519 71.8963 337.841 72.087C338.172 72.2703 338.542 72.362 338.953 72.362ZM346.529 72.648C346.382 72.78 346.199 72.8827 345.979 72.956C345.766 73.022 345.542 73.055 345.308 73.055C344.765 73.055 344.347 72.9083 344.054 72.615C343.76 72.3217 343.614 71.9073 343.614 71.372V67.874H342.58V67.214H343.614V65.949H344.395V67.214H346.155V67.874H344.395V71.328C344.395 71.6727 344.479 71.9367 344.648 72.12C344.824 72.296 345.073 72.384 345.396 72.384C345.557 72.384 345.711 72.3583 345.858 72.307C346.012 72.2557 346.144 72.1823 346.254 72.087L346.529 72.648Z" fill="#0F1642"/>
<rect x="221" y="17" width="86" height="17" fill="#E4E7EE"/>
<rect x="407" y="17" width="86" height="17" fill="#E4E7EE"/>
<rect x="511" y="17" width="86" height="17" fill="#E4E7EE"/>
<rect x="454" y="61" width="86" height="17" fill="#E4E7EE"/>
<rect x="554" y="61" width="86" height="17" fill="#E4E7EE"/>
<rect x="135" y="103" width="246.002" height="47.9996" rx="8" fill="#EEF1F7"/>
<path d="M145.568 126.028C146 125.356 146.76 125.02 147.848 125.02V126.448C147.72 126.424 147.604 126.412 147.5 126.412C146.916 126.412 146.46 126.584 146.132 126.928C145.804 127.264 145.64 127.752 145.64 128.392V131.5H144.14V125.092H145.568V126.028ZM155.086 128.332C155.086 128.436 155.078 128.584 155.062 128.776H150.034C150.122 129.248 150.35 129.624 150.718 129.904C151.094 130.176 151.558 130.312 152.11 130.312C152.814 130.312 153.394 130.08 153.85 129.616L154.654 130.54C154.366 130.884 154.002 131.144 153.562 131.32C153.122 131.496 152.626 131.584 152.074 131.584C151.37 131.584 150.75 131.444 150.214 131.164C149.678 130.884 149.262 130.496 148.966 130C148.678 129.496 148.534 128.928 148.534 128.296C148.534 127.672 148.674 127.112 148.954 126.616C149.242 126.112 149.638 125.72 150.142 125.44C150.646 125.16 151.214 125.02 151.846 125.02C152.47 125.02 153.026 125.16 153.514 125.44C154.01 125.712 154.394 126.1 154.666 126.604C154.946 127.1 155.086 127.676 155.086 128.332ZM151.846 126.22C151.366 126.22 150.958 126.364 150.622 126.652C150.294 126.932 150.094 127.308 150.022 127.78H153.658C153.594 127.316 153.398 126.94 153.07 126.652C152.742 126.364 152.334 126.22 151.846 126.22ZM164.615 125.02C165.423 125.02 166.063 125.256 166.535 125.728C167.007 126.192 167.243 126.892 167.243 127.828V131.5H165.743V128.02C165.743 127.46 165.619 127.04 165.371 126.76C165.123 126.472 164.767 126.328 164.303 126.328C163.799 126.328 163.395 126.496 163.091 126.832C162.787 127.16 162.635 127.632 162.635 128.248V131.5H161.135V128.02C161.135 127.46 161.011 127.04 160.763 126.76C160.515 126.472 160.159 126.328 159.695 126.328C159.183 126.328 158.775 126.492 158.471 126.82C158.175 127.148 158.027 127.624 158.027 128.248V131.5H156.527V125.092H157.955V125.908C158.195 125.62 158.495 125.4 158.855 125.248C159.215 125.096 159.615 125.02 160.055 125.02C160.535 125.02 160.959 125.112 161.327 125.296C161.703 125.472 161.999 125.736 162.215 126.088C162.479 125.752 162.819 125.492 163.235 125.308C163.651 125.116 164.111 125.02 164.615 125.02ZM172.098 131.584C171.45 131.584 170.866 131.444 170.346 131.164C169.826 130.884 169.418 130.496 169.122 130C168.834 129.496 168.69 128.928 168.69 128.296C168.69 127.664 168.834 127.1 169.122 126.604C169.418 126.108 169.826 125.72 170.346 125.44C170.866 125.16 171.45 125.02 172.098 125.02C172.754 125.02 173.342 125.16 173.862 125.44C174.382 125.72 174.786 126.108 175.074 126.604C175.37 127.1 175.518 127.664 175.518 128.296C175.518 128.928 175.37 129.496 175.074 130C174.786 130.496 174.382 130.884 173.862 131.164C173.342 131.444 172.754 131.584 172.098 131.584ZM172.098 130.3C172.65 130.3 173.106 130.116 173.466 129.748C173.826 129.38 174.006 128.896 174.006 128.296C174.006 127.696 173.826 127.212 173.466 126.844C173.106 126.476 172.65 126.292 172.098 126.292C171.546 126.292 171.09 126.476 170.73 126.844C170.378 127.212 170.202 127.696 170.202 128.296C170.202 128.896 170.378 129.38 170.73 129.748C171.09 130.116 171.546 130.3 172.098 130.3ZM180.805 131.152C180.629 131.296 180.413 131.404 180.157 131.476C179.909 131.548 179.645 131.584 179.365 131.584C178.661 131.584 178.117 131.4 177.733 131.032C177.349 130.664 177.157 130.128 177.157 129.424V126.34H176.101V125.14H177.157V123.676H178.657V125.14H180.373V126.34H178.657V129.388C178.657 129.7 178.733 129.94 178.885 130.108C179.037 130.268 179.257 130.348 179.545 130.348C179.881 130.348 180.161 130.26 180.385 130.084L180.805 131.152ZM187.852 128.332C187.852 128.436 187.844 128.584 187.828 128.776H182.8C182.888 129.248 183.116 129.624 183.484 129.904C183.86 130.176 184.324 130.312 184.876 130.312C185.58 130.312 186.16 130.08 186.616 129.616L187.42 130.54C187.132 130.884 186.768 131.144 186.328 131.32C185.888 131.496 185.392 131.584 184.84 131.584C184.136 131.584 183.516 131.444 182.98 131.164C182.444 130.884 182.028 130.496 181.732 130C181.444 129.496 181.3 128.928 181.3 128.296C181.3 127.672 181.44 127.112 181.72 126.616C182.008 126.112 182.404 125.72 182.908 125.44C183.412 125.16 183.98 125.02 184.612 125.02C185.236 125.02 185.792 125.16 186.28 125.44C186.776 125.712 187.16 126.1 187.432 126.604C187.712 127.1 187.852 127.676 187.852 128.332ZM184.612 126.22C184.132 126.22 183.724 126.364 183.388 126.652C183.06 126.932 182.86 127.308 182.788 127.78H186.424C186.36 127.316 186.164 126.94 185.836 126.652C185.508 126.364 185.1 126.22 184.612 126.22ZM192.893 123.1C193.621 123.1 194.253 123.22 194.789 123.46C195.333 123.7 195.749 124.044 196.037 124.492C196.325 124.94 196.469 125.472 196.469 126.088C196.469 126.696 196.325 127.228 196.037 127.684C195.749 128.132 195.333 128.476 194.789 128.716C194.253 128.956 193.621 129.076 192.893 129.076H190.997V131.5H189.437V123.1H192.893ZM192.821 127.756C193.501 127.756 194.017 127.612 194.369 127.324C194.721 127.036 194.897 126.624 194.897 126.088C194.897 125.552 194.721 125.14 194.369 124.852C194.017 124.564 193.501 124.42 192.821 124.42H190.997V127.756H192.821ZM199.252 126.028C199.684 125.356 200.444 125.02 201.532 125.02V126.448C201.404 126.424 201.288 126.412 201.184 126.412C200.6 126.412 200.144 126.584 199.816 126.928C199.488 127.264 199.324 127.752 199.324 128.392V131.5H197.824V125.092H199.252V126.028ZM205.626 131.584C204.978 131.584 204.394 131.444 203.874 131.164C203.354 130.884 202.946 130.496 202.65 130C202.362 129.496 202.218 128.928 202.218 128.296C202.218 127.664 202.362 127.1 202.65 126.604C202.946 126.108 203.354 125.72 203.874 125.44C204.394 125.16 204.978 125.02 205.626 125.02C206.282 125.02 206.87 125.16 207.39 125.44C207.91 125.72 208.314 126.108 208.602 126.604C208.898 127.1 209.046 127.664 209.046 128.296C209.046 128.928 208.898 129.496 208.602 130C208.314 130.496 207.91 130.884 207.39 131.164C206.87 131.444 206.282 131.584 205.626 131.584ZM205.626 130.3C206.178 130.3 206.634 130.116 206.994 129.748C207.354 129.38 207.534 128.896 207.534 128.296C207.534 127.696 207.354 127.212 206.994 126.844C206.634 126.476 206.178 126.292 205.626 126.292C205.074 126.292 204.618 126.476 204.258 126.844C203.906 127.212 203.73 127.696 203.73 128.296C203.73 128.896 203.906 129.38 204.258 129.748C204.618 130.116 205.074 130.3 205.626 130.3ZM216.756 122.596V131.5H215.316V130.672C215.068 130.976 214.76 131.204 214.392 131.356C214.032 131.508 213.632 131.584 213.192 131.584C212.576 131.584 212.02 131.448 211.524 131.176C211.036 130.904 210.652 130.52 210.372 130.024C210.092 129.52 209.952 128.944 209.952 128.296C209.952 127.648 210.092 127.076 210.372 126.58C210.652 126.084 211.036 125.7 211.524 125.428C212.02 125.156 212.576 125.02 213.192 125.02C213.616 125.02 214.004 125.092 214.356 125.236C214.708 125.38 215.008 125.596 215.256 125.884V122.596H216.756ZM213.372 130.3C213.732 130.3 214.056 130.22 214.344 130.06C214.632 129.892 214.86 129.656 215.028 129.352C215.196 129.048 215.28 128.696 215.28 128.296C215.28 127.896 215.196 127.544 215.028 127.24C214.86 126.936 214.632 126.704 214.344 126.544C214.056 126.376 213.732 126.292 213.372 126.292C213.012 126.292 212.688 126.376 212.4 126.544C212.112 126.704 211.884 126.936 211.716 127.24C211.548 127.544 211.464 127.896 211.464 128.296C211.464 128.696 211.548 129.048 211.716 129.352C211.884 129.656 212.112 129.892 212.4 130.06C212.688 130.22 213.012 130.3 213.372 130.3ZM224.922 125.092V131.5H223.494V130.684C223.254 130.972 222.954 131.196 222.594 131.356C222.234 131.508 221.846 131.584 221.43 131.584C220.574 131.584 219.898 131.348 219.402 130.876C218.914 130.396 218.67 129.688 218.67 128.752V125.092H220.17V128.548C220.17 129.124 220.298 129.556 220.554 129.844C220.818 130.124 221.19 130.264 221.67 130.264C222.206 130.264 222.63 130.1 222.942 129.772C223.262 129.436 223.422 128.956 223.422 128.332V125.092H224.922ZM229.826 131.584C229.162 131.584 228.566 131.444 228.038 131.164C227.51 130.884 227.098 130.496 226.802 130C226.506 129.496 226.358 128.928 226.358 128.296C226.358 127.664 226.506 127.1 226.802 126.604C227.098 126.108 227.506 125.72 228.026 125.44C228.554 125.16 229.154 125.02 229.826 125.02C230.458 125.02 231.01 125.148 231.482 125.404C231.962 125.66 232.322 126.028 232.562 126.508L231.41 127.18C231.226 126.884 230.994 126.664 230.714 126.52C230.442 126.368 230.142 126.292 229.814 126.292C229.254 126.292 228.79 126.476 228.422 126.844C228.054 127.204 227.87 127.688 227.87 128.296C227.87 128.904 228.05 129.392 228.41 129.76C228.778 130.12 229.246 130.3 229.814 130.3C230.142 130.3 230.442 130.228 230.714 130.084C230.994 129.932 231.226 129.708 231.41 129.412L232.562 130.084C232.314 130.564 231.95 130.936 231.47 131.2C230.998 131.456 230.45 131.584 229.826 131.584ZM237.793 131.152C237.617 131.296 237.401 131.404 237.145 131.476C236.897 131.548 236.633 131.584 236.353 131.584C235.649 131.584 235.105 131.4 234.721 131.032C234.337 130.664 234.145 130.128 234.145 129.424V126.34H233.089V125.14H234.145V123.676H235.645V125.14H237.361V126.34H235.645V129.388C235.645 129.7 235.721 129.94 235.873 130.108C236.025 130.268 236.245 130.348 236.533 130.348C236.869 130.348 237.149 130.26 237.373 130.084L237.793 131.152ZM239.171 123.1H240.731V131.5H239.171V123.1ZM249.135 122.596V131.5H247.695V130.672C247.447 130.976 247.139 131.204 246.771 131.356C246.411 131.508 246.011 131.584 245.571 131.584C244.955 131.584 244.399 131.448 243.903 131.176C243.415 130.904 243.031 130.52 242.751 130.024C242.471 129.52 242.331 128.944 242.331 128.296C242.331 127.648 242.471 127.076 242.751 126.58C243.031 126.084 243.415 125.7 243.903 125.428C244.399 125.156 244.955 125.02 245.571 125.02C245.995 125.02 246.383 125.092 246.735 125.236C247.087 125.38 247.387 125.596 247.635 125.884V122.596H249.135ZM245.751 130.3C246.111 130.3 246.435 130.22 246.723 130.06C247.011 129.892 247.239 129.656 247.407 129.352C247.575 129.048 247.659 128.696 247.659 128.296C247.659 127.896 247.575 127.544 247.407 127.24C247.239 126.936 247.011 126.704 246.723 126.544C246.435 126.376 246.111 126.292 245.751 126.292C245.391 126.292 245.067 126.376 244.779 126.544C244.491 126.704 244.263 126.936 244.095 127.24C243.927 127.544 243.843 127.896 243.843 128.296C243.843 128.696 243.927 129.048 244.095 129.352C244.263 129.656 244.491 129.892 244.779 130.06C245.067 130.22 245.391 130.3 245.751 130.3ZM250.893 125.248H256.425V126.448H250.893V125.248ZM250.893 128.152H256.425V129.352H250.893V128.152ZM260.623 123.1V131.5H259.063V124.408H257.287V123.1H260.623ZM268.374 130.18V131.5H262.182V130.456L265.518 127.288C265.894 126.928 266.146 126.616 266.274 126.352C266.41 126.08 266.478 125.812 266.478 125.548C266.478 125.156 266.346 124.856 266.082 124.648C265.818 124.44 265.43 124.336 264.918 124.336C264.062 124.336 263.406 124.628 262.95 125.212L261.858 124.372C262.186 123.932 262.626 123.592 263.178 123.352C263.738 123.104 264.362 122.98 265.05 122.98C265.962 122.98 266.69 123.196 267.234 123.628C267.778 124.06 268.05 124.648 268.05 125.392C268.05 125.848 267.954 126.276 267.762 126.676C267.57 127.076 267.202 127.532 266.658 128.044L264.414 130.18H268.374ZM276.586 129.592H275.098V131.5H273.586V129.592H268.978V128.512L273.118 123.1H274.786L270.886 128.272H273.634V126.58H275.098V128.272H276.586V129.592ZM279.842 123.1V131.5H278.282V124.408H276.506V123.1H279.842ZM287.592 130.18V131.5H281.4V130.456L284.736 127.288C285.112 126.928 285.364 126.616 285.492 126.352C285.628 126.08 285.696 125.812 285.696 125.548C285.696 125.156 285.564 124.856 285.3 124.648C285.036 124.44 284.648 124.336 284.136 124.336C283.28 124.336 282.624 124.628 282.168 125.212L281.076 124.372C281.404 123.932 281.844 123.592 282.396 123.352C282.956 123.104 283.58 122.98 284.268 122.98C285.18 122.98 285.908 123.196 286.452 123.628C286.996 124.06 287.268 124.648 287.268 125.392C287.268 125.848 287.172 126.276 286.98 126.676C286.788 127.076 286.42 127.532 285.876 128.044L283.632 130.18H287.592ZM292.069 126.568C292.845 126.664 293.437 126.928 293.845 127.36C294.253 127.792 294.457 128.332 294.457 128.98C294.457 129.468 294.333 129.912 294.085 130.312C293.837 130.712 293.461 131.032 292.957 131.272C292.461 131.504 291.853 131.62 291.133 131.62C290.533 131.62 289.953 131.536 289.393 131.368C288.841 131.192 288.369 130.952 287.977 130.648L288.649 129.436C288.953 129.692 289.321 129.896 289.753 130.048C290.193 130.192 290.645 130.264 291.109 130.264C291.661 130.264 292.093 130.152 292.405 129.928C292.725 129.696 292.885 129.384 292.885 128.992C292.885 128.6 292.733 128.296 292.429 128.08C292.133 127.856 291.677 127.744 291.061 127.744H290.293V126.676L292.201 124.408H288.385V123.1H294.109V124.144L292.069 126.568ZM302.965 129.592H301.477V131.5H299.965V129.592H295.357V128.512L299.497 123.1H301.165L297.265 128.272H300.013V126.58H301.477V128.272H302.965V129.592ZM309.671 130.18V131.5H303.479V130.456L306.815 127.288C307.191 126.928 307.443 126.616 307.571 126.352C307.707 126.08 307.775 125.812 307.775 125.548C307.775 125.156 307.643 124.856 307.379 124.648C307.115 124.44 306.727 124.336 306.215 124.336C305.359 124.336 304.703 124.628 304.247 125.212L303.155 124.372C303.483 123.932 303.923 123.592 304.475 123.352C305.035 123.104 305.659 122.98 306.347 122.98C307.259 122.98 307.987 123.196 308.531 123.628C309.075 124.06 309.347 124.648 309.347 125.392C309.347 125.848 309.251 126.276 309.059 126.676C308.867 127.076 308.499 127.532 307.955 128.044L305.711 130.18H309.671ZM314.147 126.568C314.923 126.664 315.515 126.928 315.923 127.36C316.331 127.792 316.535 128.332 316.535 128.98C316.535 129.468 316.411 129.912 316.163 130.312C315.915 130.712 315.539 131.032 315.035 131.272C314.539 131.504 313.931 131.62 313.211 131.62C312.611 131.62 312.031 131.536 311.471 131.368C310.919 131.192 310.447 130.952 310.055 130.648L310.727 129.436C311.031 129.692 311.399 129.896 311.831 130.048C312.271 130.192 312.723 130.264 313.187 130.264C313.739 130.264 314.171 130.152 314.483 129.928C314.803 129.696 314.963 129.384 314.963 128.992C314.963 128.6 314.811 128.296 314.507 128.08C314.211 127.856 313.755 127.744 313.139 127.744H312.371V126.676L314.279 124.408H310.463V123.1H316.187V124.144L314.147 126.568ZM320.066 126.352C321.25 126.352 322.126 126.584 322.694 127.048C323.262 127.504 323.546 128.128 323.546 128.92C323.546 129.424 323.422 129.88 323.174 130.288C322.926 130.696 322.554 131.02 322.058 131.26C321.562 131.5 320.95 131.62 320.222 131.62C319.622 131.62 319.042 131.536 318.482 131.368C317.922 131.192 317.45 130.952 317.066 130.648L317.726 129.436C318.038 129.692 318.41 129.896 318.842 130.048C319.282 130.192 319.734 130.264 320.198 130.264C320.75 130.264 321.182 130.152 321.494 129.928C321.814 129.696 321.974 129.38 321.974 128.98C321.974 128.548 321.802 128.224 321.458 128.008C321.122 127.784 320.542 127.672 319.718 127.672H317.69L318.122 123.1H323.054V124.408H319.442L319.262 126.352H320.066ZM330.471 130.18V131.5H324.279V130.456L327.615 127.288C327.991 126.928 328.243 126.616 328.371 126.352C328.507 126.08 328.575 125.812 328.575 125.548C328.575 125.156 328.443 124.856 328.179 124.648C327.915 124.44 327.527 124.336 327.015 124.336C326.159 124.336 325.503 124.628 325.047 125.212L323.955 124.372C324.283 123.932 324.723 123.592 325.275 123.352C325.835 123.104 326.459 122.98 327.147 122.98C328.059 122.98 328.787 123.196 329.331 123.628C329.875 124.06 330.147 124.648 330.147 125.392C330.147 125.848 330.051 126.276 329.859 126.676C329.667 127.076 329.299 127.532 328.755 128.044L326.511 130.18H330.471Z" fill="#3333FF"/>
<rect x="341" y="111" width="32.0016" height="31.9996" rx="8" fill="#EBEBFA"/>
<path d="M363.402 124.6H356.202C355.318 124.6 354.602 125.316 354.602 126.2V133.4C354.602 134.283 355.318 135 356.202 135H363.402C364.285 135 365.002 134.283 365.002 133.4V126.2C365.002 125.316 364.285 124.6 363.402 124.6Z" stroke="#8E8E8E" stroke-width="1.4" stroke-linecap="round" stroke-linejoin="round"/>
<path d="M351.4 129.4H350.6C350.176 129.4 349.769 129.231 349.469 128.931C349.169 128.631 349 128.224 349 127.8V120.6C349 120.176 349.169 119.769 349.469 119.469C349.769 119.169 350.176 119 350.6 119H357.8C358.224 119 358.631 119.169 358.931 119.469C359.231 119.769 359.4 120.176 359.4 120.6V121.4" stroke="#8E8E8E" stroke-width="1.4" stroke-linecap="round" stroke-linejoin="round"/>
<circle cx="374" cy="125" r="43" fill="white" stroke="#3333FF" stroke-width="2"/>
<rect x="352" y="103" width="43.9997" height="44.0006" rx="8" fill="#EBEBFA"/>
<path d="M385.2 120.803H372.601C371.054 120.803 369.801 122.056 369.801 123.603V136.201C369.801 137.748 371.054 139.001 372.601 139.001H385.2C386.746 139.001 387.999 137.748 387.999 136.201V123.603C387.999 122.056 386.746 120.803 385.2 120.803Z" stroke="#8E8E8E" stroke-width="2.4" stroke-linecap="round" stroke-linejoin="round"/>
<path d="M364.2 129.199H362.8C362.057 129.199 361.345 128.904 360.82 128.378C360.295 127.853 360 127.141 360 126.399V113.8C360 113.057 360.295 112.345 360.82 111.82C361.345 111.295 362.057 111 362.8 111H375.399C376.141 111 376.853 111.295 377.378 111.82C377.904 112.345 378.199 113.057 378.199 113.8V115.2" stroke="#8E8E8E" stroke-width="2.4" stroke-linecap="round" stroke-linejoin="round"/>
<g filter="url(#filter0_d)">
<path d="M392.278 145.356L415.015 163.313L402.77 163.529L396.46 174.026L392.278 145.356Z" fill="#585858"/>
<path d="M396.753 172.569L392.954 146.527L413.607 162.838L402.761 163.029L402.484 163.034L402.341 163.271L396.753 172.569Z" stroke="white"/>
</g>
<defs>
<filter id="filter0_d" x="344" y="126" width="110.016" height="112.025" filterUnits="userSpaceOnUse" color-interpolation-filters="sRGB">
<feFlood flood-opacity="0" result="BackgroundImageFix"/>
<feColorMatrix in="SourceAlpha" type="matrix" values="0 0 0 0 0 0 0 0 0 0 0 0 0 0 0 0 0 0 127 0" result="hardAlpha"/>
<feOffset dy="25"/>
<feGaussianBlur stdDeviation="19.5"/>
<feColorMatrix type="matrix" values="0 0 0 0 0 0 0 0 0 0 0 0 0 0 0 0 0 0 0.35 0"/>
<feBlend mode="normal" in2="BackgroundImageFix" result="effect1_dropShadow"/>
<feBlend mode="normal" in="SourceGraphic" in2="effect1_dropShadow" result="shape"/>
</filter>
</defs>
</svg>
