<svg width="671" height="371" viewBox="0 0 671 371" fill="none" xmlns="http://www.w3.org/2000/svg">
<rect width="671" height="371" rx="12" fill="#EEF1F7"/>
<path d="M0 12C0 5.37258 5.37258 0 12 0H48V371H12C5.37258 371 0 365.627 0 359V12Z" fill="#E4E7EE"/>
<path opacity="0.4" d="M24.216 27V18.6H21.156V19.86H22.8V27H24.216Z" fill="#5C6068"/>
<path opacity="0.4" d="M23.456 43.54C22.376 43.54 21.308 43.996 20.396 44.74L20.96 45.832C21.668 45.184 22.52 44.776 23.252 44.776C24.128 44.776 24.656 45.184 24.656 45.856C24.656 46.336 24.248 47.02 23.636 47.644L20.54 50.968V52H26.516V50.728H22.412L24.596 48.412C25.484 47.452 26.132 46.504 26.132 45.652C26.132 44.368 25.04 43.54 23.456 43.54Z" fill="#5C6068"/>
<path opacity="0.4" d="M23.144 72.092L25.544 69.5V68.612H20.432V69.872H23.792L21.608 72.224V73.052H22.772C23.888 73.052 24.548 73.52 24.548 74.432C24.548 75.296 23.9 75.872 22.784 75.872C22.016 75.872 21.236 75.56 20.636 74.996L20.048 76.148C20.768 76.7 21.848 77.06 22.88 77.06C24.752 77.06 25.94 75.968 25.94 74.396C25.94 73.076 24.98 72.26 23.576 72.14L23.144 72.092Z" fill="#5C6068"/>
<path opacity="0.4" d="M21.872 98.676L24.596 93.6H23.228L20.36 98.88V99.936H24.368V102H25.688V99.936H26.912V98.676H25.688V96.684H24.368V98.676H21.872Z" fill="#5C6068"/>
<path opacity="0.4" d="M26.072 119.872L26.06 118.6H20.948V123.04C21.512 122.98 22.652 122.932 23.156 122.932C24.236 122.932 24.896 123.46 24.896 124.312C24.896 125.26 24.236 125.824 23.144 125.824C22.388 125.824 21.548 125.5 20.876 124.936L20.312 126.088C21.14 126.664 22.304 127.048 23.3 127.048C25.184 127.048 26.408 125.932 26.408 124.228C26.408 122.752 25.232 121.672 23.408 121.672L22.256 121.684V119.872H26.072Z" fill="#5C6068"/>
<path opacity="0.4" d="M24.2 143.54C21.98 143.54 20.576 145.292 20.576 147.968C20.576 150.548 21.872 152.06 23.996 152.06C25.784 152.06 26.948 150.98 26.948 149.24C26.948 147.608 25.928 146.564 24.248 146.564C23.192 146.564 22.4 146.972 21.956 147.752C21.908 145.94 22.664 144.716 24.296 144.716C24.932 144.716 25.64 144.908 26.156 145.244L26.708 144.176C26.024 143.792 25.028 143.54 24.2 143.54ZM23.984 147.68C25.004 147.68 25.628 148.268 25.628 149.228C25.628 150.248 24.944 150.836 23.924 150.836C22.712 150.836 22.172 150.008 22.184 149.276C22.172 148.412 22.844 147.68 23.984 147.68Z" fill="#5C6068"/>
<path opacity="0.4" d="M26.552 169.68V168.6H20.444V171.048H21.692L21.704 169.872H24.968L21.704 177H23.204L26.552 169.68Z" fill="#5C6068"/>
<path opacity="0.4" d="M23.756 193.54C22.04 193.54 20.948 194.344 20.948 195.664C20.948 196.48 21.44 197.14 22.256 197.512C21.188 197.848 20.528 198.64 20.528 199.672C20.528 201.148 21.776 202.06 23.756 202.06C25.748 202.06 26.996 201.148 26.996 199.648C26.996 198.628 26.348 197.848 25.328 197.512C26.108 197.164 26.576 196.528 26.576 195.712C26.576 194.368 25.484 193.54 23.756 193.54ZM23.756 194.56C24.776 194.56 25.364 195.016 25.364 195.796C25.364 196.576 24.776 197.02 23.756 197.02C22.748 197.02 22.148 196.576 22.148 195.796C22.148 195.016 22.748 194.56 23.756 194.56ZM23.756 198.124C24.956 198.124 25.652 198.64 25.652 199.516C25.652 200.428 24.956 200.944 23.756 200.944C22.556 200.944 21.872 200.428 21.872 199.516C21.872 198.64 22.568 198.124 23.756 198.124Z" fill="#5C6068"/>
<path opacity="0.4" d="M23.252 227.06C25.472 227.06 26.876 225.308 26.876 222.632C26.876 220.052 25.58 218.54 23.456 218.54C21.668 218.54 20.504 219.62 20.504 221.36C20.504 222.992 21.524 224.036 23.204 224.036C24.26 224.036 25.052 223.628 25.496 222.848C25.544 224.66 24.788 225.884 23.156 225.884C22.52 225.884 21.812 225.692 21.296 225.356L20.744 226.424C21.428 226.808 22.424 227.06 23.252 227.06ZM23.468 222.92C22.448 222.92 21.824 222.332 21.824 221.372C21.824 220.352 22.508 219.764 23.528 219.764C24.74 219.764 25.28 220.592 25.268 221.324C25.28 222.188 24.608 222.92 23.468 222.92Z" fill="#5C6068"/>
<path opacity="0.4" d="M20.216 252V243.6H17.156V244.86H18.8V252H20.216ZM25.7926 243.564C23.4886 243.564 22.2166 245.076 22.2166 247.8C22.2166 250.524 23.4886 252.036 25.7926 252.036C28.0846 252.036 29.3566 250.524 29.3566 247.8C29.3566 245.076 28.0846 243.564 25.7926 243.564ZM25.7926 244.68C27.1966 244.68 27.9046 245.664 27.9046 247.8C27.9046 249.924 27.1966 250.92 25.7926 250.92C24.3766 250.92 23.6686 249.924 23.6686 247.8C23.6686 245.664 24.3766 244.68 25.7926 244.68Z" fill="#5C6068"/>
<path opacity="0.4" d="M22.216 277V268.6H19.156V269.86H20.8V277H22.216ZM26.8566 277V268.6H23.7966V269.86H25.4406V277H26.8566Z" fill="#5C6068"/>
<path opacity="0.4" d="M22.216 324V315.6H19.156V316.86H20.8V324H22.216ZM26.7846 319.092L29.1846 316.5V315.612H24.0726V316.872H27.4326L25.2486 319.224V320.052H26.4126C27.5286 320.052 28.1886 320.52 28.1886 321.432C28.1886 322.296 27.5406 322.872 26.4246 322.872C25.6566 322.872 24.8766 322.56 24.2766 321.996L23.6886 323.148C24.4086 323.7 25.4886 324.06 26.5206 324.06C28.3926 324.06 29.5806 322.968 29.5806 321.396C29.5806 320.076 28.6206 319.26 27.2166 319.14L26.7846 319.092Z" fill="#5C6068"/>
<path opacity="0.4" d="M21.216 302V293.6H18.156V294.86H19.8V302H21.216ZM26.0966 293.54C25.0166 293.54 23.9486 293.996 23.0366 294.74L23.6006 295.832C24.3086 295.184 25.1606 294.776 25.8926 294.776C26.7686 294.776 27.2966 295.184 27.2966 295.856C27.2966 296.336 26.8886 297.02 26.2766 297.644L23.1806 300.968V302H29.1566V300.728H25.0526L27.2366 298.412C28.1246 297.452 28.7726 296.504 28.7726 295.652C28.7726 294.368 27.6806 293.54 26.0966 293.54Z" fill="#5C6068"/>
<path opacity="0.4" d="M21.216 349V340.6H18.156V341.86H19.8V349H21.216ZM24.5126 345.676L27.2366 340.6H25.8686L23.0006 345.88V346.936H27.0086V349H28.3286V346.936H29.5526V345.676H28.3286V343.684H27.0086V345.676H24.5126Z" fill="#5C6068"/>
<path d="M66.482 293.378V292.132L60.49 294.736V296.15L66.482 298.754V297.508L61.568 295.436L66.482 293.378ZM68.0507 301.638L72.4887 288.576H71.1167L66.6787 301.638H68.0507ZM75.0234 292.482C73.5954 292.482 72.2794 293.126 72.2794 294.638C72.2654 297.326 76.1854 296.472 76.1854 297.998C76.1854 298.558 75.6534 298.796 74.9674 298.796C74.1554 298.796 73.1194 298.446 72.4754 297.872L71.9014 299.02C72.6434 299.692 73.8054 300.056 74.8974 300.056C76.3954 300.056 77.7534 299.37 77.7534 297.844C77.7674 295.142 73.8054 295.884 73.8054 294.512C73.8054 293.98 74.2674 293.77 74.8974 293.77C75.5554 293.77 76.3814 294.022 77.0394 294.428L77.6274 293.238C76.9554 292.762 75.9614 292.482 75.0234 292.482ZM82.4256 292.496C80.2136 292.496 78.6736 294.036 78.6736 296.29C78.6736 298.53 80.2136 300.056 82.4256 300.056C83.8396 300.056 84.9176 299.552 85.5896 298.67L84.6936 297.774C84.1896 298.362 83.4336 298.67 82.4956 298.67C81.2076 298.67 80.2836 297.704 80.2836 296.29C80.2836 294.876 81.2076 293.91 82.4956 293.91C83.3916 293.896 84.1056 294.218 84.6236 294.75L85.5056 293.714C84.8196 292.93 83.7696 292.496 82.4256 292.496ZM88.8859 292.552H87.2759V300H88.8859V296.108C89.0119 294.834 89.9639 293.952 91.4619 294.036V292.496C90.2859 292.496 89.3899 293.028 88.8859 294.036V292.552ZM93.5837 289.444C93.0517 289.444 92.6457 289.85 92.6457 290.424C92.6457 290.984 93.0517 291.39 93.5837 291.39C94.1157 291.39 94.5217 290.984 94.5217 290.424C94.5217 289.85 94.1157 289.444 93.5837 289.444ZM94.3817 300V292.552H92.7857V300H94.3817ZM101.048 292.496C99.8862 292.496 98.9902 292.972 98.4442 293.84V292.552H96.8342V302.716H98.4442V298.712C98.9902 299.58 99.8862 300.056 101.076 300.056C103.204 300.056 104.604 298.53 104.604 296.304C104.604 294.036 103.162 292.496 101.048 292.496ZM100.712 298.684C99.3822 298.684 98.4442 297.69 98.4442 296.248C98.4442 294.848 99.3822 293.84 100.712 293.84C102.042 293.84 102.98 294.862 102.98 296.248C102.98 297.676 102.042 298.684 100.712 298.684ZM110.088 298.292C109.654 298.502 109.304 298.614 108.968 298.614C108.464 298.614 108.17 298.376 108.17 297.606V294.036H110.368V292.832H108.17V290.788H106.574V292.832H105.524V294.036H106.574V297.9C106.574 299.426 107.54 300.07 108.66 300.07C109.29 300.07 109.906 299.874 110.494 299.524L110.088 298.292ZM111.281 297.438V298.684L117.273 296.08V294.666L111.281 292.062V293.308L116.195 295.38L111.281 297.438Z" fill="#A58EFF"/>
<rect x="57" y="313" width="86" height="17" fill="#E4E7EE"/>
<rect x="57" y="338" width="132" height="17" fill="#E4E7EE"/>
<rect x="151" y="313" width="86" height="17" fill="#E4E7EE"/>
<rect x="245" y="313" width="86" height="17" fill="#E4E7EE"/>
<rect x="339" y="313" width="86" height="17" fill="#E4E7EE"/>
<rect x="433" y="313" width="86" height="17" fill="#E4E7EE"/>
<rect x="527" y="313" width="86" height="17" fill="#E4E7EE"/>
<rect x="201" y="338" width="132" height="17" fill="#E4E7EE"/>
<rect x="341" y="338" width="132" height="17" fill="#E4E7EE"/>
<rect x="481" y="338" width="132" height="17" fill="#E4E7EE"/>
<path d="M66.482 70.378V69.132L60.49 71.736V73.15L66.482 75.754V74.508L61.568 72.436L66.482 70.378ZM70.3887 69.482C68.9607 69.482 67.6447 70.126 67.6447 71.638C67.6307 74.326 71.5507 73.472 71.5507 74.998C71.5507 75.558 71.0187 75.796 70.3327 75.796C69.5207 75.796 68.4847 75.446 67.8407 74.872L67.2667 76.02C68.0087 76.692 69.1707 77.056 70.2627 77.056C71.7607 77.056 73.1187 76.37 73.1187 74.844C73.1327 72.142 69.1707 72.884 69.1707 71.512C69.1707 70.98 69.6327 70.77 70.2627 70.77C70.9207 70.77 71.7467 71.022 72.4047 71.428L72.9927 70.238C72.3207 69.762 71.3267 69.482 70.3887 69.482ZM77.7908 69.496C75.5788 69.496 74.0388 71.036 74.0388 73.29C74.0388 75.53 75.5788 77.056 77.7908 77.056C79.2048 77.056 80.2828 76.552 80.9548 75.67L80.0588 74.774C79.5548 75.362 78.7988 75.67 77.8608 75.67C76.5728 75.67 75.6488 74.704 75.6488 73.29C75.6488 71.876 76.5728 70.91 77.8608 70.91C78.7568 70.896 79.4708 71.218 79.9888 71.75L80.8708 70.714C80.1848 69.93 79.1348 69.496 77.7908 69.496ZM84.2512 69.552H82.6412V77H84.2512V73.108C84.3772 71.834 85.3292 70.952 86.8272 71.036V69.496C85.6512 69.496 84.7552 70.028 84.2512 71.036V69.552ZM88.9489 66.444C88.4169 66.444 88.0109 66.85 88.0109 67.424C88.0109 67.984 88.4169 68.39 88.9489 68.39C89.4809 68.39 89.8869 67.984 89.8869 67.424C89.8869 66.85 89.4809 66.444 88.9489 66.444ZM89.7469 77V69.552H88.1509V77H89.7469ZM96.4135 69.496C95.2515 69.496 94.3555 69.972 93.8095 70.84V69.552H92.1995V79.716H93.8095V75.712C94.3555 76.58 95.2515 77.056 96.4415 77.056C98.5695 77.056 99.9695 75.53 99.9695 73.304C99.9695 71.036 98.5275 69.496 96.4135 69.496ZM96.0775 75.684C94.7475 75.684 93.8095 74.69 93.8095 73.248C93.8095 71.848 94.7475 70.84 96.0775 70.84C97.4075 70.84 98.3455 71.862 98.3455 73.248C98.3455 74.676 97.4075 75.684 96.0775 75.684ZM105.453 75.292C105.019 75.502 104.669 75.614 104.333 75.614C103.829 75.614 103.535 75.376 103.535 74.606V71.036H105.733V69.832H103.535V67.788H101.939V69.832H100.889V71.036H101.939V74.9C101.939 76.426 102.905 77.07 104.025 77.07C104.655 77.07 105.271 76.874 105.859 76.524L105.453 75.292ZM106.646 74.438V75.684L112.638 73.08V71.666L106.646 69.062V70.308L111.56 72.38L106.646 74.438Z" fill="#A58EFF"/>
<rect x="57" y="15" width="86" height="17" fill="#E4E7EE"/>
<rect x="57" y="38" width="132" height="17" fill="#E4E7EE"/>
<rect x="151" y="15" width="86" height="17" fill="#E4E7EE"/>
<rect x="201" y="38" width="132" height="17" fill="#E4E7EE"/>
<rect x="341" y="38" width="132" height="17" fill="#E4E7EE"/>
<rect x="481" y="38" width="132" height="17" fill="#E4E7EE"/>
<rect x="245" y="15" width="86" height="17" fill="#E4E7EE"/>
<rect x="339" y="15" width="86" height="17" fill="#E4E7EE"/>
<rect x="433" y="15" width="86" height="17" fill="#E4E7EE"/>
<rect x="527" y="15" width="86" height="17" fill="#E4E7EE"/>
<rect x="76.5" y="84.5" width="379" height="175" rx="3.5" fill="#F6F7FC"/>
<path d="M91.26 93.096H89.424V96.492C88.956 95.832 88.248 95.472 87.336 95.472C85.536 95.472 84.336 96.78 84.336 98.748C84.336 100.74 85.548 102.072 87.384 102.072C88.272 102.072 88.968 101.712 89.424 101.052V102H91.26V93.096ZM87.816 100.584C86.844 100.584 86.196 99.852 86.184 98.796C86.196 97.752 86.856 97.008 87.816 97.008C88.764 97.008 89.424 97.74 89.424 98.796C89.424 99.852 88.764 100.584 87.816 100.584ZM96.0188 95.484C93.9428 95.484 92.5508 96.792 92.5508 98.772C92.5508 100.74 93.9428 102.072 96.0188 102.072C98.0828 102.072 99.4748 100.74 99.4748 98.772C99.4748 96.792 98.0828 95.484 96.0188 95.484ZM96.0188 97.02C96.9668 97.02 97.6268 97.74 97.6268 98.796C97.6268 99.852 96.9668 100.572 96.0188 100.572C95.0588 100.572 94.4108 99.852 94.4108 98.796C94.4108 97.74 95.0588 97.02 96.0188 97.02ZM103.457 95.484C101.477 95.484 100.145 96.816 100.145 98.796C100.145 100.752 101.477 102.072 103.433 102.072C104.753 102.072 105.761 101.544 106.301 100.644L105.029 99.78C104.705 100.284 104.189 100.536 103.529 100.536C102.629 100.536 101.993 99.828 101.993 98.784C101.993 97.752 102.629 97.056 103.529 97.056C104.165 97.044 104.657 97.308 105.005 97.74L106.253 96.84C105.677 95.976 104.693 95.484 103.457 95.484ZM113.59 95.544H111.754V98.736C111.754 99.672 111.214 100.368 110.326 100.38C109.582 100.38 109.114 99.888 109.114 99.072V95.544H107.266V99.6C107.266 101.124 108.166 102.072 109.594 102.072C110.566 102.072 111.31 101.676 111.754 100.86V102H113.59V95.544ZM123.924 95.472C122.832 95.484 122.016 95.964 121.596 96.96C121.284 96.024 120.504 95.472 119.412 95.472C118.44 95.484 117.684 95.868 117.228 96.66V95.544H115.38V102H117.228V98.808C117.228 97.872 117.768 97.176 118.668 97.164C119.424 97.164 119.904 97.656 119.904 98.484V102H121.74V98.808C121.74 97.872 122.28 97.176 123.168 97.164C123.936 97.164 124.416 97.656 124.416 98.484V102H126.252V97.944C126.252 96.432 125.352 95.472 123.924 95.472ZM130.621 95.484C128.653 95.484 127.297 96.804 127.297 98.796C127.297 100.752 128.605 102.072 130.669 102.072C131.833 102.072 132.781 101.652 133.429 100.932L132.457 99.948C132.013 100.392 131.437 100.632 130.825 100.632C129.997 100.632 129.373 100.152 129.157 99.336H133.789C133.945 96.984 132.889 95.484 130.621 95.484ZM129.121 98.244C129.265 97.392 129.817 96.84 130.633 96.84C131.485 96.84 132.037 97.392 132.061 98.244H129.121ZM139.089 95.472C138.081 95.484 137.313 95.868 136.857 96.672V95.544H135.009V102H136.857V98.82C136.857 97.872 137.409 97.176 138.333 97.164C139.125 97.164 139.605 97.668 139.605 98.484V102H141.453V97.944C141.453 96.432 140.529 95.472 139.089 95.472ZM146.66 100.284C146.324 100.44 146.036 100.524 145.796 100.524C145.4 100.536 145.172 100.32 145.172 99.78V97.116H146.924V95.832H145.172V94.056H143.336V95.832H142.436V97.104H143.336V100.092C143.336 101.424 144.212 102.084 145.364 102.084C145.964 102.084 146.564 101.916 147.044 101.64L146.66 100.284ZM148.674 100.2C148.146 100.2 147.75 100.584 147.75 101.148C147.75 101.7 148.146 102.108 148.674 102.108C149.214 102.108 149.598 101.7 149.598 101.148C149.598 100.584 149.214 100.2 148.674 100.2ZM154.726 102H156.538L156.526 97.788C156.514 96.336 155.518 95.472 153.79 95.472C152.662 95.472 151.834 95.736 150.874 96.216L151.45 97.488C152.122 97.116 152.794 96.924 153.37 96.924C154.258 96.924 154.714 97.32 154.714 98.004V98.124H152.938C151.354 98.136 150.478 98.856 150.478 100.068C150.478 101.244 151.318 102.084 152.698 102.084C153.598 102.084 154.294 101.784 154.726 101.244V102ZM153.214 100.764C152.59 100.764 152.206 100.44 152.206 99.948C152.206 99.432 152.554 99.216 153.262 99.216H154.714V99.792C154.606 100.344 153.994 100.764 153.214 100.764ZM164.502 93.096H162.666V96.492C162.198 95.832 161.49 95.472 160.578 95.472C158.778 95.472 157.578 96.78 157.578 98.748C157.578 100.74 158.79 102.072 160.626 102.072C161.514 102.072 162.21 101.712 162.666 101.052V102H164.502V93.096ZM161.058 100.584C160.086 100.584 159.438 99.852 159.426 98.796C159.438 97.752 160.098 97.008 161.058 97.008C162.006 97.008 162.666 97.74 162.666 98.796C162.666 99.852 162.006 100.584 161.058 100.584ZM172.717 93.096H170.881V96.492C170.413 95.832 169.705 95.472 168.793 95.472C166.993 95.472 165.793 96.78 165.793 98.748C165.793 100.74 167.005 102.072 168.841 102.072C169.729 102.072 170.425 101.712 170.881 101.052V102H172.717V93.096ZM169.273 100.584C168.301 100.584 167.653 99.852 167.641 98.796C167.653 97.752 168.313 97.008 169.273 97.008C170.221 97.008 170.881 97.74 170.881 98.796C170.881 99.852 170.221 100.584 169.273 100.584ZM180.992 95.172V93.6H174.596V102H181.124V100.428H176.492V98.568H180.548V96.996H176.492V95.172H180.992ZM185.996 102L188.432 95.544H186.596L185.084 100.248L183.56 95.544L181.651 95.556L184.1 102H185.996ZM191.805 95.484C189.837 95.484 188.481 96.804 188.481 98.796C188.481 100.752 189.789 102.072 191.853 102.072C193.017 102.072 193.965 101.652 194.613 100.932L193.641 99.948C193.197 100.392 192.621 100.632 192.009 100.632C191.181 100.632 190.557 100.152 190.341 99.336H194.973C195.129 96.984 194.073 95.484 191.805 95.484ZM190.305 98.244C190.449 97.392 191.001 96.84 191.817 96.84C192.669 96.84 193.221 97.392 193.245 98.244H190.305ZM200.273 95.472C199.265 95.484 198.497 95.868 198.041 96.672V95.544H196.193V102H198.041V98.82C198.041 97.872 198.593 97.176 199.517 97.164C200.309 97.164 200.789 97.668 200.789 98.484V102H202.637V97.944C202.637 96.432 201.713 95.472 200.273 95.472ZM207.844 100.284C207.508 100.44 207.22 100.524 206.98 100.524C206.584 100.536 206.356 100.32 206.356 99.78V97.116H208.108V95.832H206.356V94.056H204.52V95.832H203.62V97.104H204.52V100.092C204.52 101.424 205.396 102.084 206.548 102.084C207.148 102.084 207.748 101.916 208.228 101.64L207.844 100.284ZM211.273 100.344V93.6H209.377V102H214.873V100.344H211.273ZM216.886 92.676C216.298 92.676 215.89 93.108 215.89 93.708C215.89 94.308 216.298 94.74 216.886 94.74C217.474 94.74 217.882 94.308 217.882 93.708C217.882 93.108 217.474 92.676 216.886 92.676ZM217.81 102V95.544H215.962V102H217.81ZM221.767 95.46C220.363 95.46 219.223 96.144 219.223 97.476C219.223 99.744 222.571 99.192 222.571 100.224C222.571 100.572 222.223 100.728 221.755 100.728C221.047 100.728 220.183 100.44 219.511 99.924L218.911 101.172C219.643 101.76 220.663 102.072 221.707 102.072C223.171 102.072 224.335 101.376 224.335 100.056C224.347 97.776 220.939 98.268 220.939 97.296C220.939 96.96 221.251 96.816 221.683 96.816C222.223 96.816 222.943 97.044 223.651 97.44L224.287 96.18C223.567 95.724 222.655 95.46 221.767 95.46ZM229.184 100.284C228.848 100.44 228.56 100.524 228.32 100.524C227.924 100.536 227.696 100.32 227.696 99.78V97.116H229.448V95.832H227.696V94.056H225.86V95.832H224.96V97.104H225.86V100.092C225.86 101.424 226.736 102.084 227.888 102.084C228.488 102.084 229.088 101.916 229.568 101.64L229.184 100.284ZM233.406 95.484C231.438 95.484 230.082 96.804 230.082 98.796C230.082 100.752 231.39 102.072 233.454 102.072C234.618 102.072 235.566 101.652 236.214 100.932L235.242 99.948C234.798 100.392 234.222 100.632 233.61 100.632C232.782 100.632 232.158 100.152 231.942 99.336H236.574C236.73 96.984 235.674 95.484 233.406 95.484ZM231.906 98.244C232.05 97.392 232.602 96.84 233.418 96.84C234.27 96.84 234.822 97.392 234.846 98.244H231.906ZM241.874 95.472C240.866 95.484 240.098 95.868 239.642 96.672V95.544H237.794V102H239.642V98.82C239.642 97.872 240.194 97.176 241.118 97.164C241.91 97.164 242.39 97.668 242.39 98.484V102H244.238V97.944C244.238 96.432 243.314 95.472 241.874 95.472ZM248.605 95.484C246.637 95.484 245.281 96.804 245.281 98.796C245.281 100.752 246.589 102.072 248.653 102.072C249.817 102.072 250.765 101.652 251.413 100.932L250.441 99.948C249.997 100.392 249.421 100.632 248.809 100.632C247.981 100.632 247.357 100.152 247.141 99.336H251.773C251.929 96.984 250.873 95.484 248.605 95.484ZM247.105 98.244C247.249 97.392 247.801 96.84 248.617 96.84C249.469 96.84 250.021 97.392 250.045 98.244H247.105ZM254.841 95.544H252.993V102H254.841V98.892C254.841 97.8 255.657 97.092 256.977 97.212V95.472C256.017 95.484 255.285 95.916 254.841 96.708V95.544ZM259.414 93.096C258.43 94.5 257.902 96.336 257.902 98.292C257.902 100.248 258.43 102.096 259.414 103.488H261.058C260.182 102.096 259.63 100.248 259.63 98.292C259.63 96.336 260.182 94.5 261.058 93.096H259.414ZM263.253 96.792V93.6H261.861V96.792H263.253ZM265.389 96.792V93.6H263.997V96.792H265.389ZM274.905 102L277.257 95.544H275.433L274.017 100.164L272.601 95.544H270.789L269.397 100.164L267.957 95.544L266.073 95.556L268.437 102H270.285L271.665 97.74L273.057 102H274.905ZM280.777 95.484C278.701 95.484 277.309 96.792 277.309 98.772C277.309 100.74 278.701 102.072 280.777 102.072C282.841 102.072 284.233 100.74 284.233 98.772C284.233 96.792 282.841 95.484 280.777 95.484ZM280.777 97.02C281.725 97.02 282.385 97.74 282.385 98.796C282.385 99.852 281.725 100.572 280.777 100.572C279.817 100.572 279.169 99.852 279.169 98.796C279.169 97.74 279.817 97.02 280.777 97.02ZM293.998 95.472C292.906 95.484 292.09 95.964 291.67 96.96C291.358 96.024 290.578 95.472 289.486 95.472C288.514 95.484 287.758 95.868 287.302 96.66V95.544H285.454V102H287.302V98.808C287.302 97.872 287.842 97.176 288.742 97.164C289.498 97.164 289.978 97.656 289.978 98.484V102H291.814V98.808C291.814 97.872 292.354 97.176 293.242 97.164C294.01 97.164 294.49 97.656 294.49 98.484V102H296.326V97.944C296.326 96.432 295.426 95.472 293.998 95.472ZM300.815 98.94V97.716H297.719V98.94H300.815ZM305.808 102L308.244 95.544H306.408L304.896 100.248L303.372 95.544L301.464 95.556L303.912 102H305.808ZM309.98 92.676C309.392 92.676 308.984 93.108 308.984 93.708C308.984 94.308 309.392 94.74 309.98 94.74C310.568 94.74 310.976 94.308 310.976 93.708C310.976 93.108 310.568 92.676 309.98 92.676ZM310.904 102V95.544H309.056V102H310.904ZM315.449 95.484C313.481 95.484 312.125 96.804 312.125 98.796C312.125 100.752 313.433 102.072 315.497 102.072C316.661 102.072 317.609 101.652 318.257 100.932L317.285 99.948C316.841 100.392 316.265 100.632 315.653 100.632C314.825 100.632 314.201 100.152 313.985 99.336H318.617C318.773 96.984 317.717 95.484 315.449 95.484ZM313.949 98.244C314.093 97.392 314.645 96.84 315.461 96.84C316.313 96.84 316.865 97.392 316.889 98.244H313.949ZM327.534 102L329.886 95.544H328.062L326.646 100.164L325.23 95.544H323.418L322.026 100.164L320.586 95.544L318.702 95.556L321.066 102H322.914L324.294 97.74L325.686 102H327.534ZM333.262 95.484C331.294 95.484 329.938 96.804 329.938 98.796C329.938 100.752 331.246 102.072 333.31 102.072C334.474 102.072 335.422 101.652 336.07 100.932L335.098 99.948C334.654 100.392 334.078 100.632 333.466 100.632C332.638 100.632 332.014 100.152 331.798 99.336H336.43C336.586 96.984 335.53 95.484 333.262 95.484ZM331.762 98.244C331.906 97.392 332.458 96.84 333.274 96.84C334.126 96.84 334.678 97.392 334.702 98.244H331.762ZM339.498 95.544H337.65V102H339.498V98.892C339.498 97.8 340.314 97.092 341.634 97.212V95.472C340.674 95.484 339.942 95.916 339.498 96.708V95.544ZM345.534 98.94V97.716H342.438V98.94H345.534ZM348.031 92.676C347.443 92.676 347.035 93.108 347.035 93.708C347.035 94.308 347.443 94.74 348.031 94.74C348.619 94.74 349.027 94.308 349.027 93.708C349.027 93.108 348.619 92.676 348.031 92.676ZM348.955 102V95.544H347.107V102H348.955ZM354.808 95.472C353.8 95.484 353.032 95.868 352.576 96.672V95.544H350.728V102H352.576V98.82C352.576 97.872 353.128 97.176 354.052 97.164C354.844 97.164 355.324 97.668 355.324 98.484V102H357.172V97.944C357.172 96.432 356.248 95.472 354.808 95.472ZM359.691 92.676C359.103 92.676 358.695 93.108 358.695 93.708C358.695 94.308 359.103 94.74 359.691 94.74C360.279 94.74 360.687 94.308 360.687 93.708C360.687 93.108 360.279 92.676 359.691 92.676ZM360.615 102V95.544H358.767V102H360.615ZM366 100.284C365.664 100.44 365.376 100.524 365.136 100.524C364.74 100.536 364.512 100.32 364.512 99.78V97.116H366.264V95.832H364.512V94.056H362.676V95.832H361.776V97.104H362.676V100.092C362.676 101.424 363.552 102.084 364.704 102.084C365.304 102.084 365.904 101.916 366.384 101.64L366 100.284ZM368.721 96.792V93.6H367.329V96.792H368.721ZM370.857 96.792V93.6H369.465V96.792H370.857ZM372.994 100.212C372.466 100.212 372.07 100.596 372.07 101.148C372.07 101.448 372.19 101.712 372.442 101.892L371.938 103.104H372.838L373.642 101.892C373.798 101.676 373.894 101.436 373.894 101.148C373.894 100.548 373.474 100.212 372.994 100.212ZM381.102 94.536C381.366 94.536 381.666 94.632 381.906 94.812L382.566 93.468C382.11 93.168 381.474 93.012 380.874 93.012C379.578 93.012 378.498 93.78 378.498 95.22V95.832H377.634V97.116H378.498V102H380.334V97.116H381.858V95.832H380.334V95.292C380.334 94.776 380.67 94.536 381.102 94.536ZM388.899 95.544H387.063V98.736C387.063 99.672 386.523 100.368 385.635 100.38C384.891 100.38 384.423 99.888 384.423 99.072V95.544H382.575V99.6C382.575 101.124 383.475 102.072 384.903 102.072C385.875 102.072 386.619 101.676 387.063 100.86V102H388.899V95.544ZM394.769 95.472C393.761 95.484 392.993 95.868 392.537 96.672V95.544H390.689V102H392.537V98.82C392.537 97.872 393.089 97.176 394.013 97.164C394.805 97.164 395.285 97.668 395.285 98.484V102H397.133V97.944C397.133 96.432 396.209 95.472 394.769 95.472ZM401.488 95.484C399.508 95.484 398.176 96.816 398.176 98.796C398.176 100.752 399.508 102.072 401.464 102.072C402.784 102.072 403.792 101.544 404.332 100.644L403.06 99.78C402.736 100.284 402.22 100.536 401.56 100.536C400.66 100.536 400.024 99.828 400.024 98.784C400.024 97.752 400.66 97.056 401.56 97.056C402.196 97.044 402.688 97.308 403.036 97.74L404.284 96.84C403.708 95.976 402.724 95.484 401.488 95.484ZM409.102 100.284C408.766 100.44 408.478 100.524 408.238 100.524C407.842 100.536 407.614 100.32 407.614 99.78V97.116H409.366V95.832H407.614V94.056H405.778V95.832H404.878V97.104H405.778V100.092C405.778 101.424 406.654 102.084 407.806 102.084C408.406 102.084 409.006 101.916 409.486 101.64L409.102 100.284ZM411.523 92.676C410.935 92.676 410.527 93.108 410.527 93.708C410.527 94.308 410.935 94.74 411.523 94.74C412.111 94.74 412.519 94.308 412.519 93.708C412.519 93.108 412.111 92.676 411.523 92.676ZM412.447 102V95.544H410.599V102H412.447ZM417.136 95.484C415.06 95.484 413.668 96.792 413.668 98.772C413.668 100.74 415.06 102.072 417.136 102.072C419.2 102.072 420.592 100.74 420.592 98.772C420.592 96.792 419.2 95.484 417.136 95.484ZM417.136 97.02C418.084 97.02 418.744 97.74 418.744 98.796C418.744 99.852 418.084 100.572 417.136 100.572C416.176 100.572 415.528 99.852 415.528 98.796C415.528 97.74 416.176 97.02 417.136 97.02ZM425.894 95.472C424.886 95.484 424.118 95.868 423.662 96.672V95.544H421.814V102H423.662V98.82C423.662 97.872 424.214 97.176 425.138 97.164C425.93 97.164 426.41 97.668 426.41 98.484V102H428.258V97.944C428.258 96.432 427.334 95.472 425.894 95.472ZM434.175 93.096C433.191 94.5 432.663 96.336 432.663 98.292C432.663 100.248 433.191 102.096 434.175 103.488H435.819C434.943 102.096 434.391 100.248 434.391 98.292C434.391 96.336 434.943 94.5 435.819 93.096H434.175ZM436.778 93.096C437.654 94.5 438.218 96.336 438.218 98.292C438.218 100.248 437.654 102.096 436.778 103.488H438.434C439.418 102.096 439.946 100.248 439.946 98.292C439.946 96.336 439.418 94.5 438.434 93.096H436.778ZM445.919 95.304C445.919 94.728 446.171 94.512 447.011 94.512V93.084H446.303C444.815 93.084 444.275 93.516 444.275 94.716V97.008C444.275 97.404 444.143 97.56 443.807 97.56H443.375V99.024H443.807C444.143 99.024 444.275 99.18 444.275 99.588V101.868C444.275 103.08 444.815 103.512 446.303 103.512H447.011V102.084C446.171 102.084 445.919 101.868 445.919 101.292V99.708C445.919 98.868 445.679 98.472 444.983 98.292C445.679 98.124 445.919 97.728 445.919 96.888V95.304Z" fill="#3333FF"/>
<path d="M142.163 126L144.515 119.544H142.691L141.275 124.164L139.859 119.544H138.047L136.655 124.164L135.215 119.544L133.331 119.556L135.695 126H137.543L138.923 121.74L140.315 126H142.163ZM146.253 116.676C145.665 116.676 145.257 117.108 145.257 117.708C145.257 118.308 145.665 118.74 146.253 118.74C146.841 118.74 147.249 118.308 147.249 117.708C147.249 117.108 146.841 116.676 146.253 116.676ZM147.177 126V119.544H145.329V126H147.177ZM153.031 119.472C152.023 119.484 151.255 119.868 150.799 120.672V119.544H148.951V126H150.799V122.82C150.799 121.872 151.351 121.176 152.275 121.164C153.067 121.164 153.547 121.668 153.547 122.484V126H155.395V121.944C155.395 120.432 154.471 119.472 153.031 119.472ZM163.362 117.096H161.526V120.492C161.058 119.832 160.35 119.472 159.438 119.472C157.638 119.472 156.438 120.78 156.438 122.748C156.438 124.74 157.65 126.072 159.486 126.072C160.374 126.072 161.07 125.712 161.526 125.052V126H163.362V117.096ZM159.918 124.584C158.946 124.584 158.298 123.852 158.286 122.796C158.298 121.752 158.958 121.008 159.918 121.008C160.866 121.008 161.526 121.74 161.526 122.796C161.526 123.852 160.866 124.584 159.918 124.584ZM168.12 119.484C166.044 119.484 164.652 120.792 164.652 122.772C164.652 124.74 166.044 126.072 168.12 126.072C170.184 126.072 171.576 124.74 171.576 122.772C171.576 120.792 170.184 119.484 168.12 119.484ZM168.12 121.02C169.068 121.02 169.728 121.74 169.728 122.796C169.728 123.852 169.068 124.572 168.12 124.572C167.16 124.572 166.512 123.852 166.512 122.796C166.512 121.74 167.16 121.02 168.12 121.02ZM180.495 126L182.847 119.544H181.023L179.607 124.164L178.191 119.544H176.379L174.987 124.164L173.547 119.544L171.663 119.556L174.027 126H175.875L177.255 121.74L178.647 126H180.495ZM183.849 124.2C183.321 124.2 182.925 124.584 182.925 125.148C182.925 125.7 183.321 126.108 183.849 126.108C184.389 126.108 184.773 125.7 184.773 125.148C184.773 124.584 184.389 124.2 183.849 124.2ZM194.066 126L196.418 119.544H194.594L193.178 124.164L191.762 119.544H189.95L188.558 124.164L187.118 119.544L185.234 119.556L187.598 126H189.446L190.826 121.74L192.218 126H194.066ZM199.937 119.484C197.861 119.484 196.469 120.792 196.469 122.772C196.469 124.74 197.861 126.072 199.937 126.072C202.001 126.072 203.393 124.74 203.393 122.772C203.393 120.792 202.001 119.484 199.937 119.484ZM199.937 121.02C200.885 121.02 201.545 121.74 201.545 122.796C201.545 123.852 200.885 124.572 199.937 124.572C198.977 124.572 198.329 123.852 198.329 122.796C198.329 121.74 198.977 121.02 199.937 121.02ZM213.159 119.472C212.067 119.484 211.251 119.964 210.831 120.96C210.519 120.024 209.739 119.472 208.647 119.472C207.675 119.484 206.919 119.868 206.463 120.66V119.544H204.615V126H206.463V122.808C206.463 121.872 207.003 121.176 207.903 121.164C208.659 121.164 209.139 121.656 209.139 122.484V126H210.975V122.808C210.975 121.872 211.515 121.176 212.403 121.164C213.171 121.164 213.651 121.656 213.651 122.484V126H215.487V121.944C215.487 120.432 214.587 119.472 213.159 119.472ZM217.599 124.2C217.071 124.2 216.675 124.584 216.675 125.148C216.675 125.7 217.071 126.108 217.599 126.108C218.139 126.108 218.523 125.7 218.523 125.148C218.523 124.584 218.139 124.2 217.599 124.2ZM220.832 116.676C220.244 116.676 219.836 117.108 219.836 117.708C219.836 118.308 220.244 118.74 220.832 118.74C221.42 118.74 221.828 118.308 221.828 117.708C221.828 117.108 221.42 116.676 220.832 116.676ZM221.756 126V119.544H219.908V126H221.756ZM227.609 119.472C226.601 119.484 225.833 119.868 225.377 120.672V119.544H223.529V126H225.377V122.82C225.377 121.872 225.929 121.176 226.853 121.164C227.645 121.164 228.125 121.668 228.125 122.484V126H229.973V121.944C229.973 120.432 229.049 119.472 227.609 119.472ZM232.492 116.676C231.904 116.676 231.496 117.108 231.496 117.708C231.496 118.308 231.904 118.74 232.492 118.74C233.08 118.74 233.488 118.308 233.488 117.708C233.488 117.108 233.08 116.676 232.492 116.676ZM233.416 126V119.544H231.568V126H233.416ZM238.801 124.284C238.465 124.44 238.177 124.524 237.937 124.524C237.541 124.536 237.313 124.32 237.313 123.78V121.116H239.065V119.832H237.313V118.056H235.477V119.832H234.577V121.104H235.477V124.092C235.477 125.424 236.353 126.084 237.505 126.084C238.105 126.084 238.705 125.916 239.185 125.64L238.801 124.284ZM241.726 117.096C240.742 118.5 240.214 120.336 240.214 122.292C240.214 124.248 240.742 126.096 241.726 127.488H243.37C242.494 126.096 241.942 124.248 241.942 122.292C241.942 120.336 242.494 118.5 243.37 117.096H241.726ZM246.333 119.304C246.333 118.728 246.585 118.512 247.425 118.512V117.084H246.717C245.229 117.084 244.689 117.516 244.689 118.716V121.008C244.689 121.404 244.557 121.56 244.221 121.56H243.789V123.024H244.221C244.557 123.024 244.689 123.18 244.689 123.588V125.868C244.689 127.08 245.229 127.512 246.717 127.512H247.425V126.084C246.585 126.084 246.333 125.868 246.333 125.292V123.708C246.333 122.868 246.093 122.472 245.397 122.292C246.093 122.124 246.333 121.728 246.333 120.888V119.304Z" fill="#3333FF"/>
<path d="M174.96 143.484C172.884 143.484 171.492 144.792 171.492 146.772C171.492 148.74 172.884 150.072 174.96 150.072C177.024 150.072 178.416 148.74 178.416 146.772C178.416 144.792 177.024 143.484 174.96 143.484ZM174.96 145.02C175.908 145.02 176.568 145.74 176.568 146.796C176.568 147.852 175.908 148.572 174.96 148.572C174 148.572 173.352 147.852 173.352 146.796C173.352 145.74 174 145.02 174.96 145.02ZM181.486 143.544H179.638V150H181.486V146.892C181.486 145.8 182.302 145.092 183.622 145.212V143.472C182.662 143.484 181.93 143.916 181.486 144.708V143.544ZM190.678 143.544H188.842V144.42C188.398 143.82 187.726 143.472 186.85 143.484C185.206 143.484 184.078 144.72 184.078 146.544C184.078 148.416 185.23 149.664 186.898 149.664C187.75 149.664 188.41 149.328 188.842 148.728V149.46C188.842 150.336 188.17 150.9 187.114 150.9C186.382 150.9 185.698 150.672 185.11 150.252L184.426 151.548C185.17 152.052 186.142 152.4 187.234 152.4C189.298 152.4 190.678 151.236 190.678 149.4V143.544ZM187.33 148.26C186.418 148.26 185.818 147.576 185.806 146.592C185.818 145.608 186.43 144.912 187.33 144.912C188.23 144.912 188.842 145.596 188.842 146.592C188.842 147.576 188.23 148.26 187.33 148.26ZM196.109 150H197.921L197.909 145.788C197.897 144.336 196.901 143.472 195.173 143.472C194.045 143.472 193.217 143.736 192.257 144.216L192.833 145.488C193.505 145.116 194.177 144.924 194.753 144.924C195.641 144.924 196.097 145.32 196.097 146.004V146.124H194.321C192.737 146.136 191.861 146.856 191.861 148.068C191.861 149.244 192.701 150.084 194.081 150.084C194.981 150.084 195.677 149.784 196.109 149.244V150ZM194.597 148.764C193.973 148.764 193.589 148.44 193.589 147.948C193.589 147.432 193.937 147.216 194.645 147.216H196.097V147.792C195.989 148.344 195.377 148.764 194.597 148.764ZM203.593 143.472C202.585 143.484 201.817 143.868 201.361 144.672V143.544H199.513V150H201.361V146.82C201.361 145.872 201.913 145.176 202.837 145.164C203.629 145.164 204.109 145.668 204.109 146.484V150H205.957V145.944C205.957 144.432 205.033 143.472 203.593 143.472ZM208.476 140.676C207.888 140.676 207.48 141.108 207.48 141.708C207.48 142.308 207.888 142.74 208.476 142.74C209.064 142.74 209.472 142.308 209.472 141.708C209.472 141.108 209.064 140.676 208.476 140.676ZM209.4 150V143.544H207.552V150H209.4ZM216.369 144.72V143.556H210.861V144.996L214.065 145.008L210.741 148.836V150L216.477 150.012V148.548H213.045L216.369 144.72ZM221.421 150H223.233L223.221 145.788C223.209 144.336 222.213 143.472 220.485 143.472C219.357 143.472 218.529 143.736 217.569 144.216L218.145 145.488C218.817 145.116 219.489 144.924 220.065 144.924C220.953 144.924 221.409 145.32 221.409 146.004V146.124H219.633C218.049 146.136 217.173 146.856 217.173 148.068C217.173 149.244 218.013 150.084 219.393 150.084C220.293 150.084 220.989 149.784 221.421 149.244V150ZM219.909 148.764C219.285 148.764 218.901 148.44 218.901 147.948C218.901 147.432 219.249 147.216 219.957 147.216H221.409V147.792C221.301 148.344 220.689 148.764 219.909 148.764ZM228.438 148.284C228.102 148.44 227.814 148.524 227.574 148.524C227.178 148.536 226.95 148.32 226.95 147.78V145.116H228.702V143.832H226.95V142.056H225.114V143.832H224.214V145.104H225.114V148.092C225.114 149.424 225.99 150.084 227.142 150.084C227.742 150.084 228.342 149.916 228.822 149.64L228.438 148.284ZM230.859 140.676C230.271 140.676 229.863 141.108 229.863 141.708C229.863 142.308 230.271 142.74 230.859 142.74C231.447 142.74 231.855 142.308 231.855 141.708C231.855 141.108 231.447 140.676 230.859 140.676ZM231.783 150V143.544H229.935V150H231.783ZM236.472 143.484C234.396 143.484 233.004 144.792 233.004 146.772C233.004 148.74 234.396 150.072 236.472 150.072C238.536 150.072 239.928 148.74 239.928 146.772C239.928 144.792 238.536 143.484 236.472 143.484ZM236.472 145.02C237.42 145.02 238.08 145.74 238.08 146.796C238.08 147.852 237.42 148.572 236.472 148.572C235.512 148.572 234.864 147.852 234.864 146.796C234.864 145.74 235.512 145.02 236.472 145.02ZM245.23 143.472C244.222 143.484 243.454 143.868 242.998 144.672V143.544H241.15V150H242.998V146.82C242.998 145.872 243.55 145.176 244.474 145.164C245.266 145.164 245.746 145.668 245.746 146.484V150H247.594V145.944C247.594 144.432 246.67 143.472 245.23 143.472ZM249.225 141.6V150H251.121V147.6H252.789C254.925 147.6 256.149 146.472 256.149 144.516C256.149 142.656 254.925 141.6 252.789 141.6H249.225ZM251.121 143.172H252.693C253.749 143.172 254.349 143.64 254.349 144.576C254.349 145.536 253.749 146.016 252.693 146.016H251.121V143.172ZM263.454 143.544H261.618V146.736C261.618 147.672 261.078 148.368 260.19 148.38C259.446 148.38 258.978 147.888 258.978 147.072V143.544H257.13V147.6C257.13 149.124 258.03 150.072 259.458 150.072C260.43 150.072 261.174 149.676 261.618 148.86V150H263.454V143.544ZM269.191 143.484C268.315 143.484 267.607 143.844 267.151 144.492V141.096H265.303V150H267.151V149.064C267.619 149.712 268.327 150.072 269.227 150.072C271.039 150.072 272.227 148.764 272.227 146.808C272.227 144.816 271.003 143.484 269.191 143.484ZM268.759 148.536C267.811 148.536 267.151 147.816 267.151 146.748C267.151 145.704 267.811 144.972 268.759 144.972C269.707 144.972 270.355 145.716 270.355 146.748C270.355 147.804 269.707 148.536 268.759 148.536ZM275.343 150V141.096H273.495V150H275.343ZM278.121 140.676C277.533 140.676 277.125 141.108 277.125 141.708C277.125 142.308 277.533 142.74 278.121 142.74C278.709 142.74 279.117 142.308 279.117 141.708C279.117 141.108 278.709 140.676 278.121 140.676ZM279.045 150V143.544H277.197V150H279.045ZM283.578 143.484C281.598 143.484 280.266 144.816 280.266 146.796C280.266 148.752 281.598 150.072 283.554 150.072C284.874 150.072 285.882 149.544 286.422 148.644L285.15 147.78C284.826 148.284 284.31 148.536 283.65 148.536C282.75 148.536 282.114 147.828 282.114 146.784C282.114 145.752 282.75 145.056 283.65 145.056C284.286 145.044 284.778 145.308 285.126 145.74L286.374 144.84C285.798 143.976 284.814 143.484 283.578 143.484ZM289.511 150V141.6H287.615V150H289.511ZM297.713 141.096H295.877V144.492C295.409 143.832 294.701 143.472 293.789 143.472C291.989 143.472 290.789 144.78 290.789 146.748C290.789 148.74 292.001 150.072 293.837 150.072C294.725 150.072 295.421 149.712 295.877 149.052V150H297.713V141.096ZM294.269 148.584C293.297 148.584 292.649 147.852 292.637 146.796C292.649 145.752 293.309 145.008 294.269 145.008C295.217 145.008 295.877 145.74 295.877 146.796C295.877 147.852 295.217 148.584 294.269 148.584ZM300.072 144.636C299.544 144.636 299.148 145.02 299.148 145.584C299.148 146.136 299.544 146.544 300.072 146.544C300.612 146.544 300.996 146.136 300.996 145.584C300.996 145.02 300.612 144.636 300.072 144.636ZM300.072 148.2C299.544 148.2 299.148 148.584 299.148 149.148C299.148 149.7 299.544 150.108 300.072 150.108C300.612 150.108 300.996 149.7 300.996 149.148C300.996 148.584 300.612 148.2 300.072 148.2ZM305.756 148.212C305.228 148.212 304.832 148.596 304.832 149.148C304.832 149.448 304.952 149.712 305.204 149.892L304.7 151.104H305.6L306.404 149.892C306.56 149.676 306.656 149.436 306.656 149.148C306.656 148.548 306.236 148.212 305.756 148.212Z" fill="#3333FF"/>
<rect x="303.5" y="134.5" width="98" height="22" rx="3.5" fill="white"/>
<rect x="303.5" y="134.5" width="98" height="22" rx="3.5" stroke="#CCCCFD"/>
<path d="M405.416 149.212C404.888 149.212 404.492 149.596 404.492 150.148C404.492 150.448 404.612 150.712 404.864 150.892L404.36 152.104H405.26L406.064 150.892C406.22 150.676 406.316 150.436 406.316 150.148C406.316 149.548 405.896 149.212 405.416 149.212Z" fill="#3333FF"/>
<rect x="291.5" y="186.5" width="98" height="22" rx="3.5" fill="white"/>
<rect x="291.5" y="186.5" width="98" height="22" rx="3.5" stroke="#CCCCFD"/>
<path d="M176.072 168.46C174.668 168.46 173.528 169.144 173.528 170.476C173.528 172.744 176.876 172.192 176.876 173.224C176.876 173.572 176.528 173.728 176.06 173.728C175.352 173.728 174.488 173.44 173.816 172.924L173.216 174.172C173.948 174.76 174.968 175.072 176.012 175.072C177.476 175.072 178.64 174.376 178.64 173.056C178.652 170.776 175.244 171.268 175.244 170.296C175.244 169.96 175.556 169.816 175.988 169.816C176.528 169.816 177.248 170.044 177.956 170.44L178.592 169.18C177.872 168.724 176.96 168.46 176.072 168.46ZM182.648 168.484C180.68 168.484 179.324 169.804 179.324 171.796C179.324 173.752 180.632 175.072 182.696 175.072C183.86 175.072 184.808 174.652 185.456 173.932L184.484 172.948C184.04 173.392 183.464 173.632 182.852 173.632C182.024 173.632 181.4 173.152 181.184 172.336H185.816C185.972 169.984 184.916 168.484 182.648 168.484ZM181.148 171.244C181.292 170.392 181.844 169.84 182.66 169.84C183.512 169.84 184.064 170.392 184.088 171.244H181.148ZM188.944 175V166.096H187.096V175H188.944ZM193.57 168.484C191.602 168.484 190.246 169.804 190.246 171.796C190.246 173.752 191.554 175.072 193.618 175.072C194.782 175.072 195.73 174.652 196.378 173.932L195.406 172.948C194.962 173.392 194.386 173.632 193.774 173.632C192.946 173.632 192.322 173.152 192.106 172.336H196.738C196.894 169.984 195.838 168.484 193.57 168.484ZM192.07 171.244C192.214 170.392 192.766 169.84 193.582 169.84C194.434 169.84 194.986 170.392 195.01 171.244H192.07ZM200.718 168.484C198.738 168.484 197.406 169.816 197.406 171.796C197.406 173.752 198.738 175.072 200.694 175.072C202.014 175.072 203.022 174.544 203.562 173.644L202.29 172.78C201.966 173.284 201.45 173.536 200.79 173.536C199.89 173.536 199.254 172.828 199.254 171.784C199.254 170.752 199.89 170.056 200.79 170.056C201.426 170.044 201.918 170.308 202.266 170.74L203.514 169.84C202.938 168.976 201.954 168.484 200.718 168.484ZM208.332 173.284C207.996 173.44 207.708 173.524 207.468 173.524C207.072 173.536 206.844 173.32 206.844 172.78V170.116H208.596V168.832H206.844V167.056H205.008V168.832H204.108V170.104H205.008V173.092C205.008 174.424 205.884 175.084 207.036 175.084C207.636 175.084 208.236 174.916 208.716 174.64L208.332 173.284ZM212.699 168.484C210.623 168.484 209.231 169.792 209.231 171.772C209.231 173.74 210.623 175.072 212.699 175.072C214.763 175.072 216.155 173.74 216.155 171.772C216.155 169.792 214.763 168.484 212.699 168.484ZM212.699 170.02C213.647 170.02 214.307 170.74 214.307 171.796C214.307 172.852 213.647 173.572 212.699 173.572C211.739 173.572 211.091 172.852 211.091 171.796C211.091 170.74 211.739 170.02 212.699 170.02ZM219.224 168.544H217.376V175H219.224V171.892C219.224 170.8 220.04 170.092 221.36 170.212V168.472C220.4 168.484 219.668 168.916 219.224 169.708V168.544ZM222.884 169.636C222.356 169.636 221.96 170.02 221.96 170.584C221.96 171.136 222.356 171.544 222.884 171.544C223.424 171.544 223.808 171.136 223.808 170.584C223.808 170.02 223.424 169.636 222.884 169.636ZM222.884 173.2C222.356 173.2 221.96 173.584 221.96 174.148C221.96 174.7 222.356 175.108 222.884 175.108C223.424 175.108 223.808 174.7 223.808 174.148C223.808 173.584 223.424 173.2 222.884 173.2ZM229.264 169.792V166.6H227.872V169.792H229.264ZM231.4 169.792V166.6H230.008V169.792H231.4ZM238.865 169.936H240.533L240.665 168.604H239.033L239.285 166.6H237.941L237.689 168.604H235.865L236.117 166.6H234.785L234.533 168.604H232.889L232.745 169.936H234.365L234.149 171.748H232.493L232.349 173.08H233.981L233.741 175H235.085L235.325 173.08H237.149L236.909 175H238.241L238.481 173.08H240.125L240.269 171.748H238.649L238.865 169.936ZM237.533 169.936L237.305 171.748H235.481L235.709 169.936H237.533ZM249.706 175L252.058 168.544H250.234L248.818 173.164L247.402 168.544H245.59L244.198 173.164L242.758 168.544L240.874 168.556L243.238 175H245.086L246.466 170.74L247.858 175H249.706ZM255.577 168.484C253.501 168.484 252.109 169.792 252.109 171.772C252.109 173.74 253.501 175.072 255.577 175.072C257.641 175.072 259.033 173.74 259.033 171.772C259.033 169.792 257.641 168.484 255.577 168.484ZM255.577 170.02C256.525 170.02 257.185 170.74 257.185 171.796C257.185 172.852 256.525 173.572 255.577 173.572C254.617 173.572 253.969 172.852 253.969 171.796C253.969 170.74 254.617 170.02 255.577 170.02ZM268.799 168.472C267.707 168.484 266.891 168.964 266.471 169.96C266.159 169.024 265.379 168.472 264.287 168.472C263.315 168.484 262.559 168.868 262.103 169.66V168.544H260.255V175H262.103V171.808C262.103 170.872 262.643 170.176 263.543 170.164C264.299 170.164 264.779 170.656 264.779 171.484V175H266.615V171.808C266.615 170.872 267.155 170.176 268.043 170.164C268.811 170.164 269.291 170.656 269.291 171.484V175H271.127V170.944C271.127 169.432 270.227 168.472 268.799 168.472ZM275.616 171.94V170.716H272.52V171.94H275.616ZM280.609 175L283.045 168.544H281.209L279.697 173.248L278.173 168.544L276.265 168.556L278.713 175H280.609ZM284.781 165.676C284.193 165.676 283.785 166.108 283.785 166.708C283.785 167.308 284.193 167.74 284.781 167.74C285.369 167.74 285.777 167.308 285.777 166.708C285.777 166.108 285.369 165.676 284.781 165.676ZM285.705 175V168.544H283.857V175H285.705ZM290.25 168.484C288.282 168.484 286.926 169.804 286.926 171.796C286.926 173.752 288.234 175.072 290.298 175.072C291.462 175.072 292.41 174.652 293.058 173.932L292.086 172.948C291.642 173.392 291.066 173.632 290.454 173.632C289.626 173.632 289.002 173.152 288.786 172.336H293.418C293.574 169.984 292.518 168.484 290.25 168.484ZM288.75 171.244C288.894 170.392 289.446 169.84 290.262 169.84C291.114 169.84 291.666 170.392 291.69 171.244H288.75ZM302.335 175L304.687 168.544H302.863L301.447 173.164L300.031 168.544H298.219L296.827 173.164L295.387 168.544L293.503 168.556L295.867 175H297.715L299.095 170.74L300.487 175H302.335ZM308.062 168.484C306.094 168.484 304.738 169.804 304.738 171.796C304.738 173.752 306.046 175.072 308.11 175.072C309.274 175.072 310.222 174.652 310.87 173.932L309.898 172.948C309.454 173.392 308.878 173.632 308.266 173.632C307.438 173.632 306.814 173.152 306.598 172.336H311.23C311.386 169.984 310.33 168.484 308.062 168.484ZM306.562 171.244C306.706 170.392 307.258 169.84 308.074 169.84C308.926 169.84 309.478 170.392 309.502 171.244H306.562ZM314.299 168.544H312.451V175H314.299V171.892C314.299 170.8 315.115 170.092 316.435 170.212V168.472C315.475 168.484 314.743 168.916 314.299 169.708V168.544ZM320.335 171.94V170.716H317.239V171.94H320.335ZM325.856 168.484C324.98 168.484 324.272 168.844 323.816 169.492V168.544H321.968V177.328H323.816V174.064C324.284 174.712 324.992 175.072 325.892 175.072C327.704 175.072 328.892 173.764 328.892 171.808C328.892 169.816 327.668 168.484 325.856 168.484ZM325.424 173.536C324.476 173.536 323.816 172.816 323.816 171.748C323.816 170.704 324.476 169.972 325.424 169.972C326.372 169.972 327.02 170.716 327.02 171.748C327.02 172.804 326.372 173.536 325.424 173.536ZM332.019 175V166.096H330.171V175H332.019ZM340.004 168.544H338.168V171.736C338.168 172.672 337.628 173.368 336.74 173.38C335.996 173.38 335.528 172.888 335.528 172.072V168.544H333.68V172.6C333.68 174.124 334.58 175.072 336.008 175.072C336.98 175.072 337.724 174.676 338.168 173.86V175H340.004V168.544ZM347.842 168.544H346.006V169.42C345.562 168.82 344.89 168.472 344.014 168.484C342.37 168.484 341.242 169.72 341.242 171.544C341.242 173.416 342.394 174.664 344.062 174.664C344.914 174.664 345.574 174.328 346.006 173.728V174.46C346.006 175.336 345.334 175.9 344.278 175.9C343.546 175.9 342.862 175.672 342.274 175.252L341.59 176.548C342.334 177.052 343.306 177.4 344.398 177.4C346.462 177.4 347.842 176.236 347.842 174.4V168.544ZM344.494 173.26C343.582 173.26 342.982 172.576 342.97 171.592C342.982 170.608 343.594 169.912 344.494 169.912C345.394 169.912 346.006 170.596 346.006 171.592C346.006 172.576 345.394 173.26 344.494 173.26ZM350.453 165.676C349.865 165.676 349.457 166.108 349.457 166.708C349.457 167.308 349.865 167.74 350.453 167.74C351.041 167.74 351.449 167.308 351.449 166.708C351.449 166.108 351.041 165.676 350.453 165.676ZM351.377 175V168.544H349.529V175H351.377ZM357.23 168.472C356.222 168.484 355.454 168.868 354.998 169.672V168.544H353.15V175H354.998V171.82C354.998 170.872 355.55 170.176 356.474 170.164C357.266 170.164 357.746 170.668 357.746 171.484V175H359.594V170.944C359.594 169.432 358.67 168.472 357.23 168.472ZM362.413 169.792V166.6H361.021V169.792H362.413ZM364.549 169.792V166.6H363.157V169.792H364.549ZM366.686 173.212C366.158 173.212 365.762 173.596 365.762 174.148C365.762 174.448 365.882 174.712 366.134 174.892L365.63 176.104H366.53L367.334 174.892C367.49 174.676 367.586 174.436 367.586 174.148C367.586 173.548 367.166 173.212 366.686 173.212Z" fill="#3333FF"/>
<path d="M175.736 193.544H173.888V200H175.736V196.892C175.736 195.8 176.552 195.092 177.872 195.212V193.472C176.912 193.484 176.18 193.916 175.736 194.708V193.544ZM181.652 193.484C179.684 193.484 178.328 194.804 178.328 196.796C178.328 198.752 179.636 200.072 181.7 200.072C182.864 200.072 183.812 199.652 184.46 198.932L183.488 197.948C183.044 198.392 182.468 198.632 181.856 198.632C181.028 198.632 180.404 198.152 180.188 197.336H184.82C184.976 194.984 183.92 193.484 181.652 193.484ZM180.152 196.244C180.296 195.392 180.848 194.84 181.664 194.84C182.516 194.84 183.068 195.392 183.092 196.244H180.152ZM194.584 193.472C193.492 193.484 192.676 193.964 192.256 194.96C191.944 194.024 191.164 193.472 190.072 193.472C189.1 193.484 188.344 193.868 187.888 194.66V193.544H186.04V200H187.888V196.808C187.888 195.872 188.428 195.176 189.328 195.164C190.084 195.164 190.564 195.656 190.564 196.484V200H192.4V196.808C192.4 195.872 192.94 195.176 193.828 195.164C194.596 195.164 195.076 195.656 195.076 196.484V200H196.912V195.944C196.912 194.432 196.012 193.472 194.584 193.472ZM201.425 193.484C199.349 193.484 197.957 194.792 197.957 196.772C197.957 198.74 199.349 200.072 201.425 200.072C203.489 200.072 204.881 198.74 204.881 196.772C204.881 194.792 203.489 193.484 201.425 193.484ZM201.425 195.02C202.373 195.02 203.033 195.74 203.033 196.796C203.033 197.852 202.373 198.572 201.425 198.572C200.465 198.572 199.817 197.852 199.817 196.796C199.817 195.74 200.465 195.02 201.425 195.02ZM209.715 198.284C209.379 198.44 209.091 198.524 208.851 198.524C208.455 198.536 208.227 198.32 208.227 197.78V195.116H209.979V193.832H208.227V192.056H206.391V193.832H205.491V195.104H206.391V198.092C206.391 199.424 207.267 200.084 208.419 200.084C209.019 200.084 209.619 199.916 210.099 199.64L209.715 198.284ZM213.937 193.484C211.969 193.484 210.613 194.804 210.613 196.796C210.613 198.752 211.921 200.072 213.985 200.072C215.149 200.072 216.097 199.652 216.745 198.932L215.773 197.948C215.329 198.392 214.753 198.632 214.141 198.632C213.313 198.632 212.689 198.152 212.473 197.336H217.105C217.261 194.984 216.205 193.484 213.937 193.484ZM212.437 196.244C212.581 195.392 213.133 194.84 213.949 194.84C214.801 194.84 215.353 195.392 215.377 196.244H212.437ZM218.362 191.6V200H220.258V197.6H221.926C224.062 197.6 225.286 196.472 225.286 194.516C225.286 192.656 224.062 191.6 221.926 191.6H218.362ZM220.258 193.172H221.83C222.886 193.172 223.486 193.64 223.486 194.576C223.486 195.536 222.886 196.016 221.83 196.016H220.258V193.172ZM228.306 193.544H226.458V200H228.306V196.892C228.306 195.8 229.122 195.092 230.442 195.212V193.472C229.482 193.484 228.75 193.916 228.306 194.708V193.544ZM234.367 193.484C232.291 193.484 230.899 194.792 230.899 196.772C230.899 198.74 232.291 200.072 234.367 200.072C236.431 200.072 237.823 198.74 237.823 196.772C237.823 194.792 236.431 193.484 234.367 193.484ZM234.367 195.02C235.315 195.02 235.975 195.74 235.975 196.796C235.975 197.852 235.315 198.572 234.367 198.572C233.407 198.572 232.759 197.852 232.759 196.796C232.759 195.74 233.407 195.02 234.367 195.02ZM245.416 191.096H243.58V194.492C243.112 193.832 242.404 193.472 241.492 193.472C239.692 193.472 238.492 194.78 238.492 196.748C238.492 198.74 239.704 200.072 241.54 200.072C242.428 200.072 243.124 199.712 243.58 199.052V200H245.416V191.096ZM241.972 198.584C241 198.584 240.352 197.852 240.34 196.796C240.352 195.752 241.012 195.008 241.972 195.008C242.92 195.008 243.58 195.74 243.58 196.796C243.58 197.852 242.92 198.584 241.972 198.584ZM253.391 193.544H251.555V196.736C251.555 197.672 251.015 198.368 250.127 198.38C249.383 198.38 248.915 197.888 248.915 197.072V193.544H247.067V197.6C247.067 199.124 247.967 200.072 249.395 200.072C250.367 200.072 251.111 199.676 251.555 198.86V200H253.391V193.544ZM257.941 193.484C255.961 193.484 254.629 194.816 254.629 196.796C254.629 198.752 255.961 200.072 257.917 200.072C259.237 200.072 260.245 199.544 260.785 198.644L259.513 197.78C259.189 198.284 258.673 198.536 258.013 198.536C257.113 198.536 256.477 197.828 256.477 196.784C256.477 195.752 257.113 195.056 258.013 195.056C258.649 195.044 259.141 195.308 259.489 195.74L260.737 194.84C260.161 193.976 259.177 193.484 257.941 193.484ZM265.555 198.284C265.219 198.44 264.931 198.524 264.691 198.524C264.295 198.536 264.067 198.32 264.067 197.78V195.116H265.819V193.832H264.067V192.056H262.231V193.832H261.331V195.104H262.231V198.092C262.231 199.424 263.107 200.084 264.259 200.084C264.859 200.084 265.459 199.916 265.939 199.64L265.555 198.284ZM268.984 200V191.6H267.088V200H268.984ZM277.186 191.096H275.35V194.492C274.882 193.832 274.174 193.472 273.262 193.472C271.462 193.472 270.262 194.78 270.262 196.748C270.262 198.74 271.474 200.072 273.31 200.072C274.198 200.072 274.894 199.712 275.35 199.052V200H277.186V191.096ZM273.742 198.584C272.77 198.584 272.122 197.852 272.11 196.796C272.122 195.752 272.782 195.008 273.742 195.008C274.69 195.008 275.35 195.74 275.35 196.796C275.35 197.852 274.69 198.584 273.742 198.584ZM279.545 194.636C279.017 194.636 278.621 195.02 278.621 195.584C278.621 196.136 279.017 196.544 279.545 196.544C280.085 196.544 280.469 196.136 280.469 195.584C280.469 195.02 280.085 194.636 279.545 194.636ZM279.545 198.2C279.017 198.2 278.621 198.584 278.621 199.148C278.621 199.7 279.017 200.108 279.545 200.108C280.085 200.108 280.469 199.7 280.469 199.148C280.469 198.584 280.085 198.2 279.545 198.2ZM285.925 194.792V191.6H284.533V194.792H285.925ZM288.061 194.792V191.6H286.669V194.792H288.061Z" fill="#3333FF"/>
<path d="M394.112 194.792V191.6H392.72V194.792H394.112ZM396.248 194.792V191.6H394.856V194.792H396.248ZM398.385 198.212C397.857 198.212 397.461 198.596 397.461 199.148C397.461 199.448 397.581 199.712 397.833 199.892L397.329 201.104H398.229L399.033 199.892C399.189 199.676 399.285 199.436 399.285 199.148C399.285 198.548 398.865 198.212 398.385 198.212Z" fill="#3333FF"/>
<path d="M133.628 224.016H133.194C132.774 224.016 132.592 223.806 132.592 223.274V220.376C132.592 219.088 131.976 218.598 130.408 218.598H129.806V219.886C130.8 219.886 131.136 220.18 131.136 220.88V223.176C131.136 224.072 131.402 224.506 132.116 224.674C131.402 224.856 131.136 225.29 131.136 226.186V228.482C131.136 229.182 130.8 229.476 129.806 229.476V230.764H130.408C131.976 230.764 132.592 230.274 132.592 228.972V226.088C132.592 225.556 132.774 225.346 133.194 225.346H133.628V224.016ZM135.299 218.612C136.321 220.208 136.951 222.35 136.951 224.674C136.951 226.998 136.321 229.14 135.299 230.736H136.755C137.861 229.14 138.463 226.998 138.463 224.674C138.463 222.35 137.861 220.208 136.755 218.612H135.299ZM139.985 224.968C140.489 224.968 140.867 224.576 140.867 224.03C140.867 223.498 140.489 223.12 139.985 223.12C139.481 223.12 139.103 223.498 139.103 224.03C139.103 224.576 139.481 224.968 139.985 224.968ZM139.985 227.306C139.481 227.306 139.117 227.684 139.117 228.202C139.117 228.496 139.243 228.762 139.495 228.93L138.963 230.148H139.789L140.587 228.944C140.741 228.72 140.839 228.482 140.839 228.202C140.839 227.642 140.433 227.306 139.985 227.306Z" fill="#3333FF"/>
<path d="M101.628 247.016H101.194C100.774 247.016 100.592 246.806 100.592 246.274V243.376C100.592 242.088 99.976 241.598 98.408 241.598H97.806V242.886C98.8 242.886 99.136 243.18 99.136 243.88V246.176C99.136 247.072 99.402 247.506 100.116 247.674C99.402 247.856 99.136 248.29 99.136 249.186V251.482C99.136 252.182 98.8 252.476 97.806 252.476V253.764H98.408C99.976 253.764 100.592 253.274 100.592 251.972V249.088C100.592 248.556 100.774 248.346 101.194 248.346H101.628V247.016ZM103.299 241.612C104.321 243.208 104.951 245.35 104.951 247.674C104.951 249.998 104.321 252.14 103.299 253.736H104.755C105.861 252.14 106.463 249.998 106.463 247.674C106.463 245.35 105.861 243.208 104.755 241.612H103.299ZM107.985 247.968C108.489 247.968 108.867 247.576 108.867 247.03C108.867 246.498 108.489 246.12 107.985 246.12C107.481 246.12 107.103 246.498 107.103 247.03C107.103 247.576 107.481 247.968 107.985 247.968ZM107.985 250.306C107.481 250.306 107.117 250.684 107.117 251.202C107.117 251.496 107.243 251.762 107.495 251.93L106.963 253.148H107.789L108.587 251.944C108.741 251.72 108.839 251.482 108.839 251.202C108.839 250.642 108.433 250.306 107.985 250.306Z" fill="#3333FF"/>
<rect x="76.5" y="84.5" width="379" height="175" rx="3.5" stroke="#CCCCFD"/>
</svg>
