<svg width="671" height="149" viewBox="0 0 671 149" fill="none" xmlns="http://www.w3.org/2000/svg">
<rect width="671" height="149" rx="12" fill="#EEF1F7"/>
<path d="M0 12C0 5.37258 5.37258 0 12 0H48V149H12C5.37258 149 0 143.627 0 137V12Z" fill="#E4E7EE"/>
<path opacity="0.4" d="M23.216 27V18.6H20.156V19.86H21.8V27H23.216Z" fill="#5C6068"/>
<path opacity="0.4" d="M23.456 43.54C22.376 43.54 21.308 43.996 20.396 44.74L20.96 45.832C21.668 45.184 22.52 44.776 23.252 44.776C24.128 44.776 24.656 45.184 24.656 45.856C24.656 46.336 24.248 47.02 23.636 47.644L20.54 50.968V52H26.516V50.728H22.412L24.596 48.412C25.484 47.452 26.132 46.504 26.132 45.652C26.132 44.368 25.04 43.54 23.456 43.54Z" fill="#5C6068"/>
<path opacity="0.4" d="M23.144 72.092L25.544 69.5V68.612H20.432V69.872H23.792L21.608 72.224V73.052H22.772C23.888 73.052 24.548 73.52 24.548 74.432C24.548 75.296 23.9 75.872 22.784 75.872C22.016 75.872 21.236 75.56 20.636 74.996L20.048 76.148C20.768 76.7 21.848 77.06 22.88 77.06C24.752 77.06 25.94 75.968 25.94 74.396C25.94 73.076 24.98 72.26 23.576 72.14L23.144 72.092Z" fill="#5C6068"/>
<path opacity="0.4" d="M21.872 98.676L24.596 93.6H23.228L20.36 98.88V99.936H24.368V102H25.688V99.936H26.912V98.676H25.688V96.684H24.368V98.676H21.872Z" fill="#5C6068"/>
<path opacity="0.4" d="M26.072 119.872L26.06 118.6H20.948V123.04C21.512 122.98 22.652 122.932 23.156 122.932C24.236 122.932 24.896 123.46 24.896 124.312C24.896 125.26 24.236 125.824 23.144 125.824C22.388 125.824 21.548 125.5 20.876 124.936L20.312 126.088C21.14 126.664 22.304 127.048 23.3 127.048C25.184 127.048 26.408 125.932 26.408 124.228C26.408 122.752 25.232 121.672 23.408 121.672L22.256 121.684V119.872H26.072Z" fill="#5C6068"/>
<rect x="76.5" y="61.5" width="475" height="21" rx="3.5" fill="white"/>
<path d="M86.149 71.007V69.525L80.429 71.943V73.62L86.149 76.038V74.556L81.742 72.775L86.149 71.007ZM94.4412 67.354H92.4522V71.033C91.9452 70.318 91.1782 69.928 90.1902 69.928C88.2402 69.928 86.9402 71.345 86.9402 73.477C86.9402 75.635 88.2532 77.078 90.2422 77.078C91.2042 77.078 91.9582 76.688 92.4522 75.973V77H94.4412V67.354ZM90.7102 75.466C89.6572 75.466 88.9552 74.673 88.9422 73.529C88.9552 72.398 89.6702 71.592 90.7102 71.592C91.7372 71.592 92.4522 72.385 92.4522 73.529C92.4522 74.673 91.7372 75.466 90.7102 75.466ZM97.4386 66.899C96.8016 66.899 96.3596 67.367 96.3596 68.017C96.3596 68.667 96.8016 69.135 97.4386 69.135C98.0756 69.135 98.5176 68.667 98.5176 68.017C98.5176 67.367 98.0756 66.899 97.4386 66.899ZM98.4396 77V70.006H96.4376V77H98.4396ZM104.065 77L106.704 70.006H104.715L103.077 75.102L101.426 70.006L99.3594 70.019L102.011 77H104.065ZM113.086 69.915C111.565 69.915 110.33 70.656 110.33 72.099C110.33 74.556 113.957 73.958 113.957 75.076C113.957 75.453 113.58 75.622 113.073 75.622C112.306 75.622 111.37 75.31 110.642 74.751L109.992 76.103C110.785 76.74 111.89 77.078 113.021 77.078C114.607 77.078 115.868 76.324 115.868 74.894C115.881 72.424 112.189 72.957 112.189 71.904C112.189 71.54 112.527 71.384 112.995 71.384C113.58 71.384 114.36 71.631 115.127 72.06L115.816 70.695C115.036 70.201 114.048 69.915 113.086 69.915ZM121.12 75.141C120.756 75.31 120.444 75.401 120.184 75.401C119.755 75.414 119.508 75.18 119.508 74.595V71.709H121.406V70.318H119.508V68.394H117.519V70.318H116.544V71.696H117.519V74.933C117.519 76.376 118.468 77.091 119.716 77.091C120.366 77.091 121.016 76.909 121.536 76.61L121.12 75.141ZM129.203 70.006H127.201L125.55 74.816L123.717 70.006H121.65L124.549 76.857L124.354 77.247C124.159 77.663 123.847 77.871 123.431 77.871C123.106 77.871 122.833 77.754 122.521 77.494L121.676 78.937C122.248 79.405 122.833 79.613 123.574 79.613C124.783 79.613 125.641 79.015 126.135 77.78L129.203 70.006ZM132.147 77V67.354H130.145V77H132.147ZM137.158 69.941C135.026 69.941 133.557 71.371 133.557 73.529C133.557 75.648 134.974 77.078 137.21 77.078C138.471 77.078 139.498 76.623 140.2 75.843L139.147 74.777C138.666 75.258 138.042 75.518 137.379 75.518C136.482 75.518 135.806 74.998 135.572 74.114H140.59C140.759 71.566 139.615 69.941 137.158 69.941ZM135.533 72.931C135.689 72.008 136.287 71.41 137.171 71.41C138.094 71.41 138.692 72.008 138.718 72.931H135.533ZM147.099 72.034V70.708H141.379V72.034H147.099ZM147.099 74.816V73.49H141.379V74.816H147.099ZM149.814 71.358V67.9H148.306V71.358H149.814ZM152.128 71.358V67.9H150.62V71.358H152.128ZM162.438 77L164.986 70.006H163.01L161.476 75.011L159.942 70.006H157.979L156.471 75.011L154.911 70.006L152.87 70.019L155.431 77H157.433L158.928 72.385L160.436 77H162.438ZM166.869 66.899C166.232 66.899 165.79 67.367 165.79 68.017C165.79 68.667 166.232 69.135 166.869 69.135C167.506 69.135 167.948 68.667 167.948 68.017C167.948 67.367 167.506 66.899 166.869 66.899ZM167.87 77V70.006H165.868V77H167.87ZM176.694 67.354H174.705V71.033C174.198 70.318 173.431 69.928 172.443 69.928C170.493 69.928 169.193 71.345 169.193 73.477C169.193 75.635 170.506 77.078 172.495 77.078C173.457 77.078 174.211 76.688 174.705 75.973V77H176.694V67.354ZM172.963 75.466C171.91 75.466 171.208 74.673 171.195 73.529C171.208 72.398 171.923 71.592 172.963 71.592C173.99 71.592 174.705 72.385 174.705 73.529C174.705 74.673 173.99 75.466 172.963 75.466ZM182.604 75.141C182.24 75.31 181.928 75.401 181.668 75.401C181.239 75.414 180.992 75.18 180.992 74.595V71.709H182.89V70.318H180.992V68.394H179.003V70.318H178.028V71.696H179.003V74.933C179.003 76.376 179.952 77.091 181.2 77.091C181.85 77.091 182.5 76.909 183.02 76.61L182.604 75.141ZM188.711 69.928C187.619 69.941 186.787 70.37 186.293 71.241V67.354H184.291V77H186.293V73.555C186.293 72.528 186.904 71.774 187.905 71.761C188.763 71.761 189.283 72.307 189.283 73.191V77H191.285V72.606C191.285 70.968 190.284 69.928 188.711 69.928ZM193.557 71.189C192.985 71.189 192.556 71.605 192.556 72.216C192.556 72.814 192.985 73.256 193.557 73.256C194.142 73.256 194.558 72.814 194.558 72.216C194.558 71.605 194.142 71.189 193.557 71.189ZM193.557 75.05C192.985 75.05 192.556 75.466 192.556 76.077C192.556 76.675 192.985 77.117 193.557 77.117C194.142 77.117 194.558 76.675 194.558 76.077C194.558 75.466 194.142 75.05 193.557 75.05ZM204.98 69.616V67.9H199.156L199.143 72.944C199.728 72.905 201.106 72.879 201.6 72.879C202.588 72.879 203.173 73.321 203.173 74.101C203.173 74.933 202.588 75.427 201.6 75.427C200.781 75.427 199.936 75.05 199.234 74.348L198.415 75.973C199.338 76.636 200.677 77.078 201.834 77.078C203.979 77.078 205.37 75.856 205.37 73.958C205.37 72.333 204.044 71.202 201.99 71.202L201.041 71.215V69.616H204.98ZM210.386 67.835C207.812 67.835 206.408 69.473 206.408 72.437C206.408 75.414 207.812 77.065 210.386 77.065C212.934 77.065 214.351 75.414 214.351 72.437C214.351 69.473 212.934 67.835 210.386 67.835ZM210.386 69.408C211.66 69.408 212.245 70.305 212.245 72.437C212.245 74.582 211.66 75.492 210.386 75.492C209.099 75.492 208.514 74.582 208.514 72.437C208.514 70.305 209.099 69.408 210.386 69.408ZM219.476 67.835C216.902 67.835 215.498 69.473 215.498 72.437C215.498 75.414 216.902 77.065 219.476 77.065C222.024 77.065 223.441 75.414 223.441 72.437C223.441 69.473 222.024 67.835 219.476 67.835ZM219.476 69.408C220.75 69.408 221.335 70.305 221.335 72.437C221.335 74.582 220.75 75.492 219.476 75.492C218.189 75.492 217.604 74.582 217.604 72.437C217.604 70.305 218.189 69.408 219.476 69.408ZM229.255 69.941C228.306 69.941 227.539 70.331 227.045 71.033V70.006H225.043V79.522H227.045V75.986C227.552 76.688 228.319 77.078 229.294 77.078C231.257 77.078 232.544 75.661 232.544 73.542C232.544 71.384 231.218 69.941 229.255 69.941ZM228.787 75.414C227.76 75.414 227.045 74.634 227.045 73.477C227.045 72.346 227.76 71.553 228.787 71.553C229.814 71.553 230.516 72.359 230.516 73.477C230.516 74.621 229.814 75.414 228.787 75.414ZM236.344 72.125L235.057 70.006H232.769L235.018 73.425L232.6 77H234.81L236.344 74.712L237.748 77H240.049L237.67 73.412L239.893 70.006H237.709L236.344 72.125ZM241.685 73.256C242.27 73.256 242.686 72.814 242.686 72.216C242.686 71.605 242.27 71.189 241.685 71.189C241.113 71.189 240.684 71.605 240.684 72.216C240.684 72.814 241.113 73.256 241.685 73.256ZM241.698 75.063C241.126 75.063 240.697 75.479 240.697 76.077C240.697 76.402 240.827 76.688 241.1 76.883L240.554 78.196H241.529L242.4 76.883C242.569 76.649 242.673 76.389 242.673 76.077C242.673 75.427 242.218 75.063 241.698 75.063ZM251.781 69.928C250.689 69.941 249.857 70.37 249.363 71.241V67.354H247.361V77H249.363V73.555C249.363 72.528 249.974 71.774 250.975 71.761C251.833 71.761 252.353 72.307 252.353 73.191V77H254.355V72.606C254.355 70.968 253.354 69.928 251.781 69.928ZM259.071 69.941C256.939 69.941 255.47 71.371 255.47 73.529C255.47 75.648 256.887 77.078 259.123 77.078C260.384 77.078 261.411 76.623 262.113 75.843L261.06 74.777C260.579 75.258 259.955 75.518 259.292 75.518C258.395 75.518 257.719 74.998 257.485 74.114H262.503C262.672 71.566 261.528 69.941 259.071 69.941ZM257.446 72.931C257.602 72.008 258.2 71.41 259.084 71.41C260.007 71.41 260.605 72.008 260.631 72.931H257.446ZM264.826 66.899C264.189 66.899 263.747 67.367 263.747 68.017C263.747 68.667 264.189 69.135 264.826 69.135C265.463 69.135 265.905 68.667 265.905 68.017C265.905 67.367 265.463 66.899 264.826 66.899ZM265.827 77V70.006H263.825V77H265.827ZM274.3 70.006H272.311V70.955C271.83 70.305 271.102 69.928 270.153 69.941C268.372 69.941 267.15 71.28 267.15 73.256C267.15 75.284 268.398 76.636 270.205 76.636C271.128 76.636 271.843 76.272 272.311 75.622V76.415C272.311 77.364 271.583 77.975 270.439 77.975C269.646 77.975 268.905 77.728 268.268 77.273L267.527 78.677C268.333 79.223 269.386 79.6 270.569 79.6C272.805 79.6 274.3 78.339 274.3 76.35V70.006ZM270.673 75.115C269.685 75.115 269.035 74.374 269.022 73.308C269.035 72.242 269.698 71.488 270.673 71.488C271.648 71.488 272.311 72.229 272.311 73.308C272.311 74.374 271.648 75.115 270.673 75.115ZM280.612 69.928C279.52 69.941 278.688 70.37 278.194 71.241V67.354H276.192V77H278.194V73.555C278.194 72.528 278.805 71.774 279.806 71.761C280.664 71.761 281.184 72.307 281.184 73.191V77H283.186V72.606C283.186 70.968 282.185 69.928 280.612 69.928ZM288.813 75.141C288.449 75.31 288.137 75.401 287.877 75.401C287.448 75.414 287.201 75.18 287.201 74.595V71.709H289.099V70.318H287.201V68.394H285.212V70.318H284.237V71.696H285.212V74.933C285.212 76.376 286.161 77.091 287.409 77.091C288.059 77.091 288.709 76.909 289.229 76.61L288.813 75.141ZM290.994 71.189C290.422 71.189 289.993 71.605 289.993 72.216C289.993 72.814 290.422 73.256 290.994 73.256C291.579 73.256 291.995 72.814 291.995 72.216C291.995 71.605 291.579 71.189 290.994 71.189ZM290.994 75.05C290.422 75.05 289.993 75.466 289.993 76.077C289.993 76.675 290.422 77.117 290.994 77.117C291.579 77.117 291.995 76.675 291.995 76.077C291.995 75.466 291.579 75.05 290.994 75.05ZM303.001 69.369V67.9H296.059V70.89H297.879V69.616H300.726L297.372 77H299.543L303.001 69.369ZM307.784 67.835C305.21 67.835 303.806 69.473 303.806 72.437C303.806 75.414 305.21 77.065 307.784 77.065C310.332 77.065 311.749 75.414 311.749 72.437C311.749 69.473 310.332 67.835 307.784 67.835ZM307.784 69.408C309.058 69.408 309.643 70.305 309.643 72.437C309.643 74.582 309.058 75.492 307.784 75.492C306.497 75.492 305.912 74.582 305.912 72.437C305.912 70.305 306.497 69.408 307.784 69.408ZM316.874 67.835C314.3 67.835 312.896 69.473 312.896 72.437C312.896 75.414 314.3 77.065 316.874 77.065C319.422 77.065 320.839 75.414 320.839 72.437C320.839 69.473 319.422 67.835 316.874 67.835ZM316.874 69.408C318.148 69.408 318.733 70.305 318.733 72.437C318.733 74.582 318.148 75.492 316.874 75.492C315.587 75.492 315.002 74.582 315.002 72.437C315.002 70.305 315.587 69.408 316.874 69.408ZM326.653 69.941C325.704 69.941 324.937 70.331 324.443 71.033V70.006H322.441V79.522H324.443V75.986C324.95 76.688 325.717 77.078 326.692 77.078C328.655 77.078 329.942 75.661 329.942 73.542C329.942 71.384 328.616 69.941 326.653 69.941ZM326.185 75.414C325.158 75.414 324.443 74.634 324.443 73.477C324.443 72.346 325.158 71.553 326.185 71.553C327.212 71.553 327.914 72.359 327.914 73.477C327.914 74.621 327.212 75.414 326.185 75.414ZM333.742 72.125L332.455 70.006H330.167L332.416 73.425L329.998 77H332.208L333.742 74.712L335.146 77H337.447L335.068 73.412L337.291 70.006H335.107L333.742 72.125ZM339.084 73.256C339.669 73.256 340.085 72.814 340.085 72.216C340.085 71.605 339.669 71.189 339.084 71.189C338.512 71.189 338.083 71.605 338.083 72.216C338.083 72.814 338.512 73.256 339.084 73.256ZM339.097 75.063C338.525 75.063 338.096 75.479 338.096 76.077C338.096 76.402 338.226 76.688 338.499 76.883L337.953 78.196H338.928L339.799 76.883C339.968 76.649 340.072 76.389 340.072 76.077C340.072 75.427 339.617 75.063 339.097 75.063ZM345.695 66.899C345.058 66.899 344.616 67.367 344.616 68.017C344.616 68.667 345.058 69.135 345.695 69.135C346.332 69.135 346.774 68.667 346.774 68.017C346.774 67.367 346.332 66.899 345.695 66.899ZM346.696 77V70.006H344.694V77H346.696ZM355.52 67.354H353.531V71.033C353.024 70.318 352.257 69.928 351.269 69.928C349.319 69.928 348.019 71.345 348.019 73.477C348.019 75.635 349.332 77.078 351.321 77.078C352.283 77.078 353.037 76.688 353.531 75.973V77H355.52V67.354ZM351.789 75.466C350.736 75.466 350.034 74.673 350.021 73.529C350.034 72.398 350.749 71.592 351.789 71.592C352.816 71.592 353.531 72.385 353.531 73.529C353.531 74.673 352.816 75.466 351.789 75.466ZM362.704 72.034V70.708H356.984V72.034H362.704ZM362.704 74.816V73.49H356.984V74.816H362.704ZM365.419 71.358V67.9H363.911V71.358H365.419ZM367.733 71.358V67.9H366.225V71.358H367.733ZM378.043 77L380.591 70.006H378.615L377.081 75.011L375.547 70.006H373.584L372.076 75.011L370.516 70.006L368.475 70.019L371.036 77H373.038L374.533 72.385L376.041 77H378.043ZM384.403 69.941C382.154 69.941 380.646 71.358 380.646 73.503C380.646 75.635 382.154 77.078 384.403 77.078C386.639 77.078 388.147 75.635 388.147 73.503C388.147 71.358 386.639 69.941 384.403 69.941ZM384.403 71.605C385.43 71.605 386.145 72.385 386.145 73.529C386.145 74.673 385.43 75.453 384.403 75.453C383.363 75.453 382.661 74.673 382.661 73.529C382.661 72.385 383.363 71.605 384.403 71.605ZM398.727 69.928C397.544 69.941 396.66 70.461 396.205 71.54C395.867 70.526 395.022 69.928 393.839 69.928C392.786 69.941 391.967 70.357 391.473 71.215V70.006H389.471V77H391.473V73.542C391.473 72.528 392.058 71.774 393.033 71.761C393.852 71.761 394.372 72.294 394.372 73.191V77H396.361V73.542C396.361 72.528 396.946 71.774 397.908 71.761C398.74 71.761 399.26 72.294 399.26 73.191V77H401.249V72.606C401.249 70.968 400.274 69.928 398.727 69.928ZM406.112 73.685V72.359H402.758V73.685H406.112ZM411.521 77L414.16 70.006H412.171L410.533 75.102L408.882 70.006L406.815 70.019L409.467 77H411.521ZM416.04 66.899C415.403 66.899 414.961 67.367 414.961 68.017C414.961 68.667 415.403 69.135 416.04 69.135C416.677 69.135 417.119 68.667 417.119 68.017C417.119 67.367 416.677 66.899 416.04 66.899ZM417.041 77V70.006H415.039V77H417.041ZM421.965 69.941C419.833 69.941 418.364 71.371 418.364 73.529C418.364 75.648 419.781 77.078 422.017 77.078C423.278 77.078 424.305 76.623 425.007 75.843L423.954 74.777C423.473 75.258 422.849 75.518 422.186 75.518C421.289 75.518 420.613 74.998 420.379 74.114H425.397C425.566 71.566 424.422 69.941 421.965 69.941ZM420.34 72.931C420.496 72.008 421.094 71.41 421.978 71.41C422.901 71.41 423.499 72.008 423.525 72.931H420.34ZM435.057 77L437.605 70.006H435.629L434.095 75.011L432.561 70.006H430.598L429.09 75.011L427.53 70.006L425.489 70.019L428.05 77H430.052L431.547 72.385L433.055 77H435.057ZM441.262 69.941C439.13 69.941 437.661 71.371 437.661 73.529C437.661 75.648 439.078 77.078 441.314 77.078C442.575 77.078 443.602 76.623 444.304 75.843L443.251 74.777C442.77 75.258 442.146 75.518 441.483 75.518C440.586 75.518 439.91 74.998 439.676 74.114H444.694C444.863 71.566 443.719 69.941 441.262 69.941ZM439.637 72.931C439.793 72.008 440.391 71.41 441.275 71.41C442.198 71.41 442.796 72.008 442.822 72.931H439.637ZM448.018 70.006H446.016V77H448.018V73.633C448.018 72.45 448.902 71.683 450.332 71.813V69.928C449.292 69.941 448.499 70.409 448.018 71.267V70.006ZM454.557 73.685V72.359H451.203V73.685H454.557ZM460.538 69.941C459.589 69.941 458.822 70.331 458.328 71.033V70.006H456.326V79.522H458.328V75.986C458.835 76.688 459.602 77.078 460.577 77.078C462.54 77.078 463.827 75.661 463.827 73.542C463.827 71.384 462.501 69.941 460.538 69.941ZM460.07 75.414C459.043 75.414 458.328 74.634 458.328 73.477C458.328 72.346 459.043 71.553 460.07 71.553C461.097 71.553 461.799 72.359 461.799 73.477C461.799 74.621 461.097 75.414 460.07 75.414ZM467.215 77V67.354H465.213V77H467.215ZM475.866 70.006H473.877V73.464C473.877 74.478 473.292 75.232 472.33 75.245C471.524 75.245 471.017 74.712 471.017 73.828V70.006H469.015V74.4C469.015 76.051 469.99 77.078 471.537 77.078C472.59 77.078 473.396 76.649 473.877 75.765V77H475.866V70.006ZM484.357 70.006H482.368V70.955C481.887 70.305 481.159 69.928 480.21 69.941C478.429 69.941 477.207 71.28 477.207 73.256C477.207 75.284 478.455 76.636 480.262 76.636C481.185 76.636 481.9 76.272 482.368 75.622V76.415C482.368 77.364 481.64 77.975 480.496 77.975C479.703 77.975 478.962 77.728 478.325 77.273L477.584 78.677C478.39 79.223 479.443 79.6 480.626 79.6C482.862 79.6 484.357 78.339 484.357 76.35V70.006ZM480.73 75.115C479.742 75.115 479.092 74.374 479.079 73.308C479.092 72.242 479.755 71.488 480.73 71.488C481.705 71.488 482.368 72.229 482.368 73.308C482.368 74.374 481.705 75.115 480.73 75.115ZM487.185 66.899C486.548 66.899 486.106 67.367 486.106 68.017C486.106 68.667 486.548 69.135 487.185 69.135C487.822 69.135 488.264 68.667 488.264 68.017C488.264 67.367 487.822 66.899 487.185 66.899ZM488.186 77V70.006H486.184V77H488.186ZM494.527 69.928C493.435 69.941 492.603 70.357 492.109 71.228V70.006H490.107V77H492.109V73.555C492.109 72.528 492.707 71.774 493.708 71.761C494.566 71.761 495.086 72.307 495.086 73.191V77H497.088V72.606C497.088 70.968 496.087 69.928 494.527 69.928ZM500.142 71.358V67.9H498.634V71.358H500.142ZM502.456 71.358V67.9H500.948V71.358H502.456ZM503.665 74.465V75.947L509.372 73.529V71.852L503.665 69.434V70.916L508.072 72.697L503.665 74.465ZM515.962 71.007V69.525L510.241 71.943V73.62L515.962 76.038V74.556L511.555 72.775L515.962 71.007ZM517.663 78.456L521.849 66.444H520.159L515.986 78.456H517.663ZM528.748 67.354H526.759V71.033C526.252 70.318 525.485 69.928 524.497 69.928C522.547 69.928 521.247 71.345 521.247 73.477C521.247 75.635 522.56 77.078 524.549 77.078C525.511 77.078 526.265 76.688 526.759 75.973V77H528.748V67.354ZM525.017 75.466C523.964 75.466 523.262 74.673 523.249 73.529C523.262 72.398 523.977 71.592 525.017 71.592C526.044 71.592 526.759 72.385 526.759 73.529C526.759 74.673 526.044 75.466 525.017 75.466ZM531.745 66.899C531.108 66.899 530.666 67.367 530.666 68.017C530.666 68.667 531.108 69.135 531.745 69.135C532.382 69.135 532.824 68.667 532.824 68.017C532.824 67.367 532.382 66.899 531.745 66.899ZM532.746 77V70.006H530.744V77H532.746ZM538.372 77L541.011 70.006H539.022L537.384 75.102L535.733 70.006L533.666 70.019L536.318 77H538.372ZM541.358 74.465V75.947L547.065 73.529V71.852L541.358 69.434V70.916L545.765 72.697L541.358 74.465Z" fill="#3333FF"/>
<rect x="76.5" y="61.5" width="475" height="21" rx="3.5" stroke="#CCCCFD"/>
<rect x="57" y="15" width="86" height="17" fill="#E4E7EE"/>
<rect x="57" y="90" width="86" height="17" fill="#E4E7EE"/>
<rect x="57" y="38" width="132" height="17" fill="#E4E7EE"/>
<rect x="57" y="115" width="132" height="17" fill="#E4E7EE"/>
<rect x="151" y="15" width="86" height="17" fill="#E4E7EE"/>
<rect x="151" y="90" width="86" height="17" fill="#E4E7EE"/>
<rect x="245" y="90" width="86" height="17" fill="#E4E7EE"/>
<rect x="339" y="90" width="86" height="17" fill="#E4E7EE"/>
<rect x="433" y="90" width="86" height="17" fill="#E4E7EE"/>
<rect x="527" y="90" width="86" height="17" fill="#E4E7EE"/>
<rect x="201" y="38" width="132" height="17" fill="#E4E7EE"/>
<rect x="341" y="38" width="132" height="17" fill="#E4E7EE"/>
<rect x="481" y="38" width="132" height="17" fill="#E4E7EE"/>
<rect x="201" y="115" width="132" height="17" fill="#E4E7EE"/>
<rect x="341" y="115" width="132" height="17" fill="#E4E7EE"/>
<rect x="481" y="115" width="132" height="17" fill="#E4E7EE"/>
<rect x="245" y="15" width="86" height="17" fill="#E4E7EE"/>
<rect x="339" y="15" width="86" height="17" fill="#E4E7EE"/>
<rect x="433" y="15" width="86" height="17" fill="#E4E7EE"/>
<rect x="527" y="15" width="86" height="17" fill="#E4E7EE"/>
</svg>
