<svg width="56" height="35" viewBox="0 0 56 35" fill="none" xmlns="http://www.w3.org/2000/svg">
<rect x="1" y="0.75" width="54.1549" height="33.75" rx="2.32268" fill="white" fill-opacity="0.75" stroke="#EEF2F4" stroke-width="0.943089"/>
<path fill-rule="evenodd" clip-rule="evenodd" d="M12.547 11.8573C11.9584 11.4443 11.1904 11.2374 10.2429 11.2374H6.57466C6.28419 11.2374 6.12372 11.3856 6.09324 11.6819L4.60307 21.2283C4.58758 21.322 4.61056 21.4078 4.67181 21.4858C4.73271 21.5639 4.8093 21.6027 4.90103 21.6027H6.6434C6.94901 21.6027 7.11698 21.4548 7.14781 21.1582L7.56042 18.5846C7.57549 18.4598 7.62923 18.3584 7.72096 18.2803C7.81262 18.2024 7.92727 18.1514 8.06483 18.128C8.20239 18.1048 8.3321 18.0932 8.45459 18.0932C8.57673 18.0932 8.72186 18.101 8.89026 18.1165C9.05823 18.1321 9.1653 18.1397 9.2112 18.1397C10.5256 18.1397 11.5572 17.7617 12.3063 17.005C13.055 16.2486 13.4297 15.1997 13.4297 13.8579C13.4297 12.9377 13.1353 12.2709 12.547 11.8573ZM10.6556 14.7237C10.579 15.2698 10.3805 15.6284 10.0595 15.8C9.73853 15.9719 9.28002 16.0573 8.68402 16.0573L7.92741 16.0807L8.31724 13.5771C8.34766 13.4056 8.44695 13.3198 8.61521 13.3198H9.05094C9.662 13.3198 10.1055 13.4097 10.3806 13.5888C10.6556 13.7683 10.7473 14.1467 10.6556 14.7237Z" fill="#003087" fill-opacity="0.75"/>
<path fill-rule="evenodd" clip-rule="evenodd" d="M51.2582 11.2374H49.5618C49.3933 11.2374 49.2941 11.3232 49.2638 11.4948L47.7735 21.2284L47.7505 21.2751C47.7505 21.3535 47.7811 21.4273 47.8424 21.4975C47.9032 21.5676 47.9799 21.6027 48.0715 21.6027H49.5848C49.8748 21.6027 50.0353 21.4548 50.0663 21.1582L51.5565 11.5882V11.5649C51.5564 11.3466 51.4567 11.2374 51.2582 11.2374Z" fill="#009CDE" fill-opacity="0.75"/>
<path fill-rule="evenodd" clip-rule="evenodd" d="M30.7619 15.0043C30.7619 14.9265 30.7312 14.8522 30.6704 14.7821C30.6091 14.712 30.5402 14.6767 30.4641 14.6767H28.6987C28.5302 14.6767 28.3927 14.7551 28.286 14.9107L25.8558 18.5609L24.8471 15.0512C24.7704 14.8018 24.6024 14.6767 24.3428 14.6767H22.623C22.5464 14.6767 22.4777 14.7119 22.4169 14.7821C22.3556 14.8522 22.3252 14.9265 22.3252 15.0043C22.3252 15.0357 22.4742 15.4957 22.7722 16.3848C23.0702 17.2741 23.3911 18.2335 23.7351 19.263C24.079 20.2924 24.2585 20.8386 24.2738 20.9007C23.0204 22.6478 22.3939 23.5838 22.3939 23.7084C22.3939 23.9113 22.4932 24.0126 22.692 24.0126H24.4573C24.6254 24.0126 24.7629 23.9348 24.87 23.7788L30.7163 15.1681C30.7467 15.1371 30.7619 15.0827 30.7619 15.0043Z" fill="#003087" fill-opacity="0.75"/>
<path fill-rule="evenodd" clip-rule="evenodd" d="M47.2004 14.6767H45.4579C45.2438 14.6767 45.1142 14.9342 45.0684 15.449C44.6706 14.8253 43.945 14.513 42.8902 14.513C41.7898 14.513 40.8534 14.9342 40.0818 15.7766C39.3098 16.6189 38.9241 17.6096 38.9241 18.7482C38.9241 19.6687 39.1876 20.4018 39.7149 20.9475C40.2422 21.4938 40.9491 21.7665 41.8358 21.7665C42.2789 21.7665 42.7298 21.6727 43.1883 21.4857C43.6469 21.2985 44.0057 21.0491 44.266 20.737C44.266 20.7526 44.2504 20.8227 44.2201 20.9474C44.1892 21.0725 44.1742 21.1662 44.1742 21.2282C44.1742 21.4781 44.2733 21.6026 44.4723 21.6026H46.0543C46.3443 21.6026 46.5127 21.4547 46.5584 21.1581L47.4985 15.0511C47.5136 14.9575 47.4907 14.8718 47.4297 14.7937C47.3684 14.7159 47.2921 14.6767 47.2004 14.6767ZM44.2086 19.2863C43.8188 19.6763 43.3489 19.8712 42.7987 19.8712C42.3552 19.8712 41.9964 19.7466 41.7211 19.4968C41.4459 19.2477 41.3083 18.9045 41.3083 18.4673C41.3083 17.8906 41.4994 17.4027 41.8816 17.005C42.2633 16.6072 42.7375 16.4083 43.3031 16.4083C43.7306 16.4083 44.086 16.5371 44.3691 16.7943C44.6516 17.0518 44.7933 17.4067 44.7933 17.8592C44.7932 18.4206 44.5983 18.8965 44.2086 19.2863Z" fill="#009CDE" fill-opacity="0.75"/>
<path fill-rule="evenodd" clip-rule="evenodd" d="M21.1562 14.6767H19.4137C19.1995 14.6767 19.0698 14.9342 19.0239 15.449C18.6112 14.8253 17.8852 14.513 16.8459 14.513C15.7454 14.513 14.8091 14.9342 14.0374 15.7766C13.2654 16.6189 12.8796 17.6096 12.8796 18.7482C12.8796 19.6687 13.1433 20.4018 13.6707 20.9475C14.198 21.4938 14.9047 21.7665 15.7913 21.7665C16.219 21.7665 16.6626 21.6727 17.121 21.4857C17.5795 21.2985 17.9464 21.0491 18.2215 20.737C18.1602 20.9241 18.1297 21.088 18.1297 21.2282C18.1297 21.4781 18.229 21.6026 18.4278 21.6026H20.0097C20.2999 21.6026 20.4682 21.4547 20.5141 21.1581L21.454 15.0511C21.4691 14.9575 21.4462 14.8718 21.3853 14.7937C21.3241 14.7159 21.2477 14.6767 21.1562 14.6767ZM18.1642 19.2979C17.7744 19.6805 17.2965 19.8712 16.7314 19.8712C16.2879 19.8712 15.9325 19.7466 15.6652 19.4968C15.3976 19.2477 15.264 18.9045 15.264 18.4673C15.264 17.8906 15.4549 17.4027 15.8372 17.005C16.219 16.6072 16.6929 16.4083 17.2586 16.4083C17.6864 16.4083 18.0417 16.5371 18.3248 16.7943C18.6073 17.0518 18.7489 17.4067 18.7489 17.8592C18.7489 18.4363 18.554 18.9161 18.1642 19.2979Z" fill="#003087" fill-opacity="0.75"/>
<path fill-rule="evenodd" clip-rule="evenodd" d="M38.5914 11.8573C38.0029 11.4443 37.235 11.2374 36.2874 11.2374H32.6421C32.3362 11.2374 32.168 11.3856 32.1377 11.6819L30.6475 21.2283C30.632 21.322 30.6549 21.4078 30.7163 21.4858C30.7769 21.5639 30.8537 21.6027 30.9455 21.6027H32.8253C33.0087 21.6027 33.1309 21.5014 33.1922 21.2986L33.6049 18.5846C33.6201 18.4598 33.6736 18.3584 33.7654 18.2803C33.8571 18.2024 33.9716 18.1514 34.1093 18.128C34.2468 18.1048 34.3765 18.0932 34.4991 18.0932C34.6212 18.0932 34.7664 18.101 34.9346 18.1165C35.1027 18.1321 35.21 18.1397 35.2555 18.1397C36.5701 18.1397 37.6016 17.7617 38.3506 17.005C39.0995 16.2486 39.474 15.1997 39.474 13.8579C39.4741 12.9377 39.1797 12.2709 38.5914 11.8573ZM36.2415 15.7064C35.9052 15.9403 35.4008 16.0573 34.7284 16.0573L33.9947 16.0806L34.3845 13.577C34.4148 13.4056 34.5141 13.3198 34.6825 13.3198H35.095C35.4312 13.3198 35.6987 13.3353 35.8977 13.3665C36.0961 13.3979 36.2874 13.4951 36.4708 13.6589C36.6543 13.8227 36.7459 14.0607 36.7459 14.3726C36.7459 15.0278 36.5776 15.4722 36.2415 15.7064Z" fill="#009CDE" fill-opacity="0.75"/>
</svg>
