<svg width="16" height="17" viewBox="0 0 16 17" fill="none" xmlns="http://www.w3.org/2000/svg">
<mask id="mask0" mask-type="alpha" maskUnits="userSpaceOnUse" x="0" y="0" width="16" height="17">
<path fill-rule="evenodd" clip-rule="evenodd" d="M0 0H15.9236V16.1797H0V0Z" fill="white"/>
</mask>
<g mask="url(#mask0)">
<path fill-rule="evenodd" clip-rule="evenodd" d="M6.97528 11.6672C4.38652 11.6672 2.28315 9.56387 2.28315 6.9751C2.28315 4.38634 4.38652 2.28297 6.97528 2.28297C9.56404 2.28297 11.6674 4.38634 11.6674 6.9751C11.6674 9.56387 9.56404 11.6672 6.97528 11.6672ZM12.5483 11.182C13.4292 10.0133 13.9685 8.5573 13.9685 6.9751C13.9685 3.12791 10.8225 0 6.97528 0C3.12809 0 0 3.12791 0 6.9751C0 10.8225 3.12809 13.9504 6.97528 13.9504C8.41348 13.9504 9.7618 13.5009 10.8764 12.7459C10.8944 12.764 10.8944 12.764 10.9124 12.7818L13.9685 15.838C14.1843 16.0538 14.4899 16.1798 14.7775 16.1798C15.0652 16.1798 15.3708 16.0717 15.5865 15.838C16.036 15.3886 16.036 14.6695 15.5865 14.22L12.5483 11.182Z" fill="#6B6B6B"/>
</g>
</svg>
