<svg width="10" height="10" viewBox="0 0 10 10" fill="none" xmlns="http://www.w3.org/2000/svg">
<path fill-rule="evenodd" clip-rule="evenodd" d="M9.84373 5.24999C9.84373 6.12238 9.62563 6.92967 9.18943 7.67186C8.75323 8.41404 8.16404 9.00323 7.42186 9.43943C6.67967 9.87563 5.87238 10.0937 4.99999 10.0937C4.12759 10.0937 3.3203 9.87563 2.57812 9.43943C1.83593 9.00323 1.24674 8.41404 0.810545 7.67186C0.374349 6.92967 0.15625 6.12238 0.15625 5.24999C0.15625 4.37759 0.374349 3.5703 0.810545 2.82812C1.24674 2.08593 1.83593 1.49674 2.57812 1.06055C3.3203 0.624349 4.12759 0.40625 4.99999 0.40625C5.87238 0.40625 6.67967 0.624349 7.42186 1.06055C8.16404 1.49674 8.75323 2.08593 9.18943 2.82812C9.62563 3.5703 9.84373 4.37759 9.84373 5.24999ZM4.43358 7.80858L8.02732 4.21483C8.09243 4.16275 8.12498 4.09114 8.12498 3.99999C8.12498 3.90885 8.09243 3.83723 8.02732 3.78515L7.59764 3.33593C7.53253 3.27083 7.45766 3.23827 7.37303 3.23827C7.28839 3.23827 7.21352 3.27083 7.14842 3.33593L4.21874 6.26561L2.85156 4.89843C2.78645 4.83332 2.71158 4.80077 2.62695 4.80077C2.54231 4.80077 2.46744 4.83332 2.40234 4.89843L1.97265 5.34764C1.90755 5.39973 1.875 5.47134 1.875 5.56249C1.875 5.65363 1.90755 5.72525 1.97265 5.77733L4.0039 7.80858C4.05598 7.87368 4.12759 7.90623 4.21874 7.90623C4.30989 7.90623 4.3815 7.87368 4.43358 7.80858Z" fill="#3333FF"/>
</svg>
