<svg width="61" height="39" viewBox="0 0 61 39" fill="none" xmlns="http://www.w3.org/2000/svg">
<g opacity="0.75">
<rect x="3" y="2.75" width="55.3321" height="33.75" rx="2.34425" fill="#0E4595"/>
<path fill-rule="evenodd" clip-rule="evenodd" d="M23.5243 26.6994L25.9855 12.6719H29.9222L27.4592 26.6994H23.5243Z" fill="white"/>
<path fill-rule="evenodd" clip-rule="evenodd" d="M41.6813 12.9744C40.9014 12.6902 39.6793 12.3853 38.1531 12.3853C34.2633 12.3853 31.5233 14.2878 31.5 17.0145C31.4781 19.0301 33.4561 20.1546 34.9493 20.8255C36.4816 21.5131 36.9968 21.9516 36.9895 22.5656C36.9797 23.5058 35.7658 23.9354 34.6343 23.9354C33.0587 23.9354 32.2216 23.7228 30.9288 23.1991L30.4215 22.9761L29.869 26.1163C30.7885 26.5079 32.4887 26.8472 34.2541 26.8647C38.3922 26.8647 41.0785 24.984 41.109 22.0722C41.1239 20.4765 40.0751 19.2621 37.8039 18.261C36.4279 17.6121 35.5853 17.179 35.5942 16.522C35.5942 15.9389 36.3075 15.3154 37.8486 15.3154C39.1359 15.296 40.0684 15.5686 40.7949 15.8528L41.1477 16.0147L41.6813 12.9744Z" fill="white"/>
<path fill-rule="evenodd" clip-rule="evenodd" d="M51.8113 12.6719H48.7695C47.8271 12.6719 47.122 12.9217 46.7081 13.8352L40.8617 26.6905H44.9954C44.9954 26.6905 45.6714 24.962 45.8242 24.5825C46.276 24.5825 50.2917 24.5885 50.8658 24.5885C50.9836 25.0796 51.3448 26.6905 51.3448 26.6905H54.9976L51.8113 12.6719ZM46.9851 21.7297C47.3107 20.9215 48.5535 17.8085 48.5535 17.8085C48.5303 17.8458 48.8767 16.9963 49.0755 16.4697L49.3416 17.6791C49.3416 17.6791 50.0954 21.0275 50.2529 21.7297H46.9851V21.7297Z" fill="white"/>
<path fill-rule="evenodd" clip-rule="evenodd" d="M20.1826 12.6719L16.3286 22.2376L15.9179 20.2937C15.2005 18.0527 12.965 15.6249 10.4659 14.4093L13.99 26.6771L18.155 26.6724L24.3525 12.6719H20.1826Z" fill="white"/>
<path fill-rule="evenodd" clip-rule="evenodd" d="M12.7325 12.6719H6.38471L6.33447 12.9638C11.273 14.1249 14.5407 16.9309 15.8972 20.3023L14.5169 13.8562C14.2786 12.9679 13.5875 12.7029 12.7325 12.6719Z" fill="#F2AE14"/>
</g>
</svg>
