<svg width="10" height="10" viewBox="0 0 10 10" fill="none" xmlns="http://www.w3.org/2000/svg">
<path fill-rule="evenodd" clip-rule="evenodd" d="M9.84373 5.24999C9.84373 6.12238 9.62563 6.92967 9.18943 7.67186C8.75323 8.41404 8.16404 9.00323 7.42186 9.43943C6.67967 9.87563 5.87238 10.0937 4.99999 10.0937C4.12759 10.0937 3.3203 9.87563 2.57812 9.43943C1.83593 9.00323 1.24674 8.41404 0.810545 7.67186C0.374349 6.92967 0.15625 6.12238 0.15625 5.24999C0.15625 4.37759 0.374349 3.5703 0.810545 2.82812C1.24674 2.08593 1.83593 1.49674 2.57812 1.06055C3.3203 0.624349 4.12759 0.40625 4.99999 0.40625C5.87238 0.40625 6.67967 0.624349 7.42186 1.06055C8.16404 1.49674 8.75323 2.08593 9.18943 2.82812C9.62563 3.5703 9.84373 4.37759 9.84373 5.24999ZM4.99999 6.22655C4.75259 6.22655 4.54101 6.31444 4.36522 6.49022C4.18944 6.666 4.10155 6.87759 4.10155 7.12498C4.10155 7.37238 4.18944 7.58397 4.36522 7.75975C4.54101 7.93553 4.75259 8.02342 4.99999 8.02342C5.24738 8.02342 5.45897 7.93553 5.63475 7.75975C5.81053 7.58397 5.89842 7.37238 5.89842 7.12498C5.89842 6.87759 5.81053 6.666 5.63475 6.49022C5.45897 6.31444 5.24738 6.22655 4.99999 6.22655ZM4.14062 3.0039L4.29686 5.66014C4.29686 5.71223 4.31965 5.76105 4.36522 5.80663C4.4108 5.8522 4.46614 5.87499 4.53124 5.87499H5.46874C5.53384 5.87499 5.58918 5.8522 5.63475 5.80663C5.68033 5.76105 5.70311 5.71223 5.70311 5.66014L5.85936 3.0039C5.85936 2.92578 5.83658 2.86393 5.791 2.81835C5.74543 2.77278 5.69009 2.74999 5.62499 2.74999H4.37499C4.30989 2.74999 4.25455 2.77278 4.20897 2.81835C4.1634 2.86393 4.14062 2.92578 4.14062 3.0039Z" fill="#FF9500"/>
</svg>
