<svg width="70" height="81" viewBox="0 0 70 81" fill="none" xmlns="http://www.w3.org/2000/svg">
<circle cx="29.3743" cy="29.3743" r="20" transform="rotate(-25.7563 29.3743 29.3743)" fill="#F2F7FF" stroke="black" stroke-width="4"/>
<path d="M39.8667 46.5182L50.1349 67.8005C50.7349 69.044 50.2132 70.5385 48.9697 71.1385C47.7261 71.7385 46.2317 71.2168 45.6317 69.9732L35.3634 48.691L39.8667 46.5182Z" fill="black"/>
<path d="M44.2437 53.2889L50.5883 66.4391C51.4283 68.18 50.6979 70.2723 48.957 71.1123C47.216 71.9522 45.1238 71.2219 44.2838 69.4809L37.9391 56.3307L44.2437 53.2889Z" fill="#FFEBEB"/>
<path d="M45.9814 56.8915L50.5677 66.3972C51.4077 68.1381 50.6773 70.2304 48.9364 71.0704C47.1954 71.9103 45.1032 71.1799 44.2632 69.439L39.6769 59.9333L45.9814 56.8915Z" fill="#E7C9C9"/>
</svg>
