<svg width="2500" height="886" viewBox="0 0 2500 886" fill="none" xmlns="http://www.w3.org/2000/svg">
<path d="M1799.9 883.283C1739.09 883.283 1703.02 852.143 1700.26 807.291H1758.4C1758.4 822.242 1766.68 842.144 1802.65 843.382C1827.59 843.382 1841.39 828.432 1841.39 817.195C1838.63 799.768 1816.45 798.53 1794.38 794.721C1769.44 791.102 1750.12 786.055 1736.23 779.866C1716.91 769.867 1705.78 748.631 1705.78 726.253C1705.78 686.352 1739.09 655.213 1797.14 655.213C1852.52 655.213 1888.49 683.876 1891.16 727.491H1835.87C1835.87 716.349 1833.11 697.589 1799.9 697.589C1777.72 697.589 1763.92 701.303 1761.16 717.492C1761.16 739.965 1808.17 738.727 1844.15 747.393C1877.36 756.154 1899.53 777.295 1899.53 807.291C1899.53 862.142 1855.28 883.283 1799.9 883.283" fill="white"/>
<path d="M740.369 515.278L931.265 404.338L1033.66 580.128H776.341" fill="white"/>
<path d="M1141.79 876.667V654.787Z" fill="white"/>
<path d="M1141.79 876.667V654.787" stroke="white" stroke-width="55.89"/>
<path d="M651.767 769.014C651.767 803.867 682.219 832.531 715.336 832.531C751.402 832.531 778.999 803.867 778.999 769.014C778.999 735.399 751.402 705.497 715.336 705.497C682.219 705.497 651.767 735.399 651.767 769.014V769.014ZM712.576 883.668C651.767 883.668 599.237 832.531 599.237 769.014C599.237 705.497 651.767 655.598 712.576 655.598C737.509 655.598 759.681 661.883 778.999 675.501V658.074H834.384V878.621H778.999V864.908C762.441 877.383 737.509 883.668 712.576 883.668" fill="white"/>
<path d="M1451.44 580.078L1185.84 116.514L1376.74 4.33685L1708.76 580.078" fill="white"/>
<path d="M906.326 769.014C906.326 803.867 934.018 832.531 969.989 832.531C1003.11 832.531 1033.65 803.867 1033.65 769.014C1033.65 735.399 1003.11 705.497 969.989 705.497C934.018 705.497 906.326 735.399 906.326 769.014ZM967.23 883.668C903.566 883.668 853.796 832.531 853.796 769.014C853.796 705.497 903.566 655.598 967.23 655.598C992.067 655.598 1014.24 661.883 1033.65 675.501V582.082H1088.94V878.621H1033.65V864.908C1014.24 877.383 992.067 883.668 967.23 883.668" fill="white"/>
<path d="M964.502 317.141L1158.16 207.534L1371.23 580.064H1169.2V634.916H1113.91V580.064" fill="white"/>
<path d="M1863.65 636.644C1849.76 636.644 1835.96 624.169 1835.96 609.218C1835.96 594.267 1849.76 581.792 1863.65 581.792C1880.21 581.792 1891.35 594.267 1891.35 609.218C1891.35 624.169 1880.21 636.644 1863.65 636.644ZM1863.65 585.602C1849.76 585.602 1841.48 596.743 1841.48 609.218C1841.48 621.693 1849.76 632.93 1863.65 632.93C1877.45 632.93 1885.73 621.693 1885.73 609.218C1885.73 596.743 1877.45 585.602 1863.65 585.602Z" fill="white"/>
<path d="M1869.36 624.267L1863.84 611.792H1858.32V624.267H1854.14V594.366H1866.6C1869.36 594.366 1874.88 598.175 1874.88 603.127C1874.88 608.078 1872.12 610.554 1869.36 611.792L1874.88 624.267H1869.36ZM1863.84 598.175H1858.32V608.078H1863.84C1869.36 608.078 1869.36 606.84 1869.36 603.127C1869.36 600.555 1869.36 598.175 1863.84 598.175" fill="white"/>
<path d="M1498.23 769.014C1498.23 803.867 1525.92 832.531 1561.9 832.531C1595.11 832.531 1625.46 803.867 1625.46 769.014C1625.46 735.399 1595.11 705.497 1561.9 705.497C1525.92 705.497 1498.23 735.399 1498.23 769.014V769.014ZM1559.04 883.668C1495.47 883.668 1445.7 832.531 1445.7 769.014C1445.7 705.497 1495.47 655.598 1559.04 655.598C1583.97 655.598 1606.15 661.883 1625.46 675.501V658.074H1678.09V878.621H1625.46V864.908C1606.15 877.383 1583.97 883.668 1559.04 883.668" fill="white"/>
<path d="M1243.86 769.014C1243.86 803.867 1274.31 832.531 1307.53 832.531C1343.5 832.531 1371.19 803.867 1371.19 769.014C1371.19 735.399 1343.5 705.497 1307.53 705.497C1274.31 705.497 1243.86 735.399 1243.86 769.014ZM1371.19 582.082H1426.48V878.621H1371.19V864.908C1354.54 877.383 1332.36 883.668 1307.53 883.668C1243.86 883.668 1191.33 832.531 1191.33 769.014C1191.33 705.497 1243.86 655.598 1307.53 655.598C1332.36 655.598 1354.54 661.883 1371.19 675.501V582.082Z" fill="white"/>
</svg>
