<svg width="74" height="27" viewBox="0 0 74 27" fill="none" xmlns="http://www.w3.org/2000/svg">
<path fill-rule="evenodd" clip-rule="evenodd" d="M20.8089 4.94812L21.1057 5.31927C21.4768 6.01185 21.6254 6.72948 21.5511 7.44708C21.4772 7.89252 21.2789 8.33754 21.0067 8.75835C20.7842 9.10483 20.5116 9.40165 20.1902 9.62418C19.9923 9.74774 19.794 9.8467 19.6212 9.89636L19.1261 9.87173C19.0653 9.83672 19.0149 9.78619 18.9802 9.72531C18.9454 9.6644 18.9274 9.59535 18.9282 9.52522C18.9282 9.40165 18.9778 9.30272 19.0518 9.2284C19.1261 9.1541 19.2993 9.10483 19.5218 9.10483C19.6951 9.10483 19.8683 9.0059 20.0908 8.83264C20.3134 8.65939 20.4866 8.43689 20.6602 8.18934C20.8828 7.79356 20.9817 7.37278 20.9817 6.92734C20.9572 6.49929 20.8299 6.08343 20.6106 5.71502L20.2891 5.29425L19.9923 4.99742C19.349 4.50271 18.4832 4.20589 17.3698 4.13156C16.4543 4.05766 15.6131 4.13156 14.8212 4.35448C12.3965 4.97315 10.9116 6.08653 10.3426 7.64536C10.1694 8.1651 10.1447 8.61051 10.2933 9.0059C10.3923 9.22879 10.5655 9.47595 10.8131 9.7235H10.8377L10.912 9.7978C11.1349 9.97066 11.2335 10.1439 11.2585 10.3171C11.2585 10.5397 11.1103 10.7133 10.8377 10.8122C10.6649 10.8862 10.2933 11.0101 9.72434 11.1834L9.1307 11.3562C7.54685 11.8513 6.26063 12.6182 5.29545 13.6577L5.07292 13.8556L4.85003 14.152C4.10777 15.0182 3.5634 15.9583 3.24194 16.9728C3.01902 17.6654 2.92009 18.3337 2.96975 19.0021C2.99439 19.6696 3.19228 20.264 3.51413 20.8076C3.83489 21.3807 4.2838 21.8719 4.82576 22.2429C5.39477 22.614 6.0381 22.8862 6.7557 23.0594C7.57226 23.2327 8.58672 23.2084 9.79903 23.0352C11.16 22.8123 12.298 22.4408 13.1638 21.8717L13.56 21.6242L13.9804 21.3278C14.4977 20.8727 14.9853 20.385 15.4402 19.8675C15.96 19.2739 16.3061 18.6798 16.529 18.1108C16.7022 17.5418 16.7519 17.0721 16.6776 16.6764C16.6283 16.4288 16.529 16.2301 16.3561 16.0819L16.3065 16.008C16.2322 15.9583 16.1582 15.8348 16.0589 15.6369C16.0589 15.5133 16.0835 15.439 16.1578 15.3651C16.2318 15.2912 16.3061 15.2415 16.43 15.2415C16.554 15.2415 16.7022 15.3154 16.8258 15.4394L16.8504 15.4636C17.0237 15.6369 17.1473 15.9091 17.2462 16.2305C17.3698 16.6513 17.3698 17.0968 17.2955 17.5422C17.0483 18.9278 16.1574 20.2644 14.6233 21.5507L14.4254 21.6989L14.2275 21.8976L13.7575 22.194C12.842 22.8127 11.7778 23.2581 10.5409 23.5307C9.2789 23.8025 8.01692 23.8521 6.70565 23.7031C5.49334 23.5549 4.45425 23.2577 3.61266 22.8377C2.77147 22.3915 2.0789 21.7982 1.53452 21.0313L1.06445 20.3141C0.891209 20.0415 0.767629 19.6704 0.64366 19.25C0.42114 18.3838 0.470415 17.4925 0.792267 16.6271C0.915847 16.3056 1.16339 15.8594 1.53452 15.3154C2.15319 14.4989 2.74683 13.856 3.31584 13.3851L3.5634 13.1872L3.83558 12.9894C5.29505 11.9499 7.34895 11.1333 9.99614 10.5643C10.4169 10.4654 10.6398 10.3664 10.6398 10.2921C10.6398 10.2428 10.5409 10.1932 10.343 10.1193H10.2937C9.03174 9.74814 8.38843 9.10483 8.3638 8.23861V7.94179C8.3638 7.57067 8.48736 7.17489 8.75955 6.80338C9.0071 6.38296 9.37825 6.01185 9.87293 5.66536C10.9367 4.82417 12.3719 4.2055 14.1286 3.83438C17.073 3.21568 19.2254 3.48787 20.5617 4.70021L20.8089 4.94812Z" fill="white"/>
<path fill-rule="evenodd" clip-rule="evenodd" d="M25.2131 4.10709C24.9409 3.95889 24.6441 3.85957 24.2976 3.78525C23.7307 3.68972 23.1506 3.70661 22.5902 3.83491C22.0458 3.9585 21.3778 4.25532 20.5859 4.70074L19.9919 4.99759C19.2601 5.42349 18.5723 5.92077 17.9384 6.48209C17.3197 7.00183 16.7261 7.6201 16.1571 8.3377C15.5138 9.05533 14.7715 10.1934 13.9549 11.7521C13.5293 12.537 13.1331 13.3374 12.7672 14.1518L9.35281 14.3008C7.79401 14.2511 6.43308 14.0282 5.3197 13.6575L4.5528 13.3352L3.86022 12.9891C2.96976 12.4694 2.20247 11.8507 1.58418 11.1827L1.36128 10.8855C1.01478 10.3165 0.866569 9.72249 0.915844 9.12885C0.940482 8.85666 1.01478 8.51018 1.18803 8.11442L1.53452 7.37216L1.58418 7.27323C2.10354 6.33307 2.94473 5.44222 4.1328 4.60102C5.32048 3.73519 6.70605 3.04223 8.31411 2.47321L8.78419 2.34963L9.47679 2.25069L10.5655 2.27533C10.6891 2.25069 10.788 2.22605 10.8623 2.17639C10.9363 2.10248 10.9613 2.05281 10.9613 1.97851C10.9367 1.60738 10.7137 1.40911 10.2441 1.40911C9.77361 1.38447 9.20461 1.50805 8.56166 1.73096C8.14089 1.85453 7.57188 2.07745 6.90394 2.3989C5.93876 2.77003 4.974 3.28978 3.95955 4.00699C2.84616 4.77389 2.05424 5.51612 1.53491 6.25878C1.21345 6.72886 0.9659 7.14924 0.842323 7.47109L0.49505 8.43706L0.346444 9.20393C0.173199 10.2676 0.568963 11.2082 1.53413 11.9751C2.15281 12.5441 2.74645 13.0141 3.31546 13.3853L3.8352 13.7067L4.87425 14.1275C5.78977 14.4986 6.90316 14.7212 8.23942 14.8447C9.5507 14.9683 10.9859 14.9441 12.5201 14.7708C12.0993 15.711 11.7282 16.4779 11.4067 17.0469C10.9363 17.8634 10.4416 18.5318 9.92221 19.0511C9.22963 18.5814 8.6356 18.26 8.14049 18.0367C7.67042 17.8388 7.225 17.7402 6.82922 17.7402C6.30948 17.7402 5.86446 17.8885 5.51798 18.1603C5.17147 18.432 4.99824 18.7547 4.99824 19.15C4.99824 19.5708 5.17147 19.9169 5.51798 20.2142C5.93837 20.5602 6.5324 20.7335 7.32433 20.7335C8.31411 20.7335 9.22963 20.4363 10.0458 19.8673C11.1099 20.6349 12.1736 21.3025 13.2131 21.8469L13.3613 21.9716L13.7821 22.1938C15.8356 23.3326 17.7906 23.8022 19.6708 23.6043C21.4772 23.4065 23.0114 22.6388 24.298 21.3029L25.2135 20.3878V19.3733L24.2483 20.2638C22.7392 21.4018 21.081 22.0205 19.2751 22.1445C17.9145 22.243 16.3804 22.0451 14.6729 21.5501L13.9803 21.3279C12.9167 20.9071 11.7782 20.2884 10.5906 19.4719C11.2339 18.9768 11.9515 18.2345 12.7184 17.2201C13.3863 16.3296 13.9803 15.4137 14.4751 14.4986C16.1574 14.1518 17.8895 13.5088 19.6708 12.5933C21.4526 11.6532 22.9867 10.5645 24.298 9.35216L24.7434 8.9564L25.2135 8.48633V6.70501C25.0156 7.12578 24.6937 7.59586 24.2483 8.11521C23.4568 9.105 22.343 10.0948 20.9078 11.0842C18.9779 12.3959 16.9736 13.2867 14.8704 13.806C15.9838 11.6782 17.0725 9.92116 18.112 8.56023C18.8669 7.53866 19.7114 6.58654 20.6356 5.71519L20.7592 5.59162L21.1303 5.31944C22.2683 4.45361 23.3074 4.13173 24.2726 4.40391C24.693 4.52751 25.0148 4.7254 25.2127 4.99798V4.10709H25.2131ZM6.82922 18.3343C7.42326 18.3343 8.28909 18.7054 9.45216 19.448C8.78419 19.9177 8.06659 20.1406 7.27506 20.1406C6.60709 20.1406 6.13665 19.9916 5.81519 19.6702C5.66657 19.522 5.59227 19.3487 5.59227 19.1508C5.59227 18.9776 5.66657 18.8294 5.81519 18.7054C6.03733 18.4579 6.35917 18.3343 6.82922 18.3343Z" fill="white"/>
<path fill-rule="evenodd" clip-rule="evenodd" d="M25.8318 26.6973H0V0.841197H25.8314V26.6973H25.8318ZM24.2976 25.138H1.53417V2.37497H24.2976V25.138ZM53.9144 1.45948L56.0917 1.50914L58.2195 1.48451L58.1698 1.831V2.17748L57.1802 2.10357L55.3746 2.05391H54.8795L54.8545 4.33033V5.17153L54.8795 5.19616L57.8981 5.14689L57.8731 5.46874L57.8981 5.7902L55.671 5.69127L54.8798 5.7159H54.8548L54.954 9.3775L54.9784 9.40214H55.3749L58.2943 9.20425L58.2699 9.55034V9.92149L53.7422 9.94651C53.8161 9.27854 53.8408 8.7342 53.8408 8.28876L53.8905 5.66585C53.8661 3.19153 53.8164 1.78133 53.7669 1.45948H53.9144ZM52.281 1.8306L52.306 2.17709L51.2917 2.10318L49.4852 2.05352H48.9901L48.966 4.32994V5.17114L48.9901 5.19577L52.009 5.1465L51.9846 5.46835L52.009 5.78981L49.7826 5.69088L48.9907 5.71551H48.9663L49.0649 9.37711L49.09 9.40175H49.4858L52.4052 9.20386L52.3808 9.54995V9.92109L47.8531 9.94612C47.927 9.27815 47.9523 8.73381 47.9523 8.28836L48.0011 5.66546C47.977 3.19114 47.9273 1.78094 47.8778 1.45909H48.0268L50.2035 1.50875L52.331 1.48412L52.281 1.8306ZM52.281 0H47.8281V0.519343H52.281V0ZM52.9992 12.8166L52.8997 12.8412L52.8509 18.8786L52.8753 19.4964L52.9247 20.2145L54.36 20.2641L55.7455 20.1894C56.1414 20.1155 56.4628 20.017 56.6851 19.9177C56.8581 19.8191 57.0562 19.6701 57.2794 19.4968L57.5269 19.2747C58.2443 18.5567 58.591 17.592 58.5663 16.3303C58.5413 14.8709 58.1203 13.8564 57.3532 13.2874C57.0318 13.0645 56.7101 12.8913 56.4131 12.817L54.929 12.6934L52.9992 12.8166ZM52.7022 12.3215L55.3749 12.2722L57.3044 12.4455C57.7498 12.569 58.1707 12.8166 58.5672 13.1877C59.3831 13.9546 59.8037 14.969 59.8291 16.1818C59.8291 16.899 59.6801 17.5916 59.3587 18.2106C59.1111 18.6837 58.7942 19.1172 58.4185 19.4968L58.1469 19.7444C57.6765 20.1155 57.1814 20.3881 56.6377 20.5121C56.0431 20.6603 55.2025 20.7342 54.1384 20.71L51.9608 20.7342H51.763C51.788 20.6603 51.8127 20.2645 51.8368 19.5962L51.9116 16.1325C51.8866 14.9448 51.8619 14.1282 51.8368 13.6586L51.763 12.2726L52.7022 12.3215ZM61.1642 12.2229L63.3168 12.2968L65.4447 12.2722L65.3949 12.6187V12.9401L64.43 12.8909L62.5992 12.8416H62.1041L62.0791 15.118V15.9346L62.1041 15.9588L65.1227 15.9092L65.0976 16.2306L65.1227 16.5775L62.8956 16.4782H62.1044L62.0794 16.5032L62.1789 20.1406L62.2283 20.1648L62.6242 20.1891L65.5189 19.9912L65.4947 20.3134V20.6838L60.9667 20.7334L61.0653 19.4961V19.0761L61.1151 16.4285C61.0907 13.9788 61.0412 12.5682 60.9915 12.2222H61.1642V12.2229ZM69.8488 12.2722C70.7889 12.2476 71.4818 12.4204 71.9269 12.8412C72.298 13.1631 72.4717 13.6327 72.4717 14.2018C72.4717 14.7708 72.2242 15.2412 71.7538 15.6612C71.284 16.082 70.6158 16.3538 69.7746 16.5275L69.7987 16.5525L70.6891 17.6905L72.8426 20.412L73.164 20.7831H71.8274L69.3036 17.4918L68.5368 16.6264H68.0417C68.0176 16.9478 68.0176 17.4429 68.0417 18.1355L68.1653 20.7334L67.4978 20.6838L66.9288 20.7334L66.9776 19.4472C67.0027 18.7292 67.0274 17.6162 67.0524 16.1313L67.0027 13.5581L66.9288 12.2714L67.8192 12.3207L69.8488 12.2722ZM68.0426 12.8412V16.1563L68.7108 16.1814L69.7749 16.1074C70.0062 16.0292 70.2296 15.9296 70.4425 15.8102C70.706 15.6704 70.9213 15.455 71.0612 15.1915C71.2343 14.8943 71.3338 14.5729 71.3087 14.2514C71.2349 13.2119 70.5664 12.6926 69.3045 12.6926C68.661 12.6926 68.2404 12.7419 68.0679 12.8162L68.0426 12.8412ZM30.8543 2.05352H30.3842L30.3595 4.32994V5.17114L30.3842 5.19577L33.4031 5.1465L33.3784 5.46835L33.4031 5.78981L31.1763 5.69088L30.3845 5.71551H30.3601L30.4587 9.37711L30.4831 9.40175H30.879L33.7987 9.20386L33.7495 9.54995L33.774 9.92109L29.2463 9.94612C29.3204 9.27815 29.3452 8.73381 29.3452 8.28836L29.3949 5.66546C29.3702 3.19114 29.3204 1.78094 29.2713 1.45909H29.4196L31.597 1.50875L33.7248 1.48412L33.6757 1.8306V2.17709L32.6858 2.10318L30.8543 2.05352ZM29.8644 12.2722L30.4831 12.2229C30.3351 13.5346 30.2853 14.7966 30.3351 15.9588C30.3351 17.617 30.3595 18.8039 30.3842 19.4968L30.4089 19.9431L30.4337 20.1652L30.9532 20.2149L32.6357 20.1652L33.9223 20.0659L33.8976 20.4128V20.7342L32.5863 20.71C32.1159 20.6849 31.3738 20.6849 30.31 20.71L29.246 20.7342L29.3201 19.0768L29.3696 16.5278C29.3696 15.4637 29.3201 14.0285 29.246 12.2229L29.8644 12.2722ZM34.9367 8.33803C35.5062 9.20425 36.1988 9.64969 37.0398 9.64969C37.6091 9.64969 38.0785 9.4518 38.4497 9.05566C38.7965 8.68451 38.9699 8.23909 38.9699 7.71936C38.9699 7.29855 38.8209 6.95246 38.5489 6.68027C38.2772 6.40808 37.831 6.16053 37.2132 5.93804C36.1491 5.56689 35.4562 5.12147 35.1592 4.60174C34.9864 4.28028 34.8875 3.95843 34.8875 3.58728C34.8875 2.89471 35.1348 2.32531 35.6293 1.90452C36.1244 1.45909 36.7678 1.23657 37.5846 1.23657C38.45 1.2612 39.0938 1.45909 39.5141 1.87988L39.1683 2.82001C38.8465 2.05312 38.302 1.68161 37.4854 1.70663C36.9659 1.70663 36.5453 1.83021 36.248 2.10279C35.9513 2.37498 35.8026 2.7461 35.8026 3.21617C35.8271 3.88411 36.1491 4.37921 36.7678 4.67603L37.9061 5.12147C38.5987 5.344 39.0938 5.64082 39.4152 5.9873C39.7366 6.33379 39.885 6.77923 39.885 7.29894C39.885 8.06584 39.5877 8.73417 38.9946 9.25352C38.4256 9.77326 37.7083 10.0208 36.842 10.0208C36.0255 10.0208 35.3326 9.77326 34.7138 9.30318L34.9367 8.33803ZM45.2793 2.07815L44.116 2.05352H44.0916L44.0177 5.1465L43.9927 6.85392L44.0922 9.9469L43.4487 9.89724L42.8797 9.9469C42.9536 9.13034 43.0034 8.09087 43.0034 6.87855L42.9783 3.43948L42.9295 2.05391L40.2326 2.17748L40.2568 1.831L40.2326 1.48451C40.3065 1.50914 41.3456 1.50914 43.3498 1.53378H43.721L46.7396 1.48451L46.6901 1.80597L46.7396 2.17709L45.2793 2.07815ZM38.574 11.9754L39.1927 13.4849L40.7274 16.9486L41.7659 19.299L42.4344 20.7342L41.7909 20.6845L41.1227 20.7342L40.2323 18.5078L39.7372 17.3202L39.7122 17.2951H36.5206L36.4958 17.3202L36.0258 18.4582L35.6299 19.4968C35.4318 20.017 35.2831 20.437 35.2092 20.7596L34.7886 20.71L34.3429 20.7342L34.8628 19.5465L38.2776 11.9754H38.574ZM44.0674 12.2229L43.9682 14.8455V16.6276C43.9438 17.6917 44.0177 18.3842 44.166 18.7057C44.2897 19.0272 44.4633 19.2747 44.6611 19.4968C45.1315 20.0658 45.8244 20.3631 46.6901 20.3384C47.3085 20.3142 47.8036 20.2149 48.1992 19.9916C48.4221 19.868 48.6452 19.7198 48.8177 19.4964C48.9413 19.324 49.0652 19.1504 49.1647 18.9525C49.3378 18.631 49.4364 18.2841 49.5109 17.913C49.5603 17.5669 49.5848 16.9482 49.5848 16.0578V14.9197C49.5603 14.2514 49.5359 13.361 49.462 12.2225L49.8821 12.2964L50.3274 12.2225C50.303 12.4697 50.2786 13.3113 50.2535 14.7211L50.2291 16.0081C50.2041 16.8247 50.1797 17.4179 50.1552 17.7894C50.1302 18.0866 50.056 18.4081 49.9565 18.7296C49.8827 19.0022 49.7346 19.2497 49.5609 19.4964L49.2395 19.8676C48.6208 20.5359 47.7304 20.882 46.5427 20.882C45.9737 20.882 45.4786 20.8081 45.0088 20.6599C44.5384 20.5117 44.1425 20.3138 43.8708 20.0412C43.6869 19.8847 43.5283 19.701 43.4002 19.4964L43.2024 19.0765C43.0787 18.7053 43.0046 18.186 43.0046 17.5419V15.7363L42.9795 14.5975C42.9795 14.2018 42.9307 13.4102 42.8559 12.2225L43.4746 12.2964L44.0674 12.2229ZM44.5125 22.7384L44.9084 26.2276L44.6608 26.2026L44.4133 26.2276L44.3889 25.5342L44.1911 23.6293L43.3745 25.0888L42.8544 26.1779H42.83L41.5183 23.6786L41.3703 25.0145L41.2708 26.2276L41.073 26.2026L40.9249 26.2276L41.42 22.7384H41.4939L42.9292 25.4353L44.4383 22.7384H44.5125ZM48.8427 22.7881C49.6098 22.7631 49.981 23.0357 49.981 23.6047C49.981 23.9758 49.832 24.248 49.5353 24.4212C49.2877 24.5694 48.9663 24.6433 48.5457 24.6433H48.1986L48.2484 26.2276L48.0008 26.2026L47.7533 26.2276L47.803 24.4455L47.7533 22.7881H48.8427ZM39.5141 16.8251L38.7473 14.994C38.3514 14.0782 38.1286 13.6331 38.1039 13.6582L37.8313 14.2518L36.6933 16.8008L36.7181 16.8251H39.5141ZM37.5349 23.4068C37.3121 23.0357 36.9406 22.862 36.4464 22.862C35.9757 22.862 35.6048 23.0353 35.3576 23.4068C35.1592 23.6786 35.0603 24.0247 35.0603 24.4951C35.0603 24.9405 35.1592 25.3117 35.3576 25.5835C35.6048 25.9546 35.9757 26.1283 36.4464 26.1283C36.9409 26.1283 37.3121 25.955 37.5349 25.5835C37.733 25.3117 37.8313 24.9402 37.8313 24.4951C37.8313 24.0501 37.733 23.6786 37.5349 23.4068ZM37.8313 25.8064C37.5099 26.1279 37.0404 26.2761 36.4464 26.2761C35.8768 26.2761 35.4067 26.1279 35.0606 25.8064C34.7392 25.4849 34.5661 25.0641 34.5661 24.4947C34.5661 23.9253 34.7392 23.5049 35.0606 23.1831C35.4073 22.8616 35.8774 22.7134 36.4464 22.7134C37.0404 22.7134 37.5099 22.8616 37.8313 23.1831C38.1784 23.5046 38.3514 23.9253 38.3514 24.4947C38.3514 25.0641 38.1784 25.4849 37.8313 25.8064ZM48.1986 24.4455L48.4712 24.4705C49.1638 24.4705 49.51 24.1979 49.51 23.6539C49.51 23.1835 49.2383 22.9359 48.6693 22.9359L48.2237 22.9856L48.1986 24.4455ZM32.2154 22.9117C32.1656 23.0599 32.1409 23.1835 32.1159 23.3075H32.0667C31.8192 23.0357 31.4978 22.8866 31.1019 22.8866C30.6812 22.8866 30.3351 23.0599 30.0625 23.3818C29.84 23.6543 29.7411 24.0501 29.7411 24.5198C29.7411 24.9902 29.8644 25.386 30.1119 25.6586C30.3351 25.9304 30.6565 26.0786 31.0768 26.104C31.473 26.104 31.8442 25.955 32.1907 25.6586L32.2154 25.6828L32.1409 25.98C31.8442 26.1779 31.473 26.2765 31.003 26.2765C30.4587 26.2765 30.0378 26.1283 29.7163 25.8068C29.3949 25.4853 29.2212 25.0645 29.2212 24.5198C29.2212 23.9508 29.419 23.4811 29.7905 23.1592C30.1119 22.862 30.582 22.7138 31.1763 22.7138C31.5967 22.7138 31.9431 22.7881 32.2154 22.9117ZM68.3396 22.9117V23.0599L67.0533 23.0357L67.0039 24.0247V24.2722H67.6965L68.2404 24.248L68.216 24.4212L68.2404 24.5448L67.35 24.4951L67.0039 24.5194V24.5941L67.028 25.9796L67.6467 25.9546L68.364 25.9049V26.2272H68.3396V26.2022L66.5332 26.2272L66.5829 25.2616V24.8659L66.6074 24.3211L66.5585 22.7873H68.3396V22.9117ZM72.422 22.9363L72.2739 23.3571H72.2242C72.1744 23.2335 72.1005 23.1096 71.9766 23.0357C71.853 22.9363 71.7291 22.8866 71.6054 22.9121C71.4076 22.887 71.2587 22.9617 71.1601 23.0853C71.0365 23.2089 70.9623 23.3329 70.9623 23.5053C70.9623 23.7032 71.0362 23.8522 71.1842 23.9758C71.2837 24.0497 71.4815 24.1483 71.7788 24.2722C72.0505 24.3958 72.2242 24.4951 72.3228 24.5945C72.4717 24.7427 72.5456 24.9405 72.5456 25.1635C72.5456 25.4849 72.422 25.7325 72.1988 25.9546C71.9766 26.1775 71.6793 26.2761 71.3335 26.2761C71.0117 26.2761 70.7147 26.1775 70.4916 25.9796L70.5911 25.5334H70.6409C70.7147 25.7067 70.8133 25.8307 70.9623 25.93C71.1103 26.0039 71.2587 26.0535 71.4318 26.0535C71.6549 26.0535 71.8277 25.9796 71.9513 25.8557C72.0755 25.7321 72.15 25.5585 72.15 25.3606C72.15 25.1627 72.1003 25.0137 71.9766 24.9151C71.8774 24.8158 71.6793 24.7173 71.4076 24.6179C71.1103 24.4944 70.8884 24.3461 70.7642 24.1971C70.6336 24.0462 70.5631 23.8527 70.5658 23.6532C70.5658 23.3559 70.6891 23.1084 70.9125 22.9352C71.0859 22.7869 71.3579 22.713 71.6793 22.713C71.9438 22.7114 72.2025 22.7892 72.422 22.9363ZM60.2979 22.7881L60.1987 26.2765H60.1249L59.4573 25.5342L57.6014 23.5308L57.577 23.555L57.6014 25.9053L57.6255 26.2276L57.4531 26.2026L57.2553 26.2276L57.3041 25.6089L57.3539 24.4455V22.7138H57.4277L59.9521 25.3856L59.9271 22.7877H60.2979V22.7881ZM63.688 22.7881L63.6382 24.3219C63.6382 24.8909 63.6382 25.3117 63.6624 25.6335L63.6874 26.228L63.4398 26.2029L63.1923 26.228L63.2167 25.6335L63.1923 22.7885H63.688V22.7881ZM53.3707 22.7384H53.4693L54.954 26.2276L54.7065 26.2026L54.4589 26.2276L53.9144 24.8666H52.628L52.1329 26.2276L51.9596 26.2026L51.7871 26.2276L53.3209 22.8378V22.7881L53.3707 22.7384ZM53.2962 23.3814L52.7272 24.6684H53.8405L53.4693 23.8268L53.2962 23.3814Z" fill="white"/>
</svg>
